{
copyright = "Copyright (c) 2015, Cadson Demak (info@cadsondemak.com)";
customParameters = (
{
name = vendorID;
value = CDK;
},
{
name = description;
value = "Copyright (c) 2015, Cadson Demak (info@cadsondemak.com)";
},
{
name = license;

glyphs = (
{
glyphname = A;
lastChange = "2015-10-26 06:29:26 +0000";
layers = (
{
layerId = "C5AF2DAB-186C-4D06-AB99-4303FDDF1A44";
name = "Light Italic";
paths = (
{
closed = 1;
nodes = (
"165 0 LINE",
"166 9 LINE",
"149 17 OFFCURVE",
"126 23 OFFCURVE",
"90 27 CURVE",
"415 618 LINE",
"495 27 LINE",
"463 24 OFFCURVE",
"438 19 OFFCURVE",
"414 10 CURVE",
"412 0 LINE",
"632 0 LINE",
"634 10 LINE",
"612 19 OFFCURVE",
"588 25 OFFCURVE",
"562 28 CURVE",
"466 704 LINE",
"420 704 LINE",
"49 29 LINE",
"28 27 OFFCURVE",
"-5 20 OFFCURVE",
"-30 11 CURVE",
"-32 0 LINE"
);
},
{
closed = 1;
nodes = (
"492 183 LINE",
"499 214 LINE",
"168 214 LINE",
"161 183 LINE"
);
}
);
width = 677;
}
);
leftKerningGroup = A;
note = A;
rightKerningGroup = A;
unicode = 0041;
},
{
glyphname = Aacute;
lastChange = "2015-10-26 06:20:54 +0000";
layers = (
{
layerId = "C5AF2DAB-186C-4D06-AB99-4303FDDF1A44";
name = "Light Italic";
paths = (
{
closed = 1;
nodes = (
"165 0 LINE",
"166 9 LINE",
"149 17 OFFCURVE",
"126 23 OFFCURVE",
"90 27 CURVE",
"415 618 LINE",
"495 27 LINE",
"463 24 OFFCURVE",
"438 19 OFFCURVE",
"414 10 CURVE",
"412 0 LINE",
"632 0 LINE",
"634 10 LINE",
"612 19 OFFCURVE",
"588 25 OFFCURVE",
"562 28 CURVE",
"466 704 LINE",
"420 704 LINE",
"49 29 LINE",
"28 27 OFFCURVE",
"-5 20 OFFCURVE",
"-30 11 CURVE",
"-32 0 LINE"
);
},
{
closed = 1;
nodes = (
"492 183 LINE",
"499 214 LINE",
"168 214 LINE",
"161 183 LINE"
);
},
{
closed = 1;
nodes = (
"579 865 LINE SMOOTH",
"602 878 OFFCURVE",
"613 892 OFFCURVE",
"613 907 CURVE SMOOTH",
"613 916 OFFCURVE",
"606 924 OFFCURVE",
"593 924 CURVE SMOOTH",
"576 924 OFFCURVE",
"560 912 OFFCURVE",
"552 905 CURVE",
"424 805 LINE",
"433 786 LINE"
);
}
);
width = 677;
}
);
leftKerningGroup = A;
note = Aacute;
rightKerningGroup = A;
unicode = 00C1;
},
{
glyphname = Abreve;
lastChange = "2015-10-26 06:20:54 +0000";
layers = (
{
layerId = "C5AF2DAB-186C-4D06-AB99-4303FDDF1A44";
name = "Light Italic";
paths = (
{
closed = 1;
nodes = (
"165 0 LINE",
"166 9 LINE",
"149 17 OFFCURVE",
"126 23 OFFCURVE",
"90 27 CURVE",
"415 618 LINE",
"495 27 LINE",
"463 24 OFFCURVE",
"438 19 OFFCURVE",
"414 10 CURVE",
"412 0 LINE",
"632 0 LINE",
"634 10 LINE",
"612 19 OFFCURVE",
"588 25 OFFCURVE",
"562 28 CURVE",
"466 704 LINE",
"420 704 LINE",
"49 29 LINE",
"28 27 OFFCURVE",
"-5 20 OFFCURVE",
"-30 11 CURVE",
"-32 0 LINE"
);
},
{
closed = 1;
nodes = (
"492 183 LINE",
"499 214 LINE",
"168 214 LINE",
"161 183 LINE"
);
},
{
closed = 1;
nodes = (
"534 774 OFFCURVE",
"596 811 OFFCURVE",
"622 894 CURVE",
"578 894 LINE",
"554 817 OFFCURVE",
"502 806 OFFCURVE",
"463 806 CURVE SMOOTH",
"426 806 OFFCURVE",
"383 815 OFFCURVE",
"383 878 CURVE SMOOTH",
"383 883 OFFCURVE",
"383 888 OFFCURVE",
"384 894 CURVE",
"340 894 LINE",
"339 888 OFFCURVE",
"339 882 OFFCURVE",
"339 877 CURVE SMOOTH",
"339 806 OFFCURVE",
"386 774 OFFCURVE",
"457 774 CURVE SMOOTH"
);
}
);
width = 677;
}
);
leftKerningGroup = A;
note = Abreve;
rightKerningGroup = A;
unicode = 0102;
},
{
glyphname = Abreveacute;
lastChange = "2015-10-26 06:20:55 +0000";
layers = (
{
layerId = "C5AF2DAB-186C-4D06-AB99-4303FDDF1A44";
name = "Light Italic";
paths = (
{
closed = 1;
nodes = (
"165 0 LINE",
"166 9 LINE",
"149 17 OFFCURVE",
"126 23 OFFCURVE",
"90 27 CURVE",
"415 618 LINE",
"495 27 LINE",
"463 24 OFFCURVE",
"438 19 OFFCURVE",
"414 10 CURVE",
"412 0 LINE",
"632 0 LINE",
"634 10 LINE",
"612 19 OFFCURVE",
"588 25 OFFCURVE",
"562 28 CURVE",
"466 704 LINE",
"420 704 LINE",
"49 29 LINE",
"28 27 OFFCURVE",
"-5 20 OFFCURVE",
"-30 11 CURVE",
"-32 0 LINE"
);
},
{
closed = 1;
nodes = (
"492 183 LINE",
"499 214 LINE",
"168 214 LINE",
"161 183 LINE"
);
},
{
closed = 1;
nodes = (
"537 788 OFFCURVE",
"599 826 OFFCURVE",
"625 908 CURVE",
"582 908 LINE",
"558 831 OFFCURVE",
"506 820 OFFCURVE",
"467 820 CURVE SMOOTH",
"430 820 OFFCURVE",
"387 829 OFFCURVE",
"387 892 CURVE SMOOTH",
"387 897 OFFCURVE",
"387 902 OFFCURVE",
"388 908 CURVE",
"344 908 LINE",
"343 901 OFFCURVE",
"343 895 OFFCURVE",
"343 889 CURVE SMOOTH",
"343 820 OFFCURVE",
"389 788 OFFCURVE",
"460 788 CURVE SMOOTH"
);
},
{
closed = 1;
nodes = (
"583 960 LINE SMOOTH",
"608 973 OFFCURVE",
"622 990 OFFCURVE",
"625 1003 CURVE",
"627 1015 OFFCURVE",
"620 1023 OFFCURVE",
"608 1023 CURVE SMOOTH",
"595 1023 OFFCURVE",
"577 1015 OFFCURVE",
"557 997 CURVE",
"455 915 LINE",
"463 898 LINE"
);
}
);
width = 677;
}
);
leftKerningGroup = A;
note = Abreveacute;
rightKerningGroup = A;
unicode = 1EAE;
},
{
glyphname = Abrevedotbelow;
lastChange = "2015-10-26 06:20:55 +0000";
layers = (
{
layerId = "C5AF2DAB-186C-4D06-AB99-4303FDDF1A44";
name = "Light Italic";
paths = (
{
closed = 1;
nodes = (
"165 0 LINE",
"166 9 LINE",
"149 17 OFFCURVE",
"126 23 OFFCURVE",
"90 27 CURVE",
"415 618 LINE",
"495 27 LINE",
"463 24 OFFCURVE",
"438 19 OFFCURVE",
"414 10 CURVE",
"412 0 LINE",
"632 0 LINE",
"634 10 LINE",
"612 19 OFFCURVE",
"588 25 OFFCURVE",
"562 28 CURVE",
"466 704 LINE",
"420 704 LINE",
"49 29 LINE",
"28 27 OFFCURVE",
"-5 20 OFFCURVE",
"-30 11 CURVE",
"-32 0 LINE"
);
},
{
closed = 1;
nodes = (
"294 -142 OFFCURVE",
"316 -121 OFFCURVE",
"316 -91 CURVE SMOOTH",
"316 -73 OFFCURVE",
"305 -61 OFFCURVE",
"286 -61 CURVE SMOOTH",
"261 -61 OFFCURVE",
"239 -82 OFFCURVE",
"239 -112 CURVE SMOOTH",
"239 -130 OFFCURVE",
"250 -142 OFFCURVE",
"269 -142 CURVE SMOOTH"
);
},
{
closed = 1;
nodes = (
"492 183 LINE",
"499 214 LINE",
"168 214 LINE",
"161 183 LINE"
);
},
{
closed = 1;
nodes = (
"523 774 OFFCURVE",
"586 811 OFFCURVE",
"612 894 CURVE",
"567 894 LINE",
"543 817 OFFCURVE",
"492 806 OFFCURVE",
"452 806 CURVE SMOOTH",
"416 806 OFFCURVE",
"372 816 OFFCURVE",
"372 879 CURVE SMOOTH",
"372 884 OFFCURVE",
"373 889 OFFCURVE",
"373 894 CURVE",
"329 894 LINE",
"329 889 OFFCURVE",
"328 883 OFFCURVE",
"328 878 CURVE SMOOTH",
"328 806 OFFCURVE",
"375 774 OFFCURVE",
"446 774 CURVE SMOOTH"
);
}
);
width = 677;
}
);
leftKerningGroup = A;
note = Abrevedotbelow;
rightKerningGroup = A;
unicode = 1EB6;
},
{
glyphname = Abrevegrave;
lastChange = "2015-10-26 06:20:54 +0000";
layers = (
{
layerId = "C5AF2DAB-186C-4D06-AB99-4303FDDF1A44";
name = "Light Italic";
paths = (
{
closed = 1;
nodes = (
"165 0 LINE",
"166 9 LINE",
"149 17 OFFCURVE",
"126 23 OFFCURVE",
"90 27 CURVE",
"415 618 LINE",
"495 27 LINE",
"463 24 OFFCURVE",
"438 19 OFFCURVE",
"414 10 CURVE",
"412 0 LINE",
"632 0 LINE",
"634 10 LINE",
"612 19 OFFCURVE",
"588 25 OFFCURVE",
"562 28 CURVE",
"466 704 LINE",
"420 704 LINE",
"49 29 LINE",
"28 27 OFFCURVE",
"-5 20 OFFCURVE",
"-30 11 CURVE",
"-32 0 LINE"
);
},
{
closed = 1;
nodes = (
"492 183 LINE",
"499 214 LINE",
"168 214 LINE",
"161 183 LINE"
);
},
{
closed = 1;
nodes = (
"537 788 OFFCURVE",
"599 826 OFFCURVE",
"625 908 CURVE",
"582 908 LINE",
"558 831 OFFCURVE",
"506 820 OFFCURVE",
"467 820 CURVE SMOOTH",
"430 820 OFFCURVE",
"387 829 OFFCURVE",
"387 892 CURVE SMOOTH",
"387 897 OFFCURVE",
"387 902 OFFCURVE",
"388 908 CURVE",
"344 908 LINE",
"343 901 OFFCURVE",
"343 895 OFFCURVE",
"343 889 CURVE SMOOTH",
"343 820 OFFCURVE",
"389 788 OFFCURVE",
"460 788 CURVE SMOOTH"
);
},
{
closed = 1;
nodes = (
"512 915 LINE",
"443 997 LINE",
"430 1015 OFFCURVE",
"416 1023 OFFCURVE",
"402 1023 CURVE SMOOTH",
"390 1023 OFFCURVE",
"379 1015 OFFCURVE",
"377 1003 CURVE",
"374 990 OFFCURVE",
"382 974 OFFCURVE",
"403 960 CURVE SMOOTH",
"496 898 LINE"
);
}
);
width = 677;
}
);
leftKerningGroup = A;
note = Abrevegrave;
rightKerningGroup = A;
unicode = 1EB0;
},
{
glyphname = Abrevehookabove;
lastChange = "2015-10-26 06:20:54 +0000";
layers = (
{
layerId = "C5AF2DAB-186C-4D06-AB99-4303FDDF1A44";
name = "Light Italic";
paths = (
{
closed = 1;
nodes = (
"165 0 LINE",
"166 9 LINE",
"149 17 OFFCURVE",
"126 23 OFFCURVE",
"90 27 CURVE",
"415 618 LINE",
"495 27 LINE",
"463 24 OFFCURVE",
"438 19 OFFCURVE",
"414 10 CURVE",
"412 0 LINE",
"632 0 LINE",
"634 10 LINE",
"612 19 OFFCURVE",
"588 25 OFFCURVE",
"562 28 CURVE",
"466 704 LINE",
"420 704 LINE",
"49 29 LINE",
"28 27 OFFCURVE",
"-5 20 OFFCURVE",
"-30 11 CURVE",
"-32 0 LINE"
);
},
{
closed = 1;
nodes = (
"492 183 LINE",
"499 214 LINE",
"168 214 LINE",
"161 183 LINE"
);
},
{
closed = 1;
nodes = (
"537 788 OFFCURVE",
"599 826 OFFCURVE",
"625 908 CURVE",
"582 908 LINE",
"558 831 OFFCURVE",
"506 820 OFFCURVE",
"467 820 CURVE SMOOTH",
"430 820 OFFCURVE",
"387 829 OFFCURVE",
"387 892 CURVE SMOOTH",
"387 897 OFFCURVE",
"387 902 OFFCURVE",
"388 908 CURVE",
"344 908 LINE",
"343 901 OFFCURVE",
"343 895 OFFCURVE",
"343 889 CURVE SMOOTH",
"343 820 OFFCURVE",
"389 788 OFFCURVE",
"460 788 CURVE SMOOTH"
);
},
{
closed = 1;
nodes = (
"490 884 LINE",
"509 935 LINE",
"552 940 OFFCURVE",
"580 958 OFFCURVE",
"588 996 CURVE SMOOTH",
"589 1001 OFFCURVE",
"589 1005 OFFCURVE",
"589 1009 CURVE SMOOTH",
"589 1044 OFFCURVE",
"560 1058 OFFCURVE",
"525 1058 CURVE SMOOTH",
"502 1058 OFFCURVE",
"479 1051 OFFCURVE",
"463 1044 CURVE",
"464 1021 LINE",
"481 1030 OFFCURVE",
"498 1033 OFFCURVE",
"512 1033 CURVE SMOOTH",
"539 1033 OFFCURVE",
"552 1022 OFFCURVE",
"552 1005 CURVE SMOOTH",
"552 1003 OFFCURVE",
"552 1000 OFFCURVE",
"551 997 CURVE SMOOTH",
"546 973 OFFCURVE",
"526 955 OFFCURVE",
"490 955 CURVE SMOOTH",
"473 955 LINE",
"463 884 LINE"
);
}
);
width = 677;
}
);
leftKerningGroup = A;
note = Abrevehookabove;
rightKerningGroup = A;
unicode = 1EB2;
},
{
glyphname = Abrevetilde;
lastChange = "2015-10-26 06:20:55 +0000";
layers = (
{
layerId = "C5AF2DAB-186C-4D06-AB99-4303FDDF1A44";
name = "Light Italic";
paths = (
{
closed = 1;
nodes = (
"165 0 LINE",
"166 9 LINE",
"149 17 OFFCURVE",
"126 23 OFFCURVE",
"90 27 CURVE",
"415 618 LINE",
"495 27 LINE",
"463 24 OFFCURVE",
"438 19 OFFCURVE",
"414 10 CURVE",
"412 0 LINE",
"632 0 LINE",
"634 10 LINE",
"612 19 OFFCURVE",
"588 25 OFFCURVE",
"562 28 CURVE",
"466 704 LINE",
"420 704 LINE",
"49 29 LINE",
"28 27 OFFCURVE",
"-5 20 OFFCURVE",
"-30 11 CURVE",
"-32 0 LINE"
);
},
{
closed = 1;
nodes = (
"492 183 LINE",
"499 214 LINE",
"168 214 LINE",
"161 183 LINE"
);
},
{
closed = 1;
nodes = (
"537 788 OFFCURVE",
"599 826 OFFCURVE",
"625 908 CURVE",
"582 908 LINE",
"558 831 OFFCURVE",
"506 820 OFFCURVE",
"467 820 CURVE SMOOTH",
"430 820 OFFCURVE",
"387 829 OFFCURVE",
"387 892 CURVE SMOOTH",
"387 897 OFFCURVE",
"387 902 OFFCURVE",
"388 908 CURVE",
"344 908 LINE",
"343 901 OFFCURVE",
"343 895 OFFCURVE",
"343 889 CURVE SMOOTH",
"343 820 OFFCURVE",
"389 788 OFFCURVE",
"460 788 CURVE SMOOTH"
);
},
{
closed = 1;
nodes = (
"376 959 LINE",
"392 995 OFFCURVE",
"416 1018 OFFCURVE",
"443 1018 CURVE SMOOTH",
"478 1018 OFFCURVE",
"513 960 OFFCURVE",
"553 960 CURVE SMOOTH",
"598 960 OFFCURVE",
"631 999 OFFCURVE",
"651 1060 CURVE",
"629 1060 LINE",
"612 1018 OFFCURVE",
"589 998 OFFCURVE",
"563 998 CURVE SMOOTH",
"527 998 OFFCURVE",
"498 1054 OFFCURVE",
"452 1054 CURVE SMOOTH",
"412 1054 OFFCURVE",
"375 1025 OFFCURVE",
"354 959 CURVE"
);
}
);
width = 677;
}
);
leftKerningGroup = A;
note = Abrevetilde;
rightKerningGroup = A;
unicode = 1EB4;
},
{
glyphname = Acaron;
lastChange = "2015-10-26 06:20:55 +0000";
layers = (
{
layerId = "C5AF2DAB-186C-4D06-AB99-4303FDDF1A44";
name = "Light Italic";
paths = (
{
closed = 1;
nodes = (
"165 0 LINE",
"166 9 LINE",
"149 17 OFFCURVE",
"126 23 OFFCURVE",
"90 27 CURVE",
"415 618 LINE",
"495 27 LINE",
"463 24 OFFCURVE",
"438 19 OFFCURVE",
"414 10 CURVE",
"412 0 LINE",
"632 0 LINE",
"634 10 LINE",
"612 19 OFFCURVE",
"588 25 OFFCURVE",
"562 28 CURVE",
"466 704 LINE",
"420 704 LINE",
"49 29 LINE",
"28 27 OFFCURVE",
"-5 20 OFFCURVE",
"-30 11 CURVE",
"-32 0 LINE"
);
},
{
closed = 1;
nodes = (
"492 183 LINE",
"499 214 LINE",
"168 214 LINE",
"161 183 LINE"
);
},
{
closed = 1;
nodes = (
"475 786 LINE",
"514 829 OFFCURVE",
"574 876 OFFCURVE",
"617 903 CURVE",
"594 930 LINE",
"554 903 OFFCURVE",
"503 863 OFFCURVE",
"470 828 CURVE",
"466 828 LINE",
"446 863 OFFCURVE",
"413 903 OFFCURVE",
"382 930 CURVE",
"349 903 LINE",
"381 876 OFFCURVE",
"422 829 OFFCURVE",
"444 786 CURVE"
);
}
);
width = 677;
}
);
leftKerningGroup = A;
note = Acaron;
rightKerningGroup = A;
unicode = 01CD;
},
{
glyphname = Acircumflex;
lastChange = "2015-10-26 06:20:54 +0000";
layers = (
{
layerId = "C5AF2DAB-186C-4D06-AB99-4303FDDF1A44";
name = "Light Italic";
paths = (
{
closed = 1;
nodes = (
"165 0 LINE",
"166 9 LINE",
"149 17 OFFCURVE",
"126 23 OFFCURVE",
"90 27 CURVE",
"415 618 LINE",
"495 27 LINE",
"463 24 OFFCURVE",
"438 19 OFFCURVE",
"414 10 CURVE",
"412 0 LINE",
"632 0 LINE",
"634 10 LINE",
"612 19 OFFCURVE",
"588 25 OFFCURVE",
"562 28 CURVE",
"466 704 LINE",
"420 704 LINE",
"49 29 LINE",
"28 27 OFFCURVE",
"-5 20 OFFCURVE",
"-30 11 CURVE",
"-32 0 LINE"
);
},
{
closed = 1;
nodes = (
"492 183 LINE",
"499 214 LINE",
"168 214 LINE",
"161 183 LINE"
);
},
{
closed = 1;
nodes = (
"393 806 OFFCURVE",
"443 846 OFFCURVE",
"476 881 CURVE",
"481 881 LINE",
"499 846 OFFCURVE",
"534 806 OFFCURVE",
"564 779 CURVE",
"597 806 LINE",
"565 833 OFFCURVE",
"524 880 OFFCURVE",
"503 922 CURVE",
"471 922 LINE",
"433 880 OFFCURVE",
"372 833 OFFCURVE",
"330 806 CURVE",
"351 779 LINE"
);
}
);
width = 677;
}
);
leftKerningGroup = A;
note = Acircumflex;
rightKerningGroup = A;
unicode = 00C2;
},
{
glyphname = Acircumflexacute;
lastChange = "2015-10-26 06:20:55 +0000";
layers = (
{
layerId = "C5AF2DAB-186C-4D06-AB99-4303FDDF1A44";
name = "Light Italic";
paths = (
{
closed = 1;
nodes = (
"165 0 LINE",
"166 9 LINE",
"149 17 OFFCURVE",
"126 23 OFFCURVE",
"90 27 CURVE",
"415 618 LINE",
"495 27 LINE",
"463 24 OFFCURVE",
"438 19 OFFCURVE",
"414 10 CURVE",
"412 0 LINE",
"632 0 LINE",
"634 10 LINE",
"612 19 OFFCURVE",
"588 25 OFFCURVE",
"562 28 CURVE",
"466 704 LINE",
"420 704 LINE",
"49 29 LINE",
"28 27 OFFCURVE",
"-5 20 OFFCURVE",
"-30 11 CURVE",
"-32 0 LINE"
);
},
{
closed = 1;
nodes = (
"492 183 LINE",
"499 214 LINE",
"168 214 LINE",
"161 183 LINE"
);
},
{
closed = 1;
nodes = (
"394 806 OFFCURVE",
"444 846 OFFCURVE",
"477 881 CURVE",
"482 881 LINE",
"501 846 OFFCURVE",
"535 806 OFFCURVE",
"564 779 CURVE",
"597 806 LINE",
"567 833 OFFCURVE",
"525 880 OFFCURVE",
"504 922 CURVE",
"472 922 LINE",
"434 880 OFFCURVE",
"373 833 OFFCURVE",
"330 806 CURVE",
"353 779 LINE"
);
},
{
closed = 1;
nodes = (
"708 955 LINE SMOOTH",
"733 968 OFFCURVE",
"748 985 OFFCURVE",
"751 998 CURVE",
"753 1010 OFFCURVE",
"746 1018 OFFCURVE",
"733 1018 CURVE SMOOTH",
"720 1018 OFFCURVE",
"702 1010 OFFCURVE",
"682 992 CURVE",
"581 910 LINE",
"588 893 LINE"
);
}
);
width = 677;
}
);
leftKerningGroup = A;
note = Acircumflexacute;
rightKerningGroup = A;
unicode = 1EA4;
},
{
glyphname = Acircumflexdotbelow;
lastChange = "2015-10-26 06:20:55 +0000";
layers = (
{
layerId = "C5AF2DAB-186C-4D06-AB99-4303FDDF1A44";
name = "Light Italic";
paths = (
{
closed = 1;
nodes = (
"165 0 LINE",
"166 9 LINE",
"149 17 OFFCURVE",
"126 23 OFFCURVE",
"90 27 CURVE",
"415 618 LINE",
"495 27 LINE",
"463 24 OFFCURVE",
"438 19 OFFCURVE",
"414 10 CURVE",
"412 0 LINE",
"632 0 LINE",
"634 10 LINE",
"612 19 OFFCURVE",
"588 25 OFFCURVE",
"562 28 CURVE",
"466 704 LINE",
"420 704 LINE",
"49 29 LINE",
"28 27 OFFCURVE",
"-5 20 OFFCURVE",
"-30 11 CURVE",
"-32 0 LINE"
);
},
{
closed = 1;
nodes = (
"296 -142 OFFCURVE",
"318 -121 OFFCURVE",
"318 -91 CURVE SMOOTH",
"318 -73 OFFCURVE",
"307 -61 OFFCURVE",
"288 -61 CURVE SMOOTH",
"263 -61 OFFCURVE",
"241 -82 OFFCURVE",
"241 -112 CURVE SMOOTH",
"241 -130 OFFCURVE",
"252 -142 OFFCURVE",
"271 -142 CURVE SMOOTH"
);
},
{
closed = 1;
nodes = (
"492 183 LINE",
"499 214 LINE",
"168 214 LINE",
"161 183 LINE"
);
},
{
closed = 1;
nodes = (
"393 805 OFFCURVE",
"443 845 OFFCURVE",
"476 880 CURVE",
"481 880 LINE",
"499 845 OFFCURVE",
"534 805 OFFCURVE",
"564 778 CURVE",
"597 805 LINE",
"565 832 OFFCURVE",
"524 879 OFFCURVE",
"503 921 CURVE",
"471 921 LINE",
"433 879 OFFCURVE",
"372 832 OFFCURVE",
"330 805 CURVE",
"351 778 LINE"
);
}
);
width = 677;
}
);
leftKerningGroup = A;
note = Acircumflexdotbelow;
rightKerningGroup = A;
unicode = 1EAC;
},
{
glyphname = Acircumflexgrave;
lastChange = "2015-10-26 06:20:54 +0000";
layers = (
{
layerId = "C5AF2DAB-186C-4D06-AB99-4303FDDF1A44";
name = "Light Italic";
paths = (
{
closed = 1;
nodes = (
"165 0 LINE",
"166 9 LINE",
"149 17 OFFCURVE",
"126 23 OFFCURVE",
"90 27 CURVE",
"415 618 LINE",
"495 27 LINE",
"463 24 OFFCURVE",
"438 19 OFFCURVE",
"414 10 CURVE",
"412 0 LINE",
"632 0 LINE",
"634 10 LINE",
"612 19 OFFCURVE",
"588 25 OFFCURVE",
"562 28 CURVE",
"466 704 LINE",
"420 704 LINE",
"49 29 LINE",
"28 27 OFFCURVE",
"-5 20 OFFCURVE",
"-30 11 CURVE",
"-32 0 LINE"
);
},
{
closed = 1;
nodes = (
"492 183 LINE",
"499 214 LINE",
"168 214 LINE",
"161 183 LINE"
);
},
{
closed = 1;
nodes = (
"399 910 LINE",
"344 977 LINE SMOOTH",
"326 998 OFFCURVE",
"307 1018 OFFCURVE",
"289 1018 CURVE SMOOTH",
"277 1018 OFFCURVE",
"267 1010 OFFCURVE",
"265 998 CURVE",
"261 980 OFFCURVE",
"282 960 OFFCURVE",
"307 943 CURVE SMOOTH",
"383 893 LINE"
);
},
{
closed = 1;
nodes = (
"394 806 OFFCURVE",
"444 846 OFFCURVE",
"477 881 CURVE",
"482 881 LINE",
"501 846 OFFCURVE",
"535 806 OFFCURVE",
"564 779 CURVE",
"597 806 LINE",
"567 833 OFFCURVE",
"525 880 OFFCURVE",
"504 922 CURVE",
"472 922 LINE",
"434 880 OFFCURVE",
"373 833 OFFCURVE",
"330 806 CURVE",
"353 779 LINE"
);
}
);
width = 677;
}
);
leftKerningGroup = A;
note = Acircumflexgrave;
rightKerningGroup = A;
unicode = 1EA6;
},
{
glyphname = Acircumflexhookabove;
lastChange = "2015-10-26 06:20:54 +0000";
layers = (
{
layerId = "C5AF2DAB-186C-4D06-AB99-4303FDDF1A44";
name = "Light Italic";
paths = (
{
closed = 1;
nodes = (
"165 0 LINE",
"166 9 LINE",
"149 17 OFFCURVE",
"126 23 OFFCURVE",
"90 27 CURVE",
"415 618 LINE",
"495 27 LINE",
"463 24 OFFCURVE",
"438 19 OFFCURVE",
"414 10 CURVE",
"412 0 LINE",
"632 0 LINE",
"634 10 LINE",
"612 19 OFFCURVE",
"588 25 OFFCURVE",
"562 28 CURVE",
"466 704 LINE",
"420 704 LINE",
"49 29 LINE",
"28 27 OFFCURVE",
"-5 20 OFFCURVE",
"-30 11 CURVE",
"-32 0 LINE"
);
},
{
closed = 1;
nodes = (
"492 183 LINE",
"499 214 LINE",
"168 214 LINE",
"161 183 LINE"
);
},
{
closed = 1;
nodes = (
"394 806 OFFCURVE",
"444 846 OFFCURVE",
"477 881 CURVE",
"482 881 LINE",
"501 846 OFFCURVE",
"535 806 OFFCURVE",
"564 779 CURVE",
"597 806 LINE",
"567 833 OFFCURVE",
"525 880 OFFCURVE",
"504 922 CURVE",
"472 922 LINE",
"434 880 OFFCURVE",
"373 833 OFFCURVE",
"330 806 CURVE",
"353 779 LINE"
);
},
{
closed = 1;
nodes = (
"600 879 LINE",
"619 930 LINE",
"662 935 OFFCURVE",
"690 953 OFFCURVE",
"698 991 CURVE SMOOTH",
"699 996 OFFCURVE",
"700 1001 OFFCURVE",
"700 1006 CURVE SMOOTH",
"700 1039 OFFCURVE",
"669 1053 OFFCURVE",
"636 1053 CURVE SMOOTH",
"612 1053 OFFCURVE",
"590 1046 OFFCURVE",
"574 1039 CURVE",
"575 1016 LINE",
"592 1025 OFFCURVE",
"609 1028 OFFCURVE",
"622 1028 CURVE SMOOTH",
"649 1028 OFFCURVE",
"662 1017 OFFCURVE",
"662 1001 CURVE SMOOTH",
"662 972 OFFCURVE",
"640 950 OFFCURVE",
"600 950 CURVE SMOOTH",
"585 950 LINE",
"574 879 LINE"
);
}
);
width = 677;
}
);
leftKerningGroup = A;
note = Acircumflexhookabove;
rightKerningGroup = A;
unicode = 1EA8;
},
{
glyphname = Acircumflextilde;
lastChange = "2015-10-26 06:20:55 +0000";
layers = (
{
layerId = "C5AF2DAB-186C-4D06-AB99-4303FDDF1A44";
name = "Light Italic";
paths = (
{
closed = 1;
nodes = (
"165 0 LINE",
"166 9 LINE",
"149 17 OFFCURVE",
"126 23 OFFCURVE",
"90 27 CURVE",
"415 618 LINE",
"495 27 LINE",
"463 24 OFFCURVE",
"438 19 OFFCURVE",
"414 10 CURVE",
"412 0 LINE",
"632 0 LINE",
"634 10 LINE",
"612 19 OFFCURVE",
"588 25 OFFCURVE",
"562 28 CURVE",
"466 704 LINE",
"420 704 LINE",
"49 29 LINE",
"28 27 OFFCURVE",
"-5 20 OFFCURVE",
"-30 11 CURVE",
"-32 0 LINE"
);
},
{
closed = 1;
nodes = (
"492 183 LINE",
"499 214 LINE",
"168 214 LINE",
"161 183 LINE"
);
},
{
closed = 1;
nodes = (
"394 806 OFFCURVE",
"444 846 OFFCURVE",
"477 881 CURVE",
"482 881 LINE",
"501 846 OFFCURVE",
"535 806 OFFCURVE",
"564 779 CURVE",
"597 806 LINE",
"567 833 OFFCURVE",
"525 880 OFFCURVE",
"504 922 CURVE",
"472 922 LINE",
"434 880 OFFCURVE",
"373 833 OFFCURVE",
"330 806 CURVE",
"353 779 LINE"
);
},
{
closed = 1;
nodes = (
"375 954 LINE",
"391 990 OFFCURVE",
"415 1013 OFFCURVE",
"442 1013 CURVE SMOOTH",
"477 1013 OFFCURVE",
"512 955 OFFCURVE",
"552 955 CURVE SMOOTH",
"597 955 OFFCURVE",
"630 994 OFFCURVE",
"650 1055 CURVE",
"628 1055 LINE",
"611 1013 OFFCURVE",
"588 993 OFFCURVE",
"562 993 CURVE SMOOTH",
"526 993 OFFCURVE",
"497 1049 OFFCURVE",
"451 1049 CURVE SMOOTH",
"411 1049 OFFCURVE",
"374 1020 OFFCURVE",
"353 954 CURVE"
);
}
);
width = 677;
}
);
leftKerningGroup = A;
note = Acircumflextilde;
rightKerningGroup = A;
unicode = 1EAA;
},
{
glyphname = Adieresis;
lastChange = "2015-10-26 06:20:55 +0000";
layers = (
{
layerId = "C5AF2DAB-186C-4D06-AB99-4303FDDF1A44";
name = "Light Italic";
paths = (
{
closed = 1;
nodes = (
"165 0 LINE",
"166 9 LINE",
"149 17 OFFCURVE",
"126 23 OFFCURVE",
"90 27 CURVE",
"415 618 LINE",
"495 27 LINE",
"463 24 OFFCURVE",
"438 19 OFFCURVE",
"414 10 CURVE",
"412 0 LINE",
"632 0 LINE",
"634 10 LINE",
"612 19 OFFCURVE",
"588 25 OFFCURVE",
"562 28 CURVE",
"466 704 LINE",
"420 704 LINE",
"49 29 LINE",
"28 27 OFFCURVE",
"-5 20 OFFCURVE",
"-30 11 CURVE",
"-32 0 LINE"
);
},
{
closed = 1;
nodes = (
"492 183 LINE",
"499 214 LINE",
"168 214 LINE",
"161 183 LINE"
);
},
{
closed = 1;
nodes = (
"375 785 OFFCURVE",
"397 806 OFFCURVE",
"397 836 CURVE SMOOTH",
"397 855 OFFCURVE",
"386 866 OFFCURVE",
"368 866 CURVE SMOOTH",
"343 866 OFFCURVE",
"322 845 OFFCURVE",
"322 814 CURVE SMOOTH",
"322 796 OFFCURVE",
"332 785 OFFCURVE",
"350 785 CURVE SMOOTH"
);
},
{
closed = 1;
nodes = (
"580 785 OFFCURVE",
"602 806 OFFCURVE",
"602 836 CURVE SMOOTH",
"602 854 OFFCURVE",
"591 866 OFFCURVE",
"572 866 CURVE SMOOTH",
"547 866 OFFCURVE",
"525 845 OFFCURVE",
"525 815 CURVE SMOOTH",
"525 797 OFFCURVE",
"536 785 OFFCURVE",
"555 785 CURVE SMOOTH"
);
}
);
width = 677;
}
);
leftKerningGroup = A;
note = Adieresis;
rightKerningGroup = A;
unicode = 00C4;
},
{
glyphname = Adotbelow;
lastChange = "2015-10-26 06:20:54 +0000";
layers = (
{
layerId = "C5AF2DAB-186C-4D06-AB99-4303FDDF1A44";
name = "Light Italic";
paths = (
{
closed = 1;
nodes = (
"165 0 LINE",
"166 9 LINE",
"149 17 OFFCURVE",
"126 23 OFFCURVE",
"90 27 CURVE",
"415 618 LINE",
"495 27 LINE",
"463 24 OFFCURVE",
"438 19 OFFCURVE",
"414 10 CURVE",
"412 0 LINE",
"632 0 LINE",
"634 10 LINE",
"612 19 OFFCURVE",
"588 25 OFFCURVE",
"562 28 CURVE",
"466 704 LINE",
"420 704 LINE",
"49 29 LINE",
"28 27 OFFCURVE",
"-5 20 OFFCURVE",
"-30 11 CURVE",
"-32 0 LINE"
);
},
{
closed = 1;
nodes = (
"296 -142 OFFCURVE",
"318 -121 OFFCURVE",
"318 -91 CURVE SMOOTH",
"318 -73 OFFCURVE",
"307 -61 OFFCURVE",
"288 -61 CURVE SMOOTH",
"263 -61 OFFCURVE",
"241 -82 OFFCURVE",
"241 -112 CURVE SMOOTH",
"241 -130 OFFCURVE",
"252 -142 OFFCURVE",
"271 -142 CURVE SMOOTH"
);
},
{
closed = 1;
nodes = (
"492 183 LINE",
"499 214 LINE",
"168 214 LINE",
"161 183 LINE"
);
}
);
width = 677;
}
);
leftKerningGroup = A;
note = Adotbelow;
rightKerningGroup = A;
unicode = 1EA0;
},
{
glyphname = Agrave;
lastChange = "2015-10-26 06:20:54 +0000";
layers = (
{
layerId = "C5AF2DAB-186C-4D06-AB99-4303FDDF1A44";
name = "Light Italic";
paths = (
{
closed = 1;
nodes = (
"165 0 LINE",
"166 9 LINE",
"149 17 OFFCURVE",
"126 23 OFFCURVE",
"90 27 CURVE",
"415 618 LINE",
"495 27 LINE",
"463 24 OFFCURVE",
"438 19 OFFCURVE",
"414 10 CURVE",
"412 0 LINE",
"632 0 LINE",
"634 10 LINE",
"612 19 OFFCURVE",
"588 25 OFFCURVE",
"562 28 CURVE",
"466 704 LINE",
"420 704 LINE",
"49 29 LINE",
"28 27 OFFCURVE",
"-5 20 OFFCURVE",
"-30 11 CURVE",
"-32 0 LINE"
);
},
{
closed = 1;
nodes = (
"492 183 LINE",
"499 214 LINE",
"168 214 LINE",
"161 183 LINE"
);
},
{
closed = 1;
nodes = (
"511 805 LINE",
"422 905 LINE",
"417 914 OFFCURVE",
"406 924 OFFCURVE",
"390 924 CURVE SMOOTH",
"372 924 OFFCURVE",
"359 910 OFFCURVE",
"359 896 CURVE SMOOTH",
"359 885 OFFCURVE",
"367 874 OFFCURVE",
"379 865 CURVE",
"494 786 LINE"
);
}
);
width = 677;
}
);
leftKerningGroup = A;
note = Agrave;
rightKerningGroup = A;
unicode = 00C0;
},
{
glyphname = Ahookabove;
lastChange = "2015-10-26 06:20:55 +0000";
layers = (
{
layerId = "C5AF2DAB-186C-4D06-AB99-4303FDDF1A44";
name = "Light Italic";
paths = (
{
closed = 1;
nodes = (
"165 0 LINE",
"166 9 LINE",
"149 17 OFFCURVE",
"126 23 OFFCURVE",
"90 27 CURVE",
"415 618 LINE",
"495 27 LINE",
"463 24 OFFCURVE",
"438 19 OFFCURVE",
"414 10 CURVE",
"412 0 LINE",
"632 0 LINE",
"634 10 LINE",
"612 19 OFFCURVE",
"588 25 OFFCURVE",
"562 28 CURVE",
"466 704 LINE",
"420 704 LINE",
"49 29 LINE",
"28 27 OFFCURVE",
"-5 20 OFFCURVE",
"-30 11 CURVE",
"-32 0 LINE"
);
},
{
closed = 1;
nodes = (
"492 183 LINE",
"499 214 LINE",
"168 214 LINE",
"161 183 LINE"
);
},
{
closed = 1;
nodes = (
"478 779 LINE",
"501 841 LINE",
"557 847 OFFCURVE",
"595 878 OFFCURVE",
"595 931 CURVE SMOOTH",
"595 971 OFFCURVE",
"561 989 OFFCURVE",
"521 989 CURVE SMOOTH",
"493 989 OFFCURVE",
"466 981 OFFCURVE",
"446 972 CURVE",
"447 945 LINE",
"469 956 OFFCURVE",
"491 961 OFFCURVE",
"506 961 CURVE SMOOTH",
"538 961 OFFCURVE",
"553 946 OFFCURVE",
"553 925 CURVE SMOOTH",
"553 922 OFFCURVE",
"553 919 OFFCURVE",
"552 916 CURVE SMOOTH",
"546 887 OFFCURVE",
"522 864 OFFCURVE",
"480 864 CURVE SMOOTH",
"461 864 LINE",
"448 779 LINE"
);
}
);
width = 677;
}
);
leftKerningGroup = A;
note = Ahookabove;
rightKerningGroup = A;
unicode = 1EA2;
},
{
glyphname = Amacron;
lastChange = "2015-10-26 06:20:55 +0000";
layers = (
{
layerId = "C5AF2DAB-186C-4D06-AB99-4303FDDF1A44";
name = "Light Italic";
paths = (
{
closed = 1;
nodes = (
"165 0 LINE",
"166 9 LINE",
"149 17 OFFCURVE",
"126 23 OFFCURVE",
"90 27 CURVE",
"415 618 LINE",
"495 27 LINE",
"463 24 OFFCURVE",
"438 19 OFFCURVE",
"414 10 CURVE",
"412 0 LINE",
"632 0 LINE",
"634 10 LINE",
"612 19 OFFCURVE",
"588 25 OFFCURVE",
"562 28 CURVE",
"466 704 LINE",
"420 704 LINE",
"49 29 LINE",
"28 27 OFFCURVE",
"-5 20 OFFCURVE",
"-30 11 CURVE",
"-32 0 LINE"
);
},
{
closed = 1;
nodes = (
"492 183 LINE",
"499 214 LINE",
"168 214 LINE",
"161 183 LINE"
);
},
{
closed = 1;
nodes = (
"611 784 LINE",
"616 815 LINE",
"316 815 LINE",
"310 784 LINE"
);
}
);
width = 677;
}
);
leftKerningGroup = A;
note = Amacron;
rightKerningGroup = A;
unicode = 0100;
},
{
glyphname = Aogonek;
lastChange = "2015-10-26 06:20:55 +0000";
layers = (
{
layerId = "C5AF2DAB-186C-4D06-AB99-4303FDDF1A44";
name = "Light Italic";
paths = (
{
closed = 1;
nodes = (
"165 0 LINE",
"166 9 LINE",
"149 17 OFFCURVE",
"126 23 OFFCURVE",
"90 27 CURVE",
"415 618 LINE",
"495 27 LINE",
"463 24 OFFCURVE",
"438 19 OFFCURVE",
"414 10 CURVE",
"412 0 LINE",
"632 0 LINE",
"634 10 LINE",
"612 19 OFFCURVE",
"588 25 OFFCURVE",
"562 28 CURVE",
"466 704 LINE",
"420 704 LINE",
"49 29 LINE",
"28 27 OFFCURVE",
"-5 20 OFFCURVE",
"-30 11 CURVE",
"-32 0 LINE"
);
},
{
closed = 1;
nodes = (
"591 -181 OFFCURVE",
"613 -176 OFFCURVE",
"637 -166 CURVE",
"644 -133 LINE",
"627 -141 OFFCURVE",
"610 -144 OFFCURVE",
"595 -144 CURVE SMOOTH",
"567 -144 OFFCURVE",
"546 -132 OFFCURVE",
"546 -106 CURVE SMOOTH",
"546 -102 OFFCURVE",
"546 -98 OFFCURVE",
"547 -94 CURVE SMOOTH",
"555 -56 OFFCURVE",
"589 -20 OFFCURVE",
"629 0 CURVE",
"588 0 LINE",
"538 -20 OFFCURVE",
"501 -60 OFFCURVE",
"492 -104 CURVE SMOOTH",
"491 -109 OFFCURVE",
"490 -114 OFFCURVE",
"490 -119 CURVE SMOOTH",
"490 -152 OFFCURVE",
"513 -181 OFFCURVE",
"564 -181 CURVE SMOOTH"
);
},
{
closed = 1;
nodes = (
"492 183 LINE",
"499 214 LINE",
"168 214 LINE",
"161 183 LINE"
);
}
);
width = 677;
}
);
leftKerningGroup = A;
note = Aogonek;
rightKerningGroup = A;
unicode = 0104;
},
{
glyphname = Aring;
lastChange = "2015-10-26 06:20:54 +0000";
layers = (
{
layerId = "C5AF2DAB-186C-4D06-AB99-4303FDDF1A44";
name = "Light Italic";
paths = (
{
closed = 1;
nodes = (
"165 0 LINE",
"166 9 LINE",
"149 17 OFFCURVE",
"126 23 OFFCURVE",
"90 27 CURVE",
"415 618 LINE",
"495 27 LINE",
"463 24 OFFCURVE",
"438 19 OFFCURVE",
"414 10 CURVE",
"412 0 LINE",
"632 0 LINE",
"634 10 LINE",
"612 19 OFFCURVE",
"588 25 OFFCURVE",
"562 28 CURVE",
"466 704 LINE",
"420 704 LINE",
"49 29 LINE",
"28 27 OFFCURVE",
"-5 20 OFFCURVE",
"-30 11 CURVE",
"-32 0 LINE"
);
},
{
closed = 1;
nodes = (
"492 183 LINE",
"499 214 LINE",
"168 214 LINE",
"161 183 LINE"
);
},
{
closed = 1;
nodes = (
"504 737 OFFCURVE",
"552 781 OFFCURVE",
"552 840 CURVE SMOOTH",
"552 879 OFFCURVE",
"526 904 OFFCURVE",
"484 904 CURVE SMOOTH",
"429 904 OFFCURVE",
"380 861 OFFCURVE",
"380 801 CURVE SMOOTH",
"380 762 OFFCURVE",
"407 737 OFFCURVE",
"449 737 CURVE SMOOTH"
);
},
{
closed = 1;
nodes = (
"428 765 OFFCURVE",
"410 780 OFFCURVE",
"410 805 CURVE SMOOTH",
"410 848 OFFCURVE",
"442 876 OFFCURVE",
"478 876 CURVE SMOOTH",
"505 876 OFFCURVE",
"522 860 OFFCURVE",
"522 834 CURVE SMOOTH",
"522 830 OFFCURVE",
"521 825 OFFCURVE",
"520 820 CURVE SMOOTH",
"513 786 OFFCURVE",
"487 765 OFFCURVE",
"455 765 CURVE SMOOTH"
);
}
);
width = 677;
}
);
leftKerningGroup = A;
note = Aring;
rightKerningGroup = A;
unicode = 00C5;
},
{
glyphname = Aringacute;
lastChange = "2015-10-26 06:20:55 +0000";
layers = (
{
layerId = "C5AF2DAB-186C-4D06-AB99-4303FDDF1A44";
name = "Light Italic";
paths = (
{
closed = 1;
nodes = (
"165 0 LINE",
"166 9 LINE",
"149 17 OFFCURVE",
"126 23 OFFCURVE",
"90 27 CURVE",
"415 618 LINE",
"495 27 LINE",
"463 24 OFFCURVE",
"438 19 OFFCURVE",
"414 10 CURVE",
"412 0 LINE",
"632 0 LINE",
"634 10 LINE",
"612 19 OFFCURVE",
"588 25 OFFCURVE",
"562 28 CURVE",
"466 704 LINE",
"420 704 LINE",
"49 29 LINE",
"28 27 OFFCURVE",
"-5 20 OFFCURVE",
"-30 11 CURVE",
"-32 0 LINE"
);
},
{
closed = 1;
nodes = (
"492 183 LINE",
"499 214 LINE",
"168 214 LINE",
"161 183 LINE"
);
},
{
closed = 1;
nodes = (
"503 734 OFFCURVE",
"551 778 OFFCURVE",
"551 837 CURVE SMOOTH",
"551 876 OFFCURVE",
"525 901 OFFCURVE",
"483 901 CURVE SMOOTH",
"428 901 OFFCURVE",
"379 858 OFFCURVE",
"379 798 CURVE SMOOTH",
"379 759 OFFCURVE",
"406 734 OFFCURVE",
"448 734 CURVE SMOOTH"
);
},
{
closed = 1;
nodes = (
"427 762 OFFCURVE",
"409 777 OFFCURVE",
"409 802 CURVE SMOOTH",
"409 845 OFFCURVE",
"441 873 OFFCURVE",
"477 873 CURVE SMOOTH",
"504 873 OFFCURVE",
"521 857 OFFCURVE",
"521 831 CURVE SMOOTH",
"521 827 OFFCURVE",
"520 822 OFFCURVE",
"519 817 CURVE SMOOTH",
"512 783 OFFCURVE",
"486 762 OFFCURVE",
"454 762 CURVE SMOOTH"
);
},
{
closed = 1;
nodes = (
"606 1008 LINE SMOOTH",
"629 1021 OFFCURVE",
"640 1035 OFFCURVE",
"640 1050 CURVE SMOOTH",
"640 1059 OFFCURVE",
"633 1067 OFFCURVE",
"620 1067 CURVE SMOOTH",
"603 1067 OFFCURVE",
"587 1055 OFFCURVE",
"579 1048 CURVE",
"451 948 LINE",
"460 929 LINE"
);
}
);
width = 677;
}
);
leftKerningGroup = A;
note = Aringacute;
rightKerningGroup = A;
unicode = 01FA;
},
{
glyphname = Atilde;
lastChange = "2015-10-26 06:20:55 +0000";
layers = (
{
layerId = "C5AF2DAB-186C-4D06-AB99-4303FDDF1A44";
name = "Light Italic";
paths = (
{
closed = 1;
nodes = (
"165 0 LINE",
"166 9 LINE",
"149 17 OFFCURVE",
"126 23 OFFCURVE",
"90 27 CURVE",
"415 618 LINE",
"495 27 LINE",
"463 24 OFFCURVE",
"438 19 OFFCURVE",
"414 10 CURVE",
"412 0 LINE",
"632 0 LINE",
"634 10 LINE",
"612 19 OFFCURVE",
"588 25 OFFCURVE",
"562 28 CURVE",
"466 704 LINE",
"420 704 LINE",
"49 29 LINE",
"28 27 OFFCURVE",
"-5 20 OFFCURVE",
"-30 11 CURVE",
"-32 0 LINE"
);
},
{
closed = 1;
nodes = (
"492 183 LINE",
"499 214 LINE",
"168 214 LINE",
"161 183 LINE"
);
},
{
closed = 1;
nodes = (
"330 786 LINE",
"345 822 OFFCURVE",
"372 845 OFFCURVE",
"401 845 CURVE SMOOTH",
"441 845 OFFCURVE",
"480 787 OFFCURVE",
"525 787 CURVE SMOOTH",
"576 787 OFFCURVE",
"612 826 OFFCURVE",
"632 887 CURVE",
"609 887 LINE",
"590 845 OFFCURVE",
"564 825 OFFCURVE",
"535 825 CURVE SMOOTH",
"495 825 OFFCURVE",
"462 881 OFFCURVE",
"411 881 CURVE SMOOTH",
"366 881 OFFCURVE",
"327 852 OFFCURVE",
"305 786 CURVE"
);
}
);
width = 677;
}
);
leftKerningGroup = A;
note = Atilde;
rightKerningGroup = A;
unicode = 00C3;
},
{
glyphname = AE;
lastChange = "2015-10-26 06:20:55 +0000";
layers = (
{
layerId = "C5AF2DAB-186C-4D06-AB99-4303FDDF1A44";
name = "Light Italic";
paths = (
{
closed = 1;
nodes = (
"168 0 LINE",
"169 9 LINE",
"152 17 OFFCURVE",
"127 23 OFFCURVE",
"91 27 CURVE",
"212 183 LINE",
"492 183 LINE",
"460 27 LINE",
"422 23 OFFCURVE",
"398 17 OFFCURVE",
"378 10 CURVE",
"376 0 LINE",
"847 0 LINE",
"886 134 LINE",
"870 134 LINE",
"855 115 OFFCURVE",
"825 58 OFFCURVE",
"816 31 CURVE",
"529 31 LINE",
"593 344 LINE",
"805 344 LINE",
"804 332 OFFCURVE",
"803 309 OFFCURVE",
"803 288 CURVE SMOOTH",
"803 279 OFFCURVE",
"803 270 OFFCURVE",
"804 262 CURVE",
"818 262 LINE",
"858 457 LINE",
"845 457 LINE",
"831 434 OFFCURVE",
"817 393 OFFCURVE",
"811 375 CURVE",
"599 375 LINE",
"659 668 LINE",
"944 668 LINE",
"943 656 OFFCURVE",
"942 637 OFFCURVE",
"942 618 CURVE SMOOTH",
"942 596 OFFCURVE",
"943 575 OFFCURVE",
"946 565 CURVE",
"963 565 LINE",
"990 700 LINE",
"515 700 LINE",
"513 690 LINE",
"525 683 OFFCURVE",
"540 681 OFFCURVE",
"555 677 CURVE",
"44 29 LINE",
"18 25 OFFCURVE",
"-4 19 OFFCURVE",
"-30 10 CURVE",
"-32 0 LINE"
);
},
{
closed = 1;
nodes = (
"586 668 LINE",
"590 668 LINE",
"498 214 LINE",
"237 214 LINE"
);
}
);
width = 947;
}
);
leftKerningGroup = A;
note = AE;
unicode = 00C6;
},
{
glyphname = AEacute;
lastChange = "2015-10-26 06:20:55 +0000";
layers = (
{
layerId = "C5AF2DAB-186C-4D06-AB99-4303FDDF1A44";
name = "Light Italic";
paths = (
{
closed = 1;
nodes = (
"168 0 LINE",
"169 9 LINE",
"152 17 OFFCURVE",
"127 23 OFFCURVE",
"91 27 CURVE",
"212 183 LINE",
"492 183 LINE",
"460 27 LINE",
"422 23 OFFCURVE",
"398 17 OFFCURVE",
"378 10 CURVE",
"376 0 LINE",
"847 0 LINE",
"886 134 LINE",
"870 134 LINE",
"855 115 OFFCURVE",
"825 58 OFFCURVE",
"816 31 CURVE",
"529 31 LINE",
"593 344 LINE",
"805 344 LINE",
"804 332 OFFCURVE",
"803 309 OFFCURVE",
"803 288 CURVE SMOOTH",
"803 279 OFFCURVE",
"803 270 OFFCURVE",
"804 262 CURVE",
"818 262 LINE",
"858 457 LINE",
"845 457 LINE",
"831 434 OFFCURVE",
"817 393 OFFCURVE",
"811 375 CURVE",
"599 375 LINE",
"659 668 LINE",
"944 668 LINE",
"943 656 OFFCURVE",
"942 637 OFFCURVE",
"942 618 CURVE SMOOTH",
"942 596 OFFCURVE",
"943 575 OFFCURVE",
"946 565 CURVE",
"963 565 LINE",
"990 700 LINE",
"515 700 LINE",
"513 690 LINE",
"525 683 OFFCURVE",
"540 681 OFFCURVE",
"555 677 CURVE",
"44 29 LINE",
"18 25 OFFCURVE",
"-4 19 OFFCURVE",
"-30 10 CURVE",
"-32 0 LINE"
);
},
{
closed = 1;
nodes = (
"586 668 LINE",
"590 668 LINE",
"498 214 LINE",
"237 214 LINE"
);
},
{
closed = 1;
nodes = (
"881 865 LINE SMOOTH",
"904 878 OFFCURVE",
"916 891 OFFCURVE",
"916 906 CURVE SMOOTH",
"916 916 OFFCURVE",
"909 924 OFFCURVE",
"896 924 CURVE SMOOTH",
"878 924 OFFCURVE",
"862 912 OFFCURVE",
"854 905 CURVE",
"727 805 LINE",
"735 786 LINE"
);
}
);
width = 947;
}
);
leftKerningGroup = A;
note = AEacute;
unicode = 01FC;
},
{
glyphname = B;
lastChange = "2015-10-26 06:20:55 +0000";
layers = (
{
layerId = "C5AF2DAB-186C-4D06-AB99-4303FDDF1A44";
name = "Light Italic";
paths = (
{
closed = 1;
nodes = (
"293 0 LINE SMOOTH",
"442 0 OFFCURVE",
"513 67 OFFCURVE",
"538 190 CURVE SMOOTH",
"541 204 OFFCURVE",
"542 219 OFFCURVE",
"542 234 CURVE SMOOTH",
"542 295 OFFCURVE",
"515 354 OFFCURVE",
"420 369 CURVE",
"421 373 LINE",
"515 390 OFFCURVE",
"566 468 OFFCURVE",
"580 535 CURVE SMOOTH",
"584 553 OFFCURVE",
"586 569 OFFCURVE",
"586 584 CURVE SMOOTH",
"586 662 OFFCURVE",
"532 700 OFFCURVE",
"405 700 CURVE SMOOTH",
"143 700 LINE",
"141 689 LINE",
"164 681 OFFCURVE",
"190 676 OFFCURVE",
"215 672 CURVE",
"84 28 LINE",
"50 24 OFFCURVE",
"30 20 OFFCURVE",
"3 10 CURVE",
"1 0 LINE"
);
},
{
closed = 1;
nodes = (
"219 353 LINE",
"347 353 LINE SMOOTH",
"431 353 OFFCURVE",
"477 312 OFFCURVE",
"477 238 CURVE SMOOTH",
"477 224 OFFCURVE",
"475 208 OFFCURVE",
"472 192 CURVE SMOOTH",
"451 86 OFFCURVE",
"395 31 OFFCURVE",
"293 31 CURVE SMOOTH",
"153 31 LINE"
);
},
{
closed = 1;
nodes = (
"282 668 LINE",
"393 668 LINE SMOOTH",
"479 668 OFFCURVE",
"518 639 OFFCURVE",
"518 576 CURVE SMOOTH",
"518 563 OFFCURVE",
"516 549 OFFCURVE",
"513 533 CURVE SMOOTH",
"494 443 OFFCURVE",
"432 384 OFFCURVE",
"331 384 CURVE SMOOTH",
"225 384 LINE"
);
}
);
width = 569;
}
);
note = B;
unicode = 0042;
},
{
glyphname = C;
lastChange = "2015-10-26 06:20:55 +0000";
layers = (
{
layerId = "C5AF2DAB-186C-4D06-AB99-4303FDDF1A44";
name = "Light Italic";
paths = (
{
closed = 1;
nodes = (
"382 -10 OFFCURVE",
"455 12 OFFCURVE",
"507 52 CURVE",
"500 74 LINE",
"441 39 OFFCURVE",
"369 22 OFFCURVE",
"326 22 CURVE SMOOTH",
"189 22 OFFCURVE",
"136 105 OFFCURVE",
"136 227 CURVE SMOOTH",
"136 264 OFFCURVE",
"141 306 OFFCURVE",
"150 350 CURVE SMOOTH",
"188 537 OFFCURVE",
"289 678 OFFCURVE",
"465 678 CURVE SMOOTH",
"519 678 OFFCURVE",
"562 658 OFFCURVE",
"584 636 CURVE",
"581 613 OFFCURVE",
"578 579 OFFCURVE",
"578 553 CURVE SMOOTH",
"578 544 OFFCURVE",
"578 536 OFFCURVE",
"579 530 CURVE",
"597 530 LINE",
"628 644 LINE",
"594 684 OFFCURVE",
"537 710 OFFCURVE",
"453 710 CURVE SMOOTH",
"260 710 OFFCURVE",
"126 572 OFFCURVE",
"81 350 CURVE SMOOTH",
"72 307 OFFCURVE",
"68 267 OFFCURVE",
"68 231 CURVE SMOOTH",
"68 79 OFFCURVE",
"146 -10 OFFCURVE",
"306 -10 CURVE SMOOTH"
);
}
);
width = 580;
}
);
leftKerningGroup = C;
note = C;
unicode = 0043;
},
{
glyphname = Cacute;
lastChange = "2015-10-26 06:20:55 +0000";
layers = (
{
layerId = "C5AF2DAB-186C-4D06-AB99-4303FDDF1A44";
name = "Light Italic";
paths = (
{
closed = 1;
nodes = (
"382 -10 OFFCURVE",
"455 12 OFFCURVE",
"507 52 CURVE",
"500 74 LINE",
"441 39 OFFCURVE",
"369 22 OFFCURVE",
"326 22 CURVE SMOOTH",
"189 22 OFFCURVE",
"136 105 OFFCURVE",
"136 227 CURVE SMOOTH",
"136 264 OFFCURVE",
"141 306 OFFCURVE",
"150 350 CURVE SMOOTH",
"188 537 OFFCURVE",
"289 678 OFFCURVE",
"465 678 CURVE SMOOTH",
"519 678 OFFCURVE",
"562 658 OFFCURVE",
"584 636 CURVE",
"581 613 OFFCURVE",
"578 579 OFFCURVE",
"578 553 CURVE SMOOTH",
"578 544 OFFCURVE",
"578 536 OFFCURVE",
"579 530 CURVE",
"597 530 LINE",
"628 644 LINE",
"594 684 OFFCURVE",
"537 710 OFFCURVE",
"453 710 CURVE SMOOTH",
"260 710 OFFCURVE",
"126 572 OFFCURVE",
"81 350 CURVE SMOOTH",
"72 307 OFFCURVE",
"68 267 OFFCURVE",
"68 231 CURVE SMOOTH",
"68 79 OFFCURVE",
"146 -10 OFFCURVE",
"306 -10 CURVE SMOOTH"
);
},
{
closed = 1;
nodes = (
"559 865 LINE SMOOTH",
"582 878 OFFCURVE",
"593 891 OFFCURVE",
"593 906 CURVE SMOOTH",
"593 916 OFFCURVE",
"586 924 OFFCURVE",
"573 924 CURVE SMOOTH",
"556 924 OFFCURVE",
"540 912 OFFCURVE",
"532 905 CURVE",
"404 805 LINE",
"413 786 LINE"
);
}
);
width = 580;
}
);
leftKerningGroup = C;
note = Cacute;
unicode = 0106;
},
{
glyphname = Ccaron;
lastChange = "2015-10-26 06:20:54 +0000";
layers = (
{
layerId = "C5AF2DAB-186C-4D06-AB99-4303FDDF1A44";
name = "Light Italic";
paths = (
{
closed = 1;
nodes = (
"382 -10 OFFCURVE",
"455 12 OFFCURVE",
"507 52 CURVE",
"500 74 LINE",
"441 39 OFFCURVE",
"369 22 OFFCURVE",
"326 22 CURVE SMOOTH",
"189 22 OFFCURVE",
"136 105 OFFCURVE",
"136 227 CURVE SMOOTH",
"136 264 OFFCURVE",
"141 306 OFFCURVE",
"150 350 CURVE SMOOTH",
"188 537 OFFCURVE",
"289 678 OFFCURVE",
"465 678 CURVE SMOOTH",
"519 678 OFFCURVE",
"562 658 OFFCURVE",
"584 636 CURVE",
"581 613 OFFCURVE",
"578 579 OFFCURVE",
"578 553 CURVE SMOOTH",
"578 544 OFFCURVE",
"578 536 OFFCURVE",
"579 530 CURVE",
"597 530 LINE",
"628 644 LINE",
"594 684 OFFCURVE",
"537 710 OFFCURVE",
"453 710 CURVE SMOOTH",
"260 710 OFFCURVE",
"126 572 OFFCURVE",
"81 350 CURVE SMOOTH",
"72 307 OFFCURVE",
"68 267 OFFCURVE",
"68 231 CURVE SMOOTH",
"68 79 OFFCURVE",
"146 -10 OFFCURVE",
"306 -10 CURVE SMOOTH"
);
},
{
closed = 1;
nodes = (
"496 786 LINE",
"535 829 OFFCURVE",
"595 876 OFFCURVE",
"638 903 CURVE",
"615 930 LINE",
"575 903 OFFCURVE",
"524 863 OFFCURVE",
"492 828 CURVE",
"487 828 LINE",
"468 863 OFFCURVE",
"434 903 OFFCURVE",
"403 930 CURVE",
"371 903 LINE",
"402 876 OFFCURVE",
"444 829 OFFCURVE",
"465 786 CURVE"
);
}
);
width = 580;
}
);
leftKerningGroup = C;
note = Ccaron;
unicode = 010C;
},
{
glyphname = Ccedilla;
lastChange = "2015-10-26 06:20:54 +0000";
layers = (
{
layerId = "C5AF2DAB-186C-4D06-AB99-4303FDDF1A44";
name = "Light Italic";
paths = (
{
closed = 1;
nodes = (
"382 -10 OFFCURVE",
"455 12 OFFCURVE",
"507 52 CURVE",
"500 74 LINE",
"441 39 OFFCURVE",
"369 22 OFFCURVE",
"326 22 CURVE SMOOTH",
"189 22 OFFCURVE",
"136 105 OFFCURVE",
"136 227 CURVE SMOOTH",
"136 264 OFFCURVE",
"141 306 OFFCURVE",
"150 350 CURVE SMOOTH",
"188 537 OFFCURVE",
"289 678 OFFCURVE",
"465 678 CURVE SMOOTH",
"519 678 OFFCURVE",
"562 658 OFFCURVE",
"584 636 CURVE",
"581 613 OFFCURVE",
"578 579 OFFCURVE",
"578 553 CURVE SMOOTH",
"578 544 OFFCURVE",
"578 536 OFFCURVE",
"579 530 CURVE",
"597 530 LINE",
"628 644 LINE",
"594 684 OFFCURVE",
"537 710 OFFCURVE",
"453 710 CURVE SMOOTH",
"260 710 OFFCURVE",
"126 572 OFFCURVE",
"81 350 CURVE SMOOTH",
"72 307 OFFCURVE",
"68 267 OFFCURVE",
"68 231 CURVE SMOOTH",
"68 79 OFFCURVE",
"146 -10 OFFCURVE",
"306 -10 CURVE SMOOTH"
);
},
{
closed = 1;
nodes = (
"294 -210 OFFCURVE",
"347 -184 OFFCURVE",
"358 -129 CURVE SMOOTH",
"359 -125 OFFCURVE",
"359 -121 OFFCURVE",
"359 -117 CURVE SMOOTH",
"359 -83 OFFCURVE",
"328 -68 OFFCURVE",
"281 -68 CURVE SMOOTH",
"273 -68 LINE",
"320 6 LINE",
"284 6 LINE",
"232 -70 LINE",
"248 -96 LINE",
"254 -95 OFFCURVE",
"263 -94 OFFCURVE",
"272 -94 CURVE SMOOTH",
"296 -94 OFFCURVE",
"323 -103 OFFCURVE",
"318 -129 CURVE SMOOTH",
"310 -165 OFFCURVE",
"279 -180 OFFCURVE",
"239 -180 CURVE SMOOTH",
"221 -180 OFFCURVE",
"201 -177 OFFCURVE",
"185 -171 CURVE",
"166 -196 LINE",
"185 -205 OFFCURVE",
"211 -210 OFFCURVE",
"234 -210 CURVE SMOOTH"
);
}
);
width = 580;
}
);
leftKerningGroup = C;
note = Ccedilla;
unicode = 00C7;
},
{
glyphname = Ccircumflex;
lastChange = "2015-10-26 06:20:54 +0000";
layers = (
{
layerId = "C5AF2DAB-186C-4D06-AB99-4303FDDF1A44";
name = "Light Italic";
paths = (
{
closed = 1;
nodes = (
"382 -10 OFFCURVE",
"455 12 OFFCURVE",
"507 52 CURVE",
"500 74 LINE",
"441 39 OFFCURVE",
"369 22 OFFCURVE",
"326 22 CURVE SMOOTH",
"189 22 OFFCURVE",
"136 105 OFFCURVE",
"136 227 CURVE SMOOTH",
"136 264 OFFCURVE",
"141 306 OFFCURVE",
"150 350 CURVE SMOOTH",
"188 537 OFFCURVE",
"289 678 OFFCURVE",
"465 678 CURVE SMOOTH",
"519 678 OFFCURVE",
"562 658 OFFCURVE",
"584 636 CURVE",
"581 613 OFFCURVE",
"578 579 OFFCURVE",
"578 553 CURVE SMOOTH",
"578 544 OFFCURVE",
"578 536 OFFCURVE",
"579 530 CURVE",
"597 530 LINE",
"628 644 LINE",
"594 684 OFFCURVE",
"537 710 OFFCURVE",
"453 710 CURVE SMOOTH",
"260 710 OFFCURVE",
"126 572 OFFCURVE",
"81 350 CURVE SMOOTH",
"72 307 OFFCURVE",
"68 267 OFFCURVE",
"68 231 CURVE SMOOTH",
"68 79 OFFCURVE",
"146 -10 OFFCURVE",
"306 -10 CURVE SMOOTH"
);
},
{
closed = 1;
nodes = (
"408 806 OFFCURVE",
"458 846 OFFCURVE",
"492 881 CURVE",
"496 881 LINE",
"515 846 OFFCURVE",
"549 806 OFFCURVE",
"579 779 CURVE",
"612 806 LINE",
"581 833 OFFCURVE",
"540 880 OFFCURVE",
"518 922 CURVE",
"487 922 LINE",
"448 880 OFFCURVE",
"388 833 OFFCURVE",
"346 806 CURVE",
"367 779 LINE"
);
}
);
width = 580;
}
);
leftKerningGroup = C;
note = Ccircumflex;
unicode = 0108;
},
{
glyphname = Cdotaccent;
lastChange = "2015-10-26 06:20:55 +0000";
layers = (
{
layerId = "C5AF2DAB-186C-4D06-AB99-4303FDDF1A44";
name = "Light Italic";
paths = (
{
closed = 1;
nodes = (
"382 -10 OFFCURVE",
"455 12 OFFCURVE",
"507 52 CURVE",
"500 74 LINE",
"441 39 OFFCURVE",
"369 22 OFFCURVE",
"326 22 CURVE SMOOTH",
"189 22 OFFCURVE",
"136 105 OFFCURVE",
"136 227 CURVE SMOOTH",
"136 264 OFFCURVE",
"141 306 OFFCURVE",
"150 350 CURVE SMOOTH",
"188 537 OFFCURVE",
"289 678 OFFCURVE",
"465 678 CURVE SMOOTH",
"519 678 OFFCURVE",
"562 658 OFFCURVE",
"584 636 CURVE",
"581 613 OFFCURVE",
"578 579 OFFCURVE",
"578 553 CURVE SMOOTH",
"578 544 OFFCURVE",
"578 536 OFFCURVE",
"579 530 CURVE",
"597 530 LINE",
"628 644 LINE",
"594 684 OFFCURVE",
"537 710 OFFCURVE",
"453 710 CURVE SMOOTH",
"260 710 OFFCURVE",
"126 572 OFFCURVE",
"81 350 CURVE SMOOTH",
"72 307 OFFCURVE",
"68 267 OFFCURVE",
"68 231 CURVE SMOOTH",
"68 79 OFFCURVE",
"146 -10 OFFCURVE",
"306 -10 CURVE SMOOTH"
);
},
{
closed = 1;
nodes = (
"508 785 OFFCURVE",
"530 806 OFFCURVE",
"530 836 CURVE SMOOTH",
"530 854 OFFCURVE",
"519 866 OFFCURVE",
"500 866 CURVE SMOOTH",
"474 866 OFFCURVE",
"453 845 OFFCURVE",
"453 814 CURVE SMOOTH",
"453 796 OFFCURVE",
"464 785 OFFCURVE",
"483 785 CURVE SMOOTH"
);
}
);
width = 580;
}
);
leftKerningGroup = C;
note = Cdotaccent;
unicode = 010A;
},
{
glyphname = D;
lastChange = "2015-10-26 06:20:54 +0000";
layers = (
{
layerId = "C5AF2DAB-186C-4D06-AB99-4303FDDF1A44";
name = "Light Italic";
paths = (
{
closed = 1;
nodes = (
"280 0 LINE SMOOTH",
"474 0 OFFCURVE",
"577 127 OFFCURVE",
"623 350 CURVE SMOOTH",
"633 400 OFFCURVE",
"638 444 OFFCURVE",
"638 484 CURVE SMOOTH",
"638 623 OFFCURVE",
"574 700 OFFCURVE",
"423 700 CURVE SMOOTH",
"145 700 LINE",
"143 690 LINE",
"165 682 OFFCURVE",
"191 676 OFFCURVE",
"216 672 CURVE",
"84 27 LINE",
"51 24 OFFCURVE",
"26 17 OFFCURVE",
"5 10 CURVE",
"3 0 LINE"
);
},
{
closed = 1;
nodes = (
"283 668 LINE",
"416 668 LINE SMOOTH",
"528 668 OFFCURVE",
"570 600 OFFCURVE",
"570 490 CURVE SMOOTH",
"570 449 OFFCURVE",
"564 402 OFFCURVE",
"554 350 CURVE SMOOTH",
"515 159 OFFCURVE",
"441 31 OFFCURVE",
"284 31 CURVE SMOOTH",
"154 31 LINE"
);
}
);
width = 628;
}
);
note = D;
rightKerningGroup = D;
unicode = 0044;
},
{
glyphname = Eth;
lastChange = "2015-10-26 06:20:54 +0000";
layers = (
{
layerId = "C5AF2DAB-186C-4D06-AB99-4303FDDF1A44";
name = "Light Italic";
paths = (
{
closed = 1;
nodes = (
"280 0 LINE SMOOTH",
"474 0 OFFCURVE",
"577 127 OFFCURVE",
"623 350 CURVE SMOOTH",
"633 400 OFFCURVE",
"638 444 OFFCURVE",
"638 484 CURVE SMOOTH",
"638 623 OFFCURVE",
"574 700 OFFCURVE",
"423 700 CURVE SMOOTH",
"145 700 LINE",
"143 690 LINE",
"165 682 OFFCURVE",
"191 676 OFFCURVE",
"216 672 CURVE",
"84 27 LINE",
"51 24 OFFCURVE",
"26 17 OFFCURVE",
"5 10 CURVE",
"3 0 LINE"
);
},
{
closed = 1;
nodes = (
"381 317 LINE",
"387 348 LINE",
"78 348 LINE",
"72 317 LINE"
);
},
{
closed = 1;
nodes = (
"283 668 LINE",
"416 668 LINE SMOOTH",
"528 668 OFFCURVE",
"570 600 OFFCURVE",
"570 490 CURVE SMOOTH",
"570 449 OFFCURVE",
"564 402 OFFCURVE",
"554 350 CURVE SMOOTH",
"515 159 OFFCURVE",
"441 31 OFFCURVE",
"284 31 CURVE SMOOTH",
"154 31 LINE"
);
}
);
width = 628;
}
);
note = Eth;
rightKerningGroup = D;
unicode = 00D0;
},
{
glyphname = Dcaron;
lastChange = "2015-10-26 06:20:54 +0000";
layers = (
{
layerId = "C5AF2DAB-186C-4D06-AB99-4303FDDF1A44";
name = "Light Italic";
paths = (
{
closed = 1;
nodes = (
"280 0 LINE SMOOTH",
"474 0 OFFCURVE",
"577 127 OFFCURVE",
"623 350 CURVE SMOOTH",
"633 400 OFFCURVE",
"638 444 OFFCURVE",
"638 484 CURVE SMOOTH",
"638 623 OFFCURVE",
"574 700 OFFCURVE",
"423 700 CURVE SMOOTH",
"145 700 LINE",
"143 690 LINE",
"165 682 OFFCURVE",
"191 676 OFFCURVE",
"216 672 CURVE",
"84 27 LINE",
"51 24 OFFCURVE",
"26 17 OFFCURVE",
"5 10 CURVE",
"3 0 LINE"
);
},
{
closed = 1;
nodes = (
"283 668 LINE",
"416 668 LINE SMOOTH",
"528 668 OFFCURVE",
"570 600 OFFCURVE",
"570 490 CURVE SMOOTH",
"570 449 OFFCURVE",
"564 402 OFFCURVE",
"554 350 CURVE SMOOTH",
"515 159 OFFCURVE",
"441 31 OFFCURVE",
"284 31 CURVE SMOOTH",
"154 31 LINE"
);
},
{
closed = 1;
nodes = (
"453 786 LINE",
"492 829 OFFCURVE",
"552 876 OFFCURVE",
"595 903 CURVE",
"572 930 LINE",
"532 903 OFFCURVE",
"481 863 OFFCURVE",
"448 828 CURVE",
"444 828 LINE",
"424 863 OFFCURVE",
"391 903 OFFCURVE",
"360 930 CURVE",
"327 903 LINE",
"359 876 OFFCURVE",
"400 829 OFFCURVE",
"421 786 CURVE"
);
}
);
width = 628;
}
);
note = Dcaron;
rightKerningGroup = D;
unicode = 010E;
},
{
glyphname = Dcroat;
lastChange = "2015-10-26 06:20:54 +0000";
layers = (
{
layerId = "C5AF2DAB-186C-4D06-AB99-4303FDDF1A44";
name = "Light Italic";
paths = (
{
closed = 1;
nodes = (
"280 0 LINE SMOOTH",
"474 0 OFFCURVE",
"577 127 OFFCURVE",
"623 350 CURVE SMOOTH",
"633 400 OFFCURVE",
"638 444 OFFCURVE",
"638 484 CURVE SMOOTH",
"638 623 OFFCURVE",
"574 700 OFFCURVE",
"423 700 CURVE SMOOTH",
"145 700 LINE",
"143 690 LINE",
"165 682 OFFCURVE",
"191 676 OFFCURVE",
"216 672 CURVE",
"84 27 LINE",
"51 24 OFFCURVE",
"26 17 OFFCURVE",
"5 10 CURVE",
"3 0 LINE"
);
},
{
closed = 1;
nodes = (
"381 317 LINE",
"387 348 LINE",
"78 348 LINE",
"72 317 LINE"
);
},
{
closed = 1;
nodes = (
"283 668 LINE",
"416 668 LINE SMOOTH",
"528 668 OFFCURVE",
"570 600 OFFCURVE",
"570 490 CURVE SMOOTH",
"570 449 OFFCURVE",
"564 402 OFFCURVE",
"554 350 CURVE SMOOTH",
"515 159 OFFCURVE",
"441 31 OFFCURVE",
"284 31 CURVE SMOOTH",
"154 31 LINE"
);
}
);
width = 628;
}
);
note = Dcroat;
rightKerningGroup = D;
unicode = 0110;
},
{
glyphname = Ddotbelow;
lastChange = "2015-10-26 06:20:54 +0000";
layers = (
{
layerId = "C5AF2DAB-186C-4D06-AB99-4303FDDF1A44";
name = "Light Italic";
paths = (
{
closed = 1;
nodes = (
"280 0 LINE SMOOTH",
"474 0 OFFCURVE",
"577 127 OFFCURVE",
"623 350 CURVE SMOOTH",
"633 400 OFFCURVE",
"638 444 OFFCURVE",
"638 484 CURVE SMOOTH",
"638 623 OFFCURVE",
"574 700 OFFCURVE",
"423 700 CURVE SMOOTH",
"145 700 LINE",
"143 690 LINE",
"165 682 OFFCURVE",
"191 676 OFFCURVE",
"216 672 CURVE",
"84 27 LINE",
"51 24 OFFCURVE",
"26 17 OFFCURVE",
"5 10 CURVE",
"3 0 LINE"
);
},
{
closed = 1;
nodes = (
"260 -142 OFFCURVE",
"282 -121 OFFCURVE",
"282 -91 CURVE SMOOTH",
"282 -72 OFFCURVE",
"271 -61 OFFCURVE",
"252 -61 CURVE SMOOTH",
"227 -61 OFFCURVE",
"205 -81 OFFCURVE",
"205 -111 CURVE SMOOTH",
"205 -130 OFFCURVE",
"216 -142 OFFCURVE",
"235 -142 CURVE SMOOTH"
);
},
{
closed = 1;
nodes = (
"283 668 LINE",
"416 668 LINE SMOOTH",
"528 668 OFFCURVE",
"570 600 OFFCURVE",
"570 490 CURVE SMOOTH",
"570 449 OFFCURVE",
"564 402 OFFCURVE",
"554 350 CURVE SMOOTH",
"515 159 OFFCURVE",
"441 31 OFFCURVE",
"284 31 CURVE SMOOTH",
"154 31 LINE"
);
}
);
width = 628;
}
);
note = Ddotbelow;
rightKerningGroup = D;
unicode = 1E0C;
},
{
glyphname = Dlinebelow;
lastChange = "2015-10-26 06:20:54 +0000";
layers = (
{
layerId = "C5AF2DAB-186C-4D06-AB99-4303FDDF1A44";
name = "Light Italic";
paths = (
{
closed = 1;
nodes = (
"280 0 LINE SMOOTH",
"474 0 OFFCURVE",
"577 127 OFFCURVE",
"623 350 CURVE SMOOTH",
"633 400 OFFCURVE",
"638 444 OFFCURVE",
"638 484 CURVE SMOOTH",
"638 623 OFFCURVE",
"574 700 OFFCURVE",
"423 700 CURVE SMOOTH",
"145 700 LINE",
"143 690 LINE",
"165 682 OFFCURVE",
"191 676 OFFCURVE",
"216 672 CURVE",
"84 27 LINE",
"51 24 OFFCURVE",
"26 17 OFFCURVE",
"5 10 CURVE",
"3 0 LINE"
);
},
{
closed = 1;
nodes = (
"376 -102 LINE",
"382 -71 LINE",
"82 -71 LINE",
"76 -102 LINE"
);
},
{
closed = 1;
nodes = (
"283 668 LINE",
"416 668 LINE SMOOTH",
"528 668 OFFCURVE",
"570 600 OFFCURVE",
"570 490 CURVE SMOOTH",
"570 449 OFFCURVE",
"564 402 OFFCURVE",
"554 350 CURVE SMOOTH",
"515 159 OFFCURVE",
"441 31 OFFCURVE",
"284 31 CURVE SMOOTH",
"154 31 LINE"
);
}
);
width = 628;
}
);
note = Dlinebelow;
rightKerningGroup = D;
unicode = 1E0E;
},
{
glyphname = E;
lastChange = "2015-10-26 06:20:55 +0000";
layers = (
{
layerId = "C5AF2DAB-186C-4D06-AB99-4303FDDF1A44";
name = "Light Italic";
paths = (
{
closed = 1;
nodes = (
"474 0 LINE",
"514 134 LINE",
"496 134 LINE",
"482 115 OFFCURVE",
"451 58 OFFCURVE",
"444 31 CURVE",
"156 31 LINE",
"286 668 LINE",
"571 668 LINE",
"570 656 OFFCURVE",
"569 637 OFFCURVE",
"569 618 CURVE SMOOTH",
"569 596 OFFCURVE",
"570 575 OFFCURVE",
"573 565 CURVE",
"589 565 LINE",
"616 700 LINE",
"145 700 LINE",
"143 690 LINE",
"165 682 OFFCURVE",
"194 675 OFFCURVE",
"219 672 CURVE",
"87 27 LINE",
"54 24 OFFCURVE",
"26 17 OFFCURVE",
"5 10 CURVE",
"3 0 LINE"
);
},
{
closed = 1;
nodes = (
"443 252 LINE",
"483 447 LINE",
"470 447 LINE",
"457 424 OFFCURVE",
"442 383 OFFCURVE",
"436 365 CURVE",
"180 365 LINE",
"173 334 LINE",
"429 334 LINE",
"428 324 OFFCURVE",
"428 308 OFFCURVE",
"428 291 CURVE SMOOTH",
"428 277 OFFCURVE",
"428 263 OFFCURVE",
"430 252 CURVE"
);
}
);
width = 573;
}
);
note = E;
unicode = 0045;
},
{
glyphname = Eacute;
lastChange = "2015-10-26 06:20:55 +0000";
layers = (
{
layerId = "C5AF2DAB-186C-4D06-AB99-4303FDDF1A44";
name = "Light Italic";
paths = (
{
closed = 1;
nodes = (
"474 0 LINE",
"514 134 LINE",
"496 134 LINE",
"482 115 OFFCURVE",
"451 58 OFFCURVE",
"444 31 CURVE",
"156 31 LINE",
"286 668 LINE",
"571 668 LINE",
"570 656 OFFCURVE",
"569 637 OFFCURVE",
"569 618 CURVE SMOOTH",
"569 596 OFFCURVE",
"570 575 OFFCURVE",
"573 565 CURVE",
"589 565 LINE",
"616 700 LINE",
"145 700 LINE",
"143 690 LINE",
"165 682 OFFCURVE",
"194 675 OFFCURVE",
"219 672 CURVE",
"87 27 LINE",
"54 24 OFFCURVE",
"26 17 OFFCURVE",
"5 10 CURVE",
"3 0 LINE"
);
},
{
closed = 1;
nodes = (
"443 252 LINE",
"483 447 LINE",
"470 447 LINE",
"457 424 OFFCURVE",
"442 383 OFFCURVE",
"436 365 CURVE",
"180 365 LINE",
"173 334 LINE",
"429 334 LINE",
"428 324 OFFCURVE",
"428 308 OFFCURVE",
"428 291 CURVE SMOOTH",
"428 277 OFFCURVE",
"428 263 OFFCURVE",
"430 252 CURVE"
);
},
{
closed = 1;
nodes = (
"495 865 LINE SMOOTH",
"519 878 OFFCURVE",
"530 891 OFFCURVE",
"530 906 CURVE SMOOTH",
"530 916 OFFCURVE",
"523 924 OFFCURVE",
"510 924 CURVE SMOOTH",
"492 924 OFFCURVE",
"476 912 OFFCURVE",
"468 905 CURVE",
"341 805 LINE",
"349 786 LINE"
);
}
);
width = 573;
}
);
note = Eacute;
unicode = 00C9;
},
{
glyphname = Ebreve;
lastChange = "2015-10-26 06:20:55 +0000";
layers = (
{
layerId = "C5AF2DAB-186C-4D06-AB99-4303FDDF1A44";
name = "Light Italic";
paths = (
{
closed = 1;
nodes = (
"474 0 LINE",
"514 134 LINE",
"496 134 LINE",
"482 115 OFFCURVE",
"451 58 OFFCURVE",
"444 31 CURVE",
"156 31 LINE",
"286 668 LINE",
"571 668 LINE",
"570 656 OFFCURVE",
"569 637 OFFCURVE",
"569 618 CURVE SMOOTH",
"569 596 OFFCURVE",
"570 575 OFFCURVE",
"573 565 CURVE",
"589 565 LINE",
"616 700 LINE",
"145 700 LINE",
"143 690 LINE",
"165 682 OFFCURVE",
"194 675 OFFCURVE",
"219 672 CURVE",
"87 27 LINE",
"54 24 OFFCURVE",
"26 17 OFFCURVE",
"5 10 CURVE",
"3 0 LINE"
);
},
{
closed = 1;
nodes = (
"443 252 LINE",
"483 447 LINE",
"470 447 LINE",
"457 424 OFFCURVE",
"442 383 OFFCURVE",
"436 365 CURVE",
"180 365 LINE",
"173 334 LINE",
"429 334 LINE",
"428 324 OFFCURVE",
"428 308 OFFCURVE",
"428 291 CURVE SMOOTH",
"428 277 OFFCURVE",
"428 263 OFFCURVE",
"430 252 CURVE"
);
},
{
closed = 1;
nodes = (
"514 776 OFFCURVE",
"576 813 OFFCURVE",
"602 896 CURVE",
"558 896 LINE",
"534 819 OFFCURVE",
"482 808 OFFCURVE",
"443 808 CURVE SMOOTH",
"406 808 OFFCURVE",
"363 817 OFFCURVE",
"363 880 CURVE SMOOTH",
"363 885 OFFCURVE",
"363 890 OFFCURVE",
"364 896 CURVE",
"320 896 LINE",
"319 890 OFFCURVE",
"319 884 OFFCURVE",
"319 879 CURVE SMOOTH",
"319 808 OFFCURVE",
"366 776 OFFCURVE",
"437 776 CURVE SMOOTH"
);
}
);
width = 573;
}
);
note = Ebreve;
unicode = 0114;
},
{
glyphname = Ecaron;
lastChange = "2015-10-26 06:20:55 +0000";
layers = (
{
layerId = "C5AF2DAB-186C-4D06-AB99-4303FDDF1A44";
name = "Light Italic";
paths = (
{
closed = 1;
nodes = (
"474 0 LINE",
"514 134 LINE",
"496 134 LINE",
"482 115 OFFCURVE",
"451 58 OFFCURVE",
"444 31 CURVE",
"156 31 LINE",
"286 668 LINE",
"571 668 LINE",
"570 656 OFFCURVE",
"569 637 OFFCURVE",
"569 618 CURVE SMOOTH",
"569 596 OFFCURVE",
"570 575 OFFCURVE",
"573 565 CURVE",
"589 565 LINE",
"616 700 LINE",
"145 700 LINE",
"143 690 LINE",
"165 682 OFFCURVE",
"194 675 OFFCURVE",
"219 672 CURVE",
"87 27 LINE",
"54 24 OFFCURVE",
"26 17 OFFCURVE",
"5 10 CURVE",
"3 0 LINE"
);
},
{
closed = 1;
nodes = (
"443 252 LINE",
"483 447 LINE",
"470 447 LINE",
"457 424 OFFCURVE",
"442 383 OFFCURVE",
"436 365 CURVE",
"180 365 LINE",
"173 334 LINE",
"429 334 LINE",
"428 324 OFFCURVE",
"428 308 OFFCURVE",
"428 291 CURVE SMOOTH",
"428 277 OFFCURVE",
"428 263 OFFCURVE",
"430 252 CURVE"
);
},
{
closed = 1;
nodes = (
"452 786 LINE",
"491 829 OFFCURVE",
"551 876 OFFCURVE",
"594 903 CURVE",
"571 930 LINE",
"531 903 OFFCURVE",
"480 863 OFFCURVE",
"447 828 CURVE",
"443 828 LINE",
"423 863 OFFCURVE",
"390 903 OFFCURVE",
"359 930 CURVE",
"326 903 LINE",
"358 876 OFFCURVE",
"399 829 OFFCURVE",
"420 786 CURVE"
);
}
);
width = 573;
}
);
note = Ecaron;
unicode = 011A;
},
{
glyphname = Ecircumflex;
lastChange = "2015-10-26 06:20:54 +0000";
layers = (
{
layerId = "C5AF2DAB-186C-4D06-AB99-4303FDDF1A44";
name = "Light Italic";
paths = (
{
closed = 1;
nodes = (
"474 0 LINE",
"514 134 LINE",
"496 134 LINE",
"482 115 OFFCURVE",
"451 58 OFFCURVE",
"444 31 CURVE",
"156 31 LINE",
"286 668 LINE",
"571 668 LINE",
"570 656 OFFCURVE",
"569 637 OFFCURVE",
"569 618 CURVE SMOOTH",
"569 596 OFFCURVE",
"570 575 OFFCURVE",
"573 565 CURVE",
"589 565 LINE",
"616 700 LINE",
"145 700 LINE",
"143 690 LINE",
"165 682 OFFCURVE",
"194 675 OFFCURVE",
"219 672 CURVE",
"87 27 LINE",
"54 24 OFFCURVE",
"26 17 OFFCURVE",
"5 10 CURVE",
"3 0 LINE"
);
},
{
closed = 1;
nodes = (
"443 252 LINE",
"483 447 LINE",
"470 447 LINE",
"457 424 OFFCURVE",
"442 383 OFFCURVE",
"436 365 CURVE",
"180 365 LINE",
"173 334 LINE",
"429 334 LINE",
"428 324 OFFCURVE",
"428 308 OFFCURVE",
"428 291 CURVE SMOOTH",
"428 277 OFFCURVE",
"428 263 OFFCURVE",
"430 252 CURVE"
);
},
{
closed = 1;
nodes = (
"372 806 OFFCURVE",
"422 846 OFFCURVE",
"456 881 CURVE",
"461 881 LINE",
"479 846 OFFCURVE",
"514 806 OFFCURVE",
"543 779 CURVE",
"577 806 LINE",
"545 833 OFFCURVE",
"504 880 OFFCURVE",
"483 922 CURVE",
"451 922 LINE",
"413 880 OFFCURVE",
"352 833 OFFCURVE",
"310 806 CURVE",
"331 779 LINE"
);
}
);
width = 573;
}
);
note = Ecircumflex;
unicode = 00CA;
},
{
glyphname = Ecircumflexacute;
lastChange = "2015-10-26 06:20:55 +0000";
layers = (
{
layerId = "C5AF2DAB-186C-4D06-AB99-4303FDDF1A44";
name = "Light Italic";
paths = (
{
closed = 1;
nodes = (
"474 0 LINE",
"514 134 LINE",
"496 134 LINE",
"482 115 OFFCURVE",
"451 58 OFFCURVE",
"444 31 CURVE",
"156 31 LINE",
"286 668 LINE",
"571 668 LINE",
"570 656 OFFCURVE",
"569 637 OFFCURVE",
"569 618 CURVE SMOOTH",
"569 596 OFFCURVE",
"570 575 OFFCURVE",
"573 565 CURVE",
"589 565 LINE",
"616 700 LINE",
"145 700 LINE",
"143 690 LINE",
"165 682 OFFCURVE",
"194 675 OFFCURVE",
"219 672 CURVE",
"87 27 LINE",
"54 24 OFFCURVE",
"26 17 OFFCURVE",
"5 10 CURVE",
"3 0 LINE"
);
},
{
closed = 1;
nodes = (
"443 252 LINE",
"483 447 LINE",
"470 447 LINE",
"457 424 OFFCURVE",
"442 383 OFFCURVE",
"436 365 CURVE",
"180 365 LINE",
"173 334 LINE",
"429 334 LINE",
"428 324 OFFCURVE",
"428 308 OFFCURVE",
"428 291 CURVE SMOOTH",
"428 277 OFFCURVE",
"428 263 OFFCURVE",
"430 252 CURVE"
);
},
{
closed = 1;
nodes = (
"371 806 OFFCURVE",
"420 846 OFFCURVE",
"454 881 CURVE",
"459 881 LINE",
"478 846 OFFCURVE",
"512 806 OFFCURVE",
"541 779 CURVE",
"574 806 LINE",
"544 833 OFFCURVE",
"502 880 OFFCURVE",
"481 922 CURVE",
"449 922 LINE",
"411 880 OFFCURVE",
"350 833 OFFCURVE",
"307 806 CURVE",
"330 779 LINE"
);
},
{
closed = 1;
nodes = (
"684 955 LINE SMOOTH",
"710 968 OFFCURVE",
"725 985 OFFCURVE",
"728 998 CURVE",
"730 1010 OFFCURVE",
"723 1018 OFFCURVE",
"710 1018 CURVE SMOOTH",
"697 1018 OFFCURVE",
"679 1010 OFFCURVE",
"659 992 CURVE",
"558 910 LINE",
"565 893 LINE"
);
}
);
width = 573;
}
);
note = Ecircumflexacute;
unicode = 1EBE;
},
{
glyphname = Ecircumflexdotbelow;
lastChange = "2015-10-26 06:20:55 +0000";
layers = (
{
layerId = "C5AF2DAB-186C-4D06-AB99-4303FDDF1A44";
name = "Light Italic";
paths = (
{
closed = 1;
nodes = (
"474 0 LINE",
"514 134 LINE",
"496 134 LINE",
"482 115 OFFCURVE",
"451 58 OFFCURVE",
"444 31 CURVE",
"156 31 LINE",
"286 668 LINE",
"571 668 LINE",
"570 656 OFFCURVE",
"569 637 OFFCURVE",
"569 618 CURVE SMOOTH",
"569 596 OFFCURVE",
"570 575 OFFCURVE",
"573 565 CURVE",
"589 565 LINE",
"616 700 LINE",
"145 700 LINE",
"143 690 LINE",
"165 682 OFFCURVE",
"194 675 OFFCURVE",
"219 672 CURVE",
"87 27 LINE",
"54 24 OFFCURVE",
"26 17 OFFCURVE",
"5 10 CURVE",
"3 0 LINE"
);
},
{
closed = 1;
nodes = (
"275 -142 OFFCURVE",
"297 -122 OFFCURVE",
"297 -92 CURVE SMOOTH",
"297 -73 OFFCURVE",
"286 -61 OFFCURVE",
"267 -61 CURVE SMOOTH",
"242 -61 OFFCURVE",
"220 -82 OFFCURVE",
"220 -112 CURVE SMOOTH",
"220 -130 OFFCURVE",
"231 -142 OFFCURVE",
"250 -142 CURVE SMOOTH"
);
},
{
closed = 1;
nodes = (
"443 252 LINE",
"483 447 LINE",
"470 447 LINE",
"457 424 OFFCURVE",
"442 383 OFFCURVE",
"436 365 CURVE",
"180 365 LINE",
"173 334 LINE",
"429 334 LINE",
"428 324 OFFCURVE",
"428 308 OFFCURVE",
"428 291 CURVE SMOOTH",
"428 277 OFFCURVE",
"428 263 OFFCURVE",
"430 252 CURVE"
);
},
{
closed = 1;
nodes = (
"370 806 OFFCURVE",
"420 846 OFFCURVE",
"453 881 CURVE",
"458 881 LINE",
"476 846 OFFCURVE",
"511 806 OFFCURVE",
"540 779 CURVE",
"574 806 LINE",
"542 833 OFFCURVE",
"501 880 OFFCURVE",
"480 922 CURVE",
"448 922 LINE",
"410 880 OFFCURVE",
"349 833 OFFCURVE",
"307 806 CURVE",
"328 779 LINE"
);
}
);
width = 573;
}
);
note = Ecircumflexdotbelow;
unicode = 1EC6;
},
{
glyphname = Ecircumflexgrave;
lastChange = "2015-10-26 06:20:54 +0000";
layers = (
{
layerId = "C5AF2DAB-186C-4D06-AB99-4303FDDF1A44";
name = "Light Italic";
paths = (
{
closed = 1;
nodes = (
"474 0 LINE",
"514 134 LINE",
"496 134 LINE",
"482 115 OFFCURVE",
"451 58 OFFCURVE",
"444 31 CURVE",
"156 31 LINE",
"286 668 LINE",
"571 668 LINE",
"570 656 OFFCURVE",
"569 637 OFFCURVE",
"569 618 CURVE SMOOTH",
"569 596 OFFCURVE",
"570 575 OFFCURVE",
"573 565 CURVE",
"589 565 LINE",
"616 700 LINE",
"145 700 LINE",
"143 690 LINE",
"165 682 OFFCURVE",
"194 675 OFFCURVE",
"219 672 CURVE",
"87 27 LINE",
"54 24 OFFCURVE",
"26 17 OFFCURVE",
"5 10 CURVE",
"3 0 LINE"
);
},
{
closed = 1;
nodes = (
"443 252 LINE",
"483 447 LINE",
"470 447 LINE",
"457 424 OFFCURVE",
"442 383 OFFCURVE",
"436 365 CURVE",
"180 365 LINE",
"173 334 LINE",
"429 334 LINE",
"428 324 OFFCURVE",
"428 308 OFFCURVE",
"428 291 CURVE SMOOTH",
"428 277 OFFCURVE",
"428 263 OFFCURVE",
"430 252 CURVE"
);
},
{
closed = 1;
nodes = (
"376 910 LINE",
"321 977 LINE SMOOTH",
"303 998 OFFCURVE",
"284 1018 OFFCURVE",
"266 1018 CURVE SMOOTH",
"254 1018 OFFCURVE",
"244 1010 OFFCURVE",
"242 998 CURVE",
"238 980 OFFCURVE",
"259 960 OFFCURVE",
"284 943 CURVE SMOOTH",
"360 893 LINE"
);
},
{
closed = 1;
nodes = (
"371 806 OFFCURVE",
"420 846 OFFCURVE",
"454 881 CURVE",
"459 881 LINE",
"478 846 OFFCURVE",
"512 806 OFFCURVE",
"541 779 CURVE",
"574 806 LINE",
"544 833 OFFCURVE",
"502 880 OFFCURVE",
"481 922 CURVE",
"449 922 LINE",
"411 880 OFFCURVE",
"350 833 OFFCURVE",
"307 806 CURVE",
"330 779 LINE"
);
}
);
width = 573;
}
);
note = Ecircumflexgrave;
unicode = 1EC0;
},
{
glyphname = Ecircumflexhookabove;
lastChange = "2015-10-26 06:20:55 +0000";
layers = (
{
layerId = "C5AF2DAB-186C-4D06-AB99-4303FDDF1A44";
name = "Light Italic";
paths = (
{
closed = 1;
nodes = (
"474 0 LINE",
"514 134 LINE",
"496 134 LINE",
"482 115 OFFCURVE",
"451 58 OFFCURVE",
"444 31 CURVE",
"156 31 LINE",
"286 668 LINE",
"571 668 LINE",
"570 656 OFFCURVE",
"569 637 OFFCURVE",
"569 618 CURVE SMOOTH",
"569 596 OFFCURVE",
"570 575 OFFCURVE",
"573 565 CURVE",
"589 565 LINE",
"616 700 LINE",
"145 700 LINE",
"143 690 LINE",
"165 682 OFFCURVE",
"194 675 OFFCURVE",
"219 672 CURVE",
"87 27 LINE",
"54 24 OFFCURVE",
"26 17 OFFCURVE",
"5 10 CURVE",
"3 0 LINE"
);
},
{
closed = 1;
nodes = (
"443 252 LINE",
"483 447 LINE",
"470 447 LINE",
"457 424 OFFCURVE",
"442 383 OFFCURVE",
"436 365 CURVE",
"180 365 LINE",
"173 334 LINE",
"429 334 LINE",
"428 324 OFFCURVE",
"428 308 OFFCURVE",
"428 291 CURVE SMOOTH",
"428 277 OFFCURVE",
"428 263 OFFCURVE",
"430 252 CURVE"
);
},
{
closed = 1;
nodes = (
"371 806 OFFCURVE",
"420 846 OFFCURVE",
"454 881 CURVE",
"459 881 LINE",
"478 846 OFFCURVE",
"512 806 OFFCURVE",
"541 779 CURVE",
"574 806 LINE",
"544 833 OFFCURVE",
"502 880 OFFCURVE",
"481 922 CURVE",
"449 922 LINE",
"411 880 OFFCURVE",
"350 833 OFFCURVE",
"307 806 CURVE",
"330 779 LINE"
);
},
{
closed = 1;
nodes = (
"577 879 LINE",
"596 930 LINE",
"639 935 OFFCURVE",
"667 953 OFFCURVE",
"675 991 CURVE SMOOTH",
"676 996 OFFCURVE",
"676 1001 OFFCURVE",
"676 1005 CURVE SMOOTH",
"676 1039 OFFCURVE",
"647 1053 OFFCURVE",
"612 1053 CURVE SMOOTH",
"589 1053 OFFCURVE",
"567 1046 OFFCURVE",
"551 1039 CURVE",
"552 1016 LINE",
"569 1025 OFFCURVE",
"586 1028 OFFCURVE",
"599 1028 CURVE SMOOTH",
"626 1028 OFFCURVE",
"639 1017 OFFCURVE",
"639 1001 CURVE SMOOTH",
"639 972 OFFCURVE",
"617 950 OFFCURVE",
"577 950 CURVE SMOOTH",
"562 950 LINE",
"551 879 LINE"
);
}
);
width = 573;
}
);
note = Ecircumflexhookabove;
unicode = 1EC2;
},
{
glyphname = Ecircumflextilde;
lastChange = "2015-10-26 06:20:55 +0000";
layers = (
{
layerId = "C5AF2DAB-186C-4D06-AB99-4303FDDF1A44";
name = "Light Italic";
paths = (
{
closed = 1;
nodes = (
"474 0 LINE",
"514 134 LINE",
"496 134 LINE",
"482 115 OFFCURVE",
"451 58 OFFCURVE",
"444 31 CURVE",
"156 31 LINE",
"286 668 LINE",
"571 668 LINE",
"570 656 OFFCURVE",
"569 637 OFFCURVE",
"569 618 CURVE SMOOTH",
"569 596 OFFCURVE",
"570 575 OFFCURVE",
"573 565 CURVE",
"589 565 LINE",
"616 700 LINE",
"145 700 LINE",
"143 690 LINE",
"165 682 OFFCURVE",
"194 675 OFFCURVE",
"219 672 CURVE",
"87 27 LINE",
"54 24 OFFCURVE",
"26 17 OFFCURVE",
"5 10 CURVE",
"3 0 LINE"
);
},
{
closed = 1;
nodes = (
"443 252 LINE",
"483 447 LINE",
"470 447 LINE",
"457 424 OFFCURVE",
"442 383 OFFCURVE",
"436 365 CURVE",
"180 365 LINE",
"173 334 LINE",
"429 334 LINE",
"428 324 OFFCURVE",
"428 308 OFFCURVE",
"428 291 CURVE SMOOTH",
"428 277 OFFCURVE",
"428 263 OFFCURVE",
"430 252 CURVE"
);
},
{
closed = 1;
nodes = (
"371 806 OFFCURVE",
"420 846 OFFCURVE",
"454 881 CURVE",
"459 881 LINE",
"478 846 OFFCURVE",
"512 806 OFFCURVE",
"541 779 CURVE",
"574 806 LINE",
"544 833 OFFCURVE",
"502 880 OFFCURVE",
"481 922 CURVE",
"449 922 LINE",
"411 880 OFFCURVE",
"350 833 OFFCURVE",
"307 806 CURVE",
"330 779 LINE"
);
},
{
closed = 1;
nodes = (
"352 954 LINE",
"368 990 OFFCURVE",
"392 1013 OFFCURVE",
"419 1013 CURVE SMOOTH",
"454 1013 OFFCURVE",
"489 955 OFFCURVE",
"529 955 CURVE SMOOTH",
"574 955 OFFCURVE",
"607 994 OFFCURVE",
"627 1055 CURVE",
"605 1055 LINE",
"588 1013 OFFCURVE",
"565 993 OFFCURVE",
"539 993 CURVE SMOOTH",
"503 993 OFFCURVE",
"474 1049 OFFCURVE",
"428 1049 CURVE SMOOTH",
"388 1049 OFFCURVE",
"351 1020 OFFCURVE",
"330 954 CURVE"
);
}
);
width = 573;
}
);
note = Ecircumflextilde;
unicode = 1EC4;
},
{
glyphname = Edieresis;
lastChange = "2015-10-26 06:20:54 +0000";
layers = (
{
layerId = "C5AF2DAB-186C-4D06-AB99-4303FDDF1A44";
name = "Light Italic";
paths = (
{
closed = 1;
nodes = (
"474 0 LINE",
"514 134 LINE",
"496 134 LINE",
"482 115 OFFCURVE",
"451 58 OFFCURVE",
"444 31 CURVE",
"156 31 LINE",
"286 668 LINE",
"571 668 LINE",
"570 656 OFFCURVE",
"569 637 OFFCURVE",
"569 618 CURVE SMOOTH",
"569 596 OFFCURVE",
"570 575 OFFCURVE",
"573 565 CURVE",
"589 565 LINE",
"616 700 LINE",
"145 700 LINE",
"143 690 LINE",
"165 682 OFFCURVE",
"194 675 OFFCURVE",
"219 672 CURVE",
"87 27 LINE",
"54 24 OFFCURVE",
"26 17 OFFCURVE",
"5 10 CURVE",
"3 0 LINE"
);
},
{
closed = 1;
nodes = (
"443 252 LINE",
"483 447 LINE",
"470 447 LINE",
"457 424 OFFCURVE",
"442 383 OFFCURVE",
"436 365 CURVE",
"180 365 LINE",
"173 334 LINE",
"429 334 LINE",
"428 324 OFFCURVE",
"428 308 OFFCURVE",
"428 291 CURVE SMOOTH",
"428 277 OFFCURVE",
"428 263 OFFCURVE",
"430 252 CURVE"
);
},
{
closed = 1;
nodes = (
"360 785 OFFCURVE",
"382 806 OFFCURVE",
"382 836 CURVE SMOOTH",
"382 854 OFFCURVE",
"371 866 OFFCURVE",
"352 866 CURVE SMOOTH",
"327 866 OFFCURVE",
"306 845 OFFCURVE",
"306 815 CURVE SMOOTH",
"306 796 OFFCURVE",
"317 785 OFFCURVE",
"335 785 CURVE SMOOTH"
);
},
{
closed = 1;
nodes = (
"565 785 OFFCURVE",
"587 805 OFFCURVE",
"587 835 CURVE SMOOTH",
"587 854 OFFCURVE",
"576 866 OFFCURVE",
"557 866 CURVE SMOOTH",
"532 866 OFFCURVE",
"510 845 OFFCURVE",
"510 814 CURVE SMOOTH",
"510 796 OFFCURVE",
"521 785 OFFCURVE",
"540 785 CURVE SMOOTH"
);
}
);
width = 573;
}
);
note = Edieresis;
unicode = 00CB;
},
{
glyphname = Edotaccent;
lastChange = "2015-10-26 06:20:55 +0000";
layers = (
{
layerId = "C5AF2DAB-186C-4D06-AB99-4303FDDF1A44";
name = "Light Italic";
paths = (
{
closed = 1;
nodes = (
"474 0 LINE",
"514 134 LINE",
"496 134 LINE",
"482 115 OFFCURVE",
"451 58 OFFCURVE",
"444 31 CURVE",
"156 31 LINE",
"286 668 LINE",
"571 668 LINE",
"570 656 OFFCURVE",
"569 637 OFFCURVE",
"569 618 CURVE SMOOTH",
"569 596 OFFCURVE",
"570 575 OFFCURVE",
"573 565 CURVE",
"589 565 LINE",
"616 700 LINE",
"145 700 LINE",
"143 690 LINE",
"165 682 OFFCURVE",
"194 675 OFFCURVE",
"219 672 CURVE",
"87 27 LINE",
"54 24 OFFCURVE",
"26 17 OFFCURVE",
"5 10 CURVE",
"3 0 LINE"
);
},
{
closed = 1;
nodes = (
"443 252 LINE",
"483 447 LINE",
"470 447 LINE",
"457 424 OFFCURVE",
"442 383 OFFCURVE",
"436 365 CURVE",
"180 365 LINE",
"173 334 LINE",
"429 334 LINE",
"428 324 OFFCURVE",
"428 308 OFFCURVE",
"428 291 CURVE SMOOTH",
"428 277 OFFCURVE",
"428 263 OFFCURVE",
"430 252 CURVE"
);
},
{
closed = 1;
nodes = (
"468 785 OFFCURVE",
"490 805 OFFCURVE",
"490 835 CURVE SMOOTH",
"490 854 OFFCURVE",
"479 866 OFFCURVE",
"460 866 CURVE SMOOTH",
"434 866 OFFCURVE",
"413 845 OFFCURVE",
"413 814 CURVE SMOOTH",
"413 796 OFFCURVE",
"424 785 OFFCURVE",
"443 785 CURVE SMOOTH"
);
}
);
width = 573;
}
);
note = Edotaccent;
unicode = 0116;
},
{
glyphname = Edotbelow;
lastChange = "2015-10-26 06:20:55 +0000";
layers = (
{
layerId = "C5AF2DAB-186C-4D06-AB99-4303FDDF1A44";
name = "Light Italic";
paths = (
{
closed = 1;
nodes = (
"474 0 LINE",
"514 134 LINE",
"496 134 LINE",
"482 115 OFFCURVE",
"451 58 OFFCURVE",
"444 31 CURVE",
"156 31 LINE",
"286 668 LINE",
"571 668 LINE",
"570 656 OFFCURVE",
"569 637 OFFCURVE",
"569 618 CURVE SMOOTH",
"569 596 OFFCURVE",
"570 575 OFFCURVE",
"573 565 CURVE",
"589 565 LINE",
"616 700 LINE",
"145 700 LINE",
"143 690 LINE",
"165 682 OFFCURVE",
"194 675 OFFCURVE",
"219 672 CURVE",
"87 27 LINE",
"54 24 OFFCURVE",
"26 17 OFFCURVE",
"5 10 CURVE",
"3 0 LINE"
);
},
{
closed = 1;
nodes = (
"254 -142 OFFCURVE",
"276 -122 OFFCURVE",
"276 -92 CURVE SMOOTH",
"276 -73 OFFCURVE",
"265 -61 OFFCURVE",
"246 -61 CURVE SMOOTH",
"221 -61 OFFCURVE",
"199 -82 OFFCURVE",
"199 -113 CURVE SMOOTH",
"199 -131 OFFCURVE",
"210 -142 OFFCURVE",
"228 -142 CURVE SMOOTH"
);
},
{
closed = 1;
nodes = (
"443 252 LINE",
"483 447 LINE",
"470 447 LINE",
"457 424 OFFCURVE",
"442 383 OFFCURVE",
"436 365 CURVE",
"180 365 LINE",
"173 334 LINE",
"429 334 LINE",
"428 324 OFFCURVE",
"428 308 OFFCURVE",
"428 291 CURVE SMOOTH",
"428 277 OFFCURVE",
"428 263 OFFCURVE",
"430 252 CURVE"
);
}
);
width = 573;
}
);
note = Edotbelow;
unicode = 1EB8;
},
{
glyphname = Egrave;
lastChange = "2015-10-26 06:20:55 +0000";
layers = (
{
layerId = "C5AF2DAB-186C-4D06-AB99-4303FDDF1A44";
name = "Light Italic";
paths = (
{
closed = 1;
nodes = (
"474 0 LINE",
"514 134 LINE",
"496 134 LINE",
"482 115 OFFCURVE",
"451 58 OFFCURVE",
"444 31 CURVE",
"156 31 LINE",
"286 668 LINE",
"571 668 LINE",
"570 656 OFFCURVE",
"569 637 OFFCURVE",
"569 618 CURVE SMOOTH",
"569 596 OFFCURVE",
"570 575 OFFCURVE",
"573 565 CURVE",
"589 565 LINE",
"616 700 LINE",
"145 700 LINE",
"143 690 LINE",
"165 682 OFFCURVE",
"194 675 OFFCURVE",
"219 672 CURVE",
"87 27 LINE",
"54 24 OFFCURVE",
"26 17 OFFCURVE",
"5 10 CURVE",
"3 0 LINE"
);
},
{
closed = 1;
nodes = (
"443 252 LINE",
"483 447 LINE",
"470 447 LINE",
"457 424 OFFCURVE",
"442 383 OFFCURVE",
"436 365 CURVE",
"180 365 LINE",
"173 334 LINE",
"429 334 LINE",
"428 324 OFFCURVE",
"428 308 OFFCURVE",
"428 291 CURVE SMOOTH",
"428 277 OFFCURVE",
"428 263 OFFCURVE",
"430 252 CURVE"
);
},
{
closed = 1;
nodes = (
"527 805 LINE",
"439 905 LINE",
"433 914 OFFCURVE",
"422 924 OFFCURVE",
"406 924 CURVE SMOOTH",
"389 924 OFFCURVE",
"375 910 OFFCURVE",
"375 896 CURVE SMOOTH",
"375 885 OFFCURVE",
"383 874 OFFCURVE",
"396 865 CURVE",
"511 786 LINE"
);
}
);
width = 573;
}
);
note = Egrave;
unicode = 00C8;
},
{
glyphname = Ehookabove;
lastChange = "2015-10-26 06:20:54 +0000";
layers = (
{
layerId = "C5AF2DAB-186C-4D06-AB99-4303FDDF1A44";
name = "Light Italic";
paths = (
{
closed = 1;
nodes = (
"474 0 LINE",
"514 134 LINE",
"496 134 LINE",
"482 115 OFFCURVE",
"451 58 OFFCURVE",
"444 31 CURVE",
"156 31 LINE",
"286 668 LINE",
"571 668 LINE",
"570 656 OFFCURVE",
"569 637 OFFCURVE",
"569 618 CURVE SMOOTH",
"569 596 OFFCURVE",
"570 575 OFFCURVE",
"573 565 CURVE",
"589 565 LINE",
"616 700 LINE",
"145 700 LINE",
"143 690 LINE",
"165 682 OFFCURVE",
"194 675 OFFCURVE",
"219 672 CURVE",
"87 27 LINE",
"54 24 OFFCURVE",
"26 17 OFFCURVE",
"5 10 CURVE",
"3 0 LINE"
);
},
{
closed = 1;
nodes = (
"443 252 LINE",
"483 447 LINE",
"470 447 LINE",
"457 424 OFFCURVE",
"442 383 OFFCURVE",
"436 365 CURVE",
"180 365 LINE",
"173 334 LINE",
"429 334 LINE",
"428 324 OFFCURVE",
"428 308 OFFCURVE",
"428 291 CURVE SMOOTH",
"428 277 OFFCURVE",
"428 263 OFFCURVE",
"430 252 CURVE"
);
},
{
closed = 1;
nodes = (
"449 779 LINE",
"472 841 LINE",
"528 847 OFFCURVE",
"566 878 OFFCURVE",
"566 932 CURVE SMOOTH",
"566 971 OFFCURVE",
"532 989 OFFCURVE",
"492 989 CURVE SMOOTH",
"465 989 OFFCURVE",
"437 981 OFFCURVE",
"418 972 CURVE",
"419 945 LINE",
"441 956 OFFCURVE",
"462 961 OFFCURVE",
"477 961 CURVE SMOOTH",
"510 961 OFFCURVE",
"524 946 OFFCURVE",
"524 926 CURVE SMOOTH",
"524 923 OFFCURVE",
"524 919 OFFCURVE",
"523 916 CURVE SMOOTH",
"517 887 OFFCURVE",
"493 864 OFFCURVE",
"451 864 CURVE SMOOTH",
"432 864 LINE",
"420 779 LINE"
);
}
);
width = 573;
}
);
note = Ehookabove;
unicode = 1EBA;
},
{
glyphname = Emacron;
lastChange = "2015-10-26 06:20:55 +0000";
layers = (
{
layerId = "C5AF2DAB-186C-4D06-AB99-4303FDDF1A44";
name = "Light Italic";
paths = (
{
closed = 1;
nodes = (
"474 0 LINE",
"514 134 LINE",
"496 134 LINE",
"482 115 OFFCURVE",
"451 58 OFFCURVE",
"444 31 CURVE",
"156 31 LINE",
"286 668 LINE",
"571 668 LINE",
"570 656 OFFCURVE",
"569 637 OFFCURVE",
"569 618 CURVE SMOOTH",
"569 596 OFFCURVE",
"570 575 OFFCURVE",
"573 565 CURVE",
"589 565 LINE",
"616 700 LINE",
"145 700 LINE",
"143 690 LINE",
"165 682 OFFCURVE",
"194 675 OFFCURVE",
"219 672 CURVE",
"87 27 LINE",
"54 24 OFFCURVE",
"26 17 OFFCURVE",
"5 10 CURVE",
"3 0 LINE"
);
},
{
closed = 1;
nodes = (
"443 252 LINE",
"483 447 LINE",
"470 447 LINE",
"457 424 OFFCURVE",
"442 383 OFFCURVE",
"436 365 CURVE",
"180 365 LINE",
"173 334 LINE",
"429 334 LINE",
"428 324 OFFCURVE",
"428 308 OFFCURVE",
"428 291 CURVE SMOOTH",
"428 277 OFFCURVE",
"428 263 OFFCURVE",
"430 252 CURVE"
);
},
{
closed = 1;
nodes = (
"585 784 LINE",
"590 815 LINE",
"290 815 LINE",
"284 784 LINE"
);
}
);
width = 573;
}
);
note = Emacron;
unicode = 0112;
},
{
glyphname = Eogonek;
lastChange = "2015-10-26 06:20:55 +0000";
layers = (
{
layerId = "C5AF2DAB-186C-4D06-AB99-4303FDDF1A44";
name = "Light Italic";
paths = (
{
closed = 1;
nodes = (
"474 0 LINE",
"514 134 LINE",
"496 134 LINE",
"482 115 OFFCURVE",
"451 58 OFFCURVE",
"444 31 CURVE",
"156 31 LINE",
"286 668 LINE",
"571 668 LINE",
"570 656 OFFCURVE",
"569 637 OFFCURVE",
"569 618 CURVE SMOOTH",
"569 596 OFFCURVE",
"570 575 OFFCURVE",
"573 565 CURVE",
"589 565 LINE",
"616 700 LINE",
"145 700 LINE",
"143 690 LINE",
"165 682 OFFCURVE",
"194 675 OFFCURVE",
"219 672 CURVE",
"87 27 LINE",
"54 24 OFFCURVE",
"26 17 OFFCURVE",
"5 10 CURVE",
"3 0 LINE"
);
},
{
closed = 1;
nodes = (
"413 -181 OFFCURVE",
"435 -176 OFFCURVE",
"459 -166 CURVE",
"466 -133 LINE",
"448 -141 OFFCURVE",
"431 -144 OFFCURVE",
"417 -144 CURVE SMOOTH",
"388 -144 OFFCURVE",
"367 -133 OFFCURVE",
"367 -107 CURVE SMOOTH",
"367 -64 OFFCURVE",
"407 -22 OFFCURVE",
"450 0 CURVE",
"410 0 LINE",
"359 -20 OFFCURVE",
"323 -60 OFFCURVE",
"313 -104 CURVE SMOOTH",
"312 -109 OFFCURVE",
"311 -114 OFFCURVE",
"311 -119 CURVE SMOOTH",
"311 -152 OFFCURVE",
"334 -181 OFFCURVE",
"386 -181 CURVE SMOOTH"
);
},
{
closed = 1;
nodes = (
"443 252 LINE",
"483 447 LINE",
"470 447 LINE",
"457 424 OFFCURVE",
"442 383 OFFCURVE",
"436 365 CURVE",
"180 365 LINE",
"173 334 LINE",
"429 334 LINE",
"428 324 OFFCURVE",
"428 308 OFFCURVE",
"428 291 CURVE SMOOTH",
"428 277 OFFCURVE",
"428 263 OFFCURVE",
"430 252 CURVE"
);
}
);
width = 573;
}
);
note = Eogonek;
unicode = 0118;
},
{
glyphname = Etilde;
lastChange = "2015-10-26 06:20:54 +0000";
layers = (
{
layerId = "C5AF2DAB-186C-4D06-AB99-4303FDDF1A44";
name = "Light Italic";
paths = (
{
closed = 1;
nodes = (
"474 0 LINE",
"514 134 LINE",
"496 134 LINE",
"482 115 OFFCURVE",
"451 58 OFFCURVE",
"444 31 CURVE",
"156 31 LINE",
"286 668 LINE",
"571 668 LINE",
"570 656 OFFCURVE",
"569 637 OFFCURVE",
"569 618 CURVE SMOOTH",
"569 596 OFFCURVE",
"570 575 OFFCURVE",
"573 565 CURVE",
"589 565 LINE",
"616 700 LINE",
"145 700 LINE",
"143 690 LINE",
"165 682 OFFCURVE",
"194 675 OFFCURVE",
"219 672 CURVE",
"87 27 LINE",
"54 24 OFFCURVE",
"26 17 OFFCURVE",
"5 10 CURVE",
"3 0 LINE"
);
},
{
closed = 1;
nodes = (
"443 252 LINE",
"483 447 LINE",
"470 447 LINE",
"457 424 OFFCURVE",
"442 383 OFFCURVE",
"436 365 CURVE",
"180 365 LINE",
"173 334 LINE",
"429 334 LINE",
"428 324 OFFCURVE",
"428 308 OFFCURVE",
"428 291 CURVE SMOOTH",
"428 277 OFFCURVE",
"428 263 OFFCURVE",
"430 252 CURVE"
);
},
{
closed = 1;
nodes = (
"301 785 LINE",
"316 821 OFFCURVE",
"343 844 OFFCURVE",
"372 844 CURVE SMOOTH",
"412 844 OFFCURVE",
"451 786 OFFCURVE",
"496 786 CURVE SMOOTH",
"547 786 OFFCURVE",
"583 825 OFFCURVE",
"603 886 CURVE",
"580 886 LINE",
"562 844 OFFCURVE",
"536 824 OFFCURVE",
"506 824 CURVE SMOOTH",
"467 824 OFFCURVE",
"433 880 OFFCURVE",
"382 880 CURVE SMOOTH",
"337 880 OFFCURVE",
"299 851 OFFCURVE",
"276 785 CURVE"
);
}
);
width = 573;
}
);
note = Etilde;
unicode = 1EBC;
},
{
glyphname = F;
lastChange = "2015-10-26 06:20:55 +0000";
layers = (
{
layerId = "C5AF2DAB-186C-4D06-AB99-4303FDDF1A44";
name = "Light Italic";
paths = (
{
closed = 1;
nodes = (
"230 0 LINE",
"231 9 LINE",
"209 18 OFFCURVE",
"180 23 OFFCURVE",
"156 27 CURVE",
"286 668 LINE",
"566 668 LINE",
"565 656 OFFCURVE",
"564 638 OFFCURVE",
"564 619 CURVE SMOOTH",
"564 597 OFFCURVE",
"565 575 OFFCURVE",
"568 565 CURVE",
"585 565 LINE",
"612 700 LINE",
"145 700 LINE",
"143 690 LINE",
"165 682 OFFCURVE",
"194 676 OFFCURVE",
"219 672 CURVE",
"87 27 LINE",
"50 23 OFFCURVE",
"26 17 OFFCURVE",
"5 10 CURVE",
"3 0 LINE"
);
},
{
closed = 1;
nodes = (
"443 252 LINE",
"483 447 LINE",
"470 447 LINE",
"457 424 OFFCURVE",
"442 383 OFFCURVE",
"436 365 CURVE",
"180 365 LINE",
"173 334 LINE",
"429 334 LINE",
"428 324 OFFCURVE",
"428 308 OFFCURVE",
"428 291 CURVE SMOOTH",
"428 277 OFFCURVE",
"428 263 OFFCURVE",
"430 252 CURVE"
);
}
);
width = 534;
}
);
note = F;
unicode = 0046;
},
{
glyphname = G;
lastChange = "2015-10-26 06:20:55 +0000";
layers = (
{
layerId = "C5AF2DAB-186C-4D06-AB99-4303FDDF1A44";
name = "Light Italic";
paths = (
{
closed = 1;
nodes = (
"372 -10 OFFCURVE",
"465 10 OFFCURVE",
"521 50 CURVE",
"574 310 LINE",
"607 314 OFFCURVE",
"630 323 OFFCURVE",
"646 330 CURVE",
"648 339 LINE",
"439 339 LINE",
"436 329 LINE",
"458 322 OFFCURVE",
"484 316 OFFCURVE",
"510 311 CURVE",
"457 55 LINE",
"412 32 OFFCURVE",
"348 22 OFFCURVE",
"316 22 CURVE SMOOTH",
"178 22 OFFCURVE",
"124 106 OFFCURVE",
"124 229 CURVE SMOOTH",
"124 266 OFFCURVE",
"129 307 OFFCURVE",
"138 350 CURVE SMOOTH",
"177 537 OFFCURVE",
"285 678 OFFCURVE",
"462 678 CURVE SMOOTH",
"516 678 OFFCURVE",
"588 658 OFFCURVE",
"610 636 CURVE",
"607 613 OFFCURVE",
"604 580 OFFCURVE",
"604 554 CURVE SMOOTH",
"604 545 OFFCURVE",
"604 536 OFFCURVE",
"605 530 CURVE",
"623 530 LINE",
"654 644 LINE",
"620 684 OFFCURVE",
"533 710 OFFCURVE",
"449 710 CURVE SMOOTH",
"256 710 OFFCURVE",
"114 572 OFFCURVE",
"69 350 CURVE SMOOTH",
"60 307 OFFCURVE",
"56 268 OFFCURVE",
"56 232 CURVE SMOOTH",
"56 80 OFFCURVE",
"135 -10 OFFCURVE",
"296 -10 CURVE SMOOTH"
);
}
);
width = 628;
}
);
leftKerningGroup = G;
note = G;
unicode = 0047;
},
{
glyphname = Gbreve;
lastChange = "2015-10-26 06:20:54 +0000";
layers = (
{
layerId = "C5AF2DAB-186C-4D06-AB99-4303FDDF1A44";
name = "Light Italic";
paths = (
{
closed = 1;
nodes = (
"372 -10 OFFCURVE",
"465 10 OFFCURVE",
"521 50 CURVE",
"574 310 LINE",
"607 314 OFFCURVE",
"630 323 OFFCURVE",
"646 330 CURVE",
"648 339 LINE",
"439 339 LINE",
"436 329 LINE",
"458 322 OFFCURVE",
"484 316 OFFCURVE",
"510 311 CURVE",
"457 55 LINE",
"412 32 OFFCURVE",
"348 22 OFFCURVE",
"316 22 CURVE SMOOTH",
"178 22 OFFCURVE",
"124 106 OFFCURVE",
"124 229 CURVE SMOOTH",
"124 266 OFFCURVE",
"129 307 OFFCURVE",
"138 350 CURVE SMOOTH",
"177 537 OFFCURVE",
"285 678 OFFCURVE",
"462 678 CURVE SMOOTH",
"516 678 OFFCURVE",
"588 658 OFFCURVE",
"610 636 CURVE",
"607 613 OFFCURVE",
"604 580 OFFCURVE",
"604 554 CURVE SMOOTH",
"604 545 OFFCURVE",
"604 536 OFFCURVE",
"605 530 CURVE",
"623 530 LINE",
"654 644 LINE",
"620 684 OFFCURVE",
"533 710 OFFCURVE",
"449 710 CURVE SMOOTH",
"256 710 OFFCURVE",
"114 572 OFFCURVE",
"69 350 CURVE SMOOTH",
"60 307 OFFCURVE",
"56 268 OFFCURVE",
"56 232 CURVE SMOOTH",
"56 80 OFFCURVE",
"135 -10 OFFCURVE",
"296 -10 CURVE SMOOTH"
);
},
{
closed = 1;
nodes = (
"540 776 OFFCURVE",
"602 813 OFFCURVE",
"628 896 CURVE",
"584 896 LINE",
"560 819 OFFCURVE",
"508 808 OFFCURVE",
"468 808 CURVE SMOOTH",
"432 808 OFFCURVE",
"389 817 OFFCURVE",
"389 880 CURVE SMOOTH",
"389 885 OFFCURVE",
"389 890 OFFCURVE",
"390 896 CURVE",
"346 896 LINE",
"345 890 OFFCURVE",
"345 884 OFFCURVE",
"345 879 CURVE SMOOTH",
"345 808 OFFCURVE",
"392 776 OFFCURVE",
"463 776 CURVE SMOOTH"
);
}
);
width = 628;
}
);
leftKerningGroup = G;
note = Gbreve;
unicode = 011E;
},
{
glyphname = Gcaron;
lastChange = "2015-10-26 06:20:54 +0000";
layers = (
{
layerId = "C5AF2DAB-186C-4D06-AB99-4303FDDF1A44";
name = "Light Italic";
paths = (
{
closed = 1;
nodes = (
"372 -10 OFFCURVE",
"465 10 OFFCURVE",
"521 50 CURVE",
"574 310 LINE",
"607 314 OFFCURVE",
"630 323 OFFCURVE",
"646 330 CURVE",
"648 339 LINE",
"439 339 LINE",
"436 329 LINE",
"458 322 OFFCURVE",
"484 316 OFFCURVE",
"510 311 CURVE",
"457 55 LINE",
"412 32 OFFCURVE",
"348 22 OFFCURVE",
"316 22 CURVE SMOOTH",
"178 22 OFFCURVE",
"124 106 OFFCURVE",
"124 229 CURVE SMOOTH",
"124 266 OFFCURVE",
"129 307 OFFCURVE",
"138 350 CURVE SMOOTH",
"177 537 OFFCURVE",
"285 678 OFFCURVE",
"462 678 CURVE SMOOTH",
"516 678 OFFCURVE",
"588 658 OFFCURVE",
"610 636 CURVE",
"607 613 OFFCURVE",
"604 580 OFFCURVE",
"604 554 CURVE SMOOTH",
"604 545 OFFCURVE",
"604 536 OFFCURVE",
"605 530 CURVE",
"623 530 LINE",
"654 644 LINE",
"620 684 OFFCURVE",
"533 710 OFFCURVE",
"449 710 CURVE SMOOTH",
"256 710 OFFCURVE",
"114 572 OFFCURVE",
"69 350 CURVE SMOOTH",
"60 307 OFFCURVE",
"56 268 OFFCURVE",
"56 232 CURVE SMOOTH",
"56 80 OFFCURVE",
"135 -10 OFFCURVE",
"296 -10 CURVE SMOOTH"
);
},
{
closed = 1;
nodes = (
"484 800 LINE",
"522 843 OFFCURVE",
"583 890 OFFCURVE",
"626 917 CURVE",
"603 944 LINE",
"563 917 OFFCURVE",
"512 877 OFFCURVE",
"479 842 CURVE",
"474 842 LINE",
"455 877 OFFCURVE",
"421 917 OFFCURVE",
"391 944 CURVE",
"358 917 LINE",
"390 890 OFFCURVE",
"431 843 OFFCURVE",
"452 800 CURVE"
);
}
);
width = 628;
}
);
leftKerningGroup = G;
note = Gcaron;
unicode = 01E6;
},
{
glyphname = Gcircumflex;
lastChange = "2015-10-26 06:20:55 +0000";
layers = (
{
layerId = "C5AF2DAB-186C-4D06-AB99-4303FDDF1A44";
name = "Light Italic";
paths = (
{
closed = 1;
nodes = (
"372 -10 OFFCURVE",
"465 10 OFFCURVE",
"521 50 CURVE",
"574 310 LINE",
"607 314 OFFCURVE",
"630 323 OFFCURVE",
"646 330 CURVE",
"648 339 LINE",
"439 339 LINE",
"436 329 LINE",
"458 322 OFFCURVE",
"484 316 OFFCURVE",
"510 311 CURVE",
"457 55 LINE",
"412 32 OFFCURVE",
"348 22 OFFCURVE",
"316 22 CURVE SMOOTH",
"178 22 OFFCURVE",
"124 106 OFFCURVE",
"124 229 CURVE SMOOTH",
"124 266 OFFCURVE",
"129 307 OFFCURVE",
"138 350 CURVE SMOOTH",
"177 537 OFFCURVE",
"285 678 OFFCURVE",
"462 678 CURVE SMOOTH",
"516 678 OFFCURVE",
"588 658 OFFCURVE",
"610 636 CURVE",
"607 613 OFFCURVE",
"604 580 OFFCURVE",
"604 554 CURVE SMOOTH",
"604 545 OFFCURVE",
"604 536 OFFCURVE",
"605 530 CURVE",
"623 530 LINE",
"654 644 LINE",
"620 684 OFFCURVE",
"533 710 OFFCURVE",
"449 710 CURVE SMOOTH",
"256 710 OFFCURVE",
"114 572 OFFCURVE",
"69 350 CURVE SMOOTH",
"60 307 OFFCURVE",
"56 268 OFFCURVE",
"56 232 CURVE SMOOTH",
"56 80 OFFCURVE",
"135 -10 OFFCURVE",
"296 -10 CURVE SMOOTH"
);
},
{
closed = 1;
nodes = (
"412 806 OFFCURVE",
"462 846 OFFCURVE",
"495 881 CURVE",
"500 881 LINE",
"518 846 OFFCURVE",
"553 806 OFFCURVE",
"583 779 CURVE",
"616 806 LINE",
"585 833 OFFCURVE",
"543 880 OFFCURVE",
"522 922 CURVE",
"491 922 LINE",
"452 880 OFFCURVE",
"392 833 OFFCURVE",
"349 806 CURVE",
"371 779 LINE"
);
}
);
width = 628;
}
);
leftKerningGroup = G;
note = Gcircumflex;
unicode = 011C;
},
{
glyphname = Gcommaaccent;
lastChange = "2015-10-26 06:20:55 +0000";
layers = (
{
layerId = "C5AF2DAB-186C-4D06-AB99-4303FDDF1A44";
name = "Light Italic";
paths = (
{
closed = 1;
nodes = (
"372 -10 OFFCURVE",
"465 10 OFFCURVE",
"521 50 CURVE",
"574 310 LINE",
"607 314 OFFCURVE",
"630 323 OFFCURVE",
"646 330 CURVE",
"648 339 LINE",
"439 339 LINE",
"436 329 LINE",
"458 322 OFFCURVE",
"484 316 OFFCURVE",
"510 311 CURVE",
"457 55 LINE",
"412 32 OFFCURVE",
"348 22 OFFCURVE",
"316 22 CURVE SMOOTH",
"178 22 OFFCURVE",
"124 106 OFFCURVE",
"124 229 CURVE SMOOTH",
"124 266 OFFCURVE",
"129 307 OFFCURVE",
"138 350 CURVE SMOOTH",
"177 537 OFFCURVE",
"285 678 OFFCURVE",
"462 678 CURVE SMOOTH",
"516 678 OFFCURVE",
"588 658 OFFCURVE",
"610 636 CURVE",
"607 613 OFFCURVE",
"604 580 OFFCURVE",
"604 554 CURVE SMOOTH",
"604 545 OFFCURVE",
"604 536 OFFCURVE",
"605 530 CURVE",
"623 530 LINE",
"654 644 LINE",
"620 684 OFFCURVE",
"533 710 OFFCURVE",
"449 710 CURVE SMOOTH",
"256 710 OFFCURVE",
"114 572 OFFCURVE",
"69 350 CURVE SMOOTH",
"60 307 OFFCURVE",
"56 268 OFFCURVE",
"56 232 CURVE SMOOTH",
"56 80 OFFCURVE",
"135 -10 OFFCURVE",
"296 -10 CURVE SMOOTH"
);
},
{
closed = 1;
nodes = (
"285 -239 OFFCURVE",
"329 -154 OFFCURVE",
"329 -107 CURVE SMOOTH",
"329 -82 OFFCURVE",
"317 -65 OFFCURVE",
"287 -65 CURVE SMOOTH",
"261 -65 OFFCURVE",
"233 -82 OFFCURVE",
"233 -119 CURVE SMOOTH",
"233 -138 OFFCURVE",
"246 -151 OFFCURVE",
"266 -151 CURVE SMOOTH",
"270 -151 OFFCURVE",
"275 -150 OFFCURVE",
"278 -149 CURVE",
"267 -189 OFFCURVE",
"244 -230 OFFCURVE",
"214 -259 CURVE",
"235 -280 LINE"
);
}
);
width = 628;
}
);
leftKerningGroup = G;
note = Gcommaaccent;
unicode = 0122;
},
{
glyphname = Gdotaccent;
lastChange = "2015-10-26 06:20:54 +0000";
layers = (
{
layerId = "C5AF2DAB-186C-4D06-AB99-4303FDDF1A44";
name = "Light Italic";
paths = (
{
closed = 1;
nodes = (
"372 -10 OFFCURVE",
"465 10 OFFCURVE",
"521 50 CURVE",
"574 310 LINE",
"607 314 OFFCURVE",
"630 323 OFFCURVE",
"646 330 CURVE",
"648 339 LINE",
"439 339 LINE",
"436 329 LINE",
"458 322 OFFCURVE",
"484 316 OFFCURVE",
"510 311 CURVE",
"457 55 LINE",
"412 32 OFFCURVE",
"348 22 OFFCURVE",
"316 22 CURVE SMOOTH",
"178 22 OFFCURVE",
"124 106 OFFCURVE",
"124 229 CURVE SMOOTH",
"124 266 OFFCURVE",
"129 307 OFFCURVE",
"138 350 CURVE SMOOTH",
"177 537 OFFCURVE",
"285 678 OFFCURVE",
"462 678 CURVE SMOOTH",
"516 678 OFFCURVE",
"588 658 OFFCURVE",
"610 636 CURVE",
"607 613 OFFCURVE",
"604 580 OFFCURVE",
"604 554 CURVE SMOOTH",
"604 545 OFFCURVE",
"604 536 OFFCURVE",
"605 530 CURVE",
"623 530 LINE",
"654 644 LINE",
"620 684 OFFCURVE",
"533 710 OFFCURVE",
"449 710 CURVE SMOOTH",
"256 710 OFFCURVE",
"114 572 OFFCURVE",
"69 350 CURVE SMOOTH",
"60 307 OFFCURVE",
"56 268 OFFCURVE",
"56 232 CURVE SMOOTH",
"56 80 OFFCURVE",
"135 -10 OFFCURVE",
"296 -10 CURVE SMOOTH"
);
},
{
closed = 1;
nodes = (
"497 785 OFFCURVE",
"519 806 OFFCURVE",
"519 836 CURVE SMOOTH",
"519 855 OFFCURVE",
"508 866 OFFCURVE",
"490 866 CURVE SMOOTH",
"464 866 OFFCURVE",
"443 845 OFFCURVE",
"443 814 CURVE SMOOTH",
"443 796 OFFCURVE",
"453 785 OFFCURVE",
"472 785 CURVE SMOOTH"
);
}
);
width = 628;
}
);
leftKerningGroup = G;
note = Gdotaccent;
unicode = 0120;
},
{
glyphname = Gmacron;
lastChange = "2015-10-26 06:20:55 +0000";
layers = (
{
layerId = "C5AF2DAB-186C-4D06-AB99-4303FDDF1A44";
name = "Light Italic";
paths = (
{
closed = 1;
nodes = (
"372 -10 OFFCURVE",
"465 10 OFFCURVE",
"521 50 CURVE",
"574 310 LINE",
"607 314 OFFCURVE",
"630 323 OFFCURVE",
"646 330 CURVE",
"648 339 LINE",
"439 339 LINE",
"436 329 LINE",
"458 322 OFFCURVE",
"484 316 OFFCURVE",
"510 311 CURVE",
"457 55 LINE",
"412 32 OFFCURVE",
"348 22 OFFCURVE",
"316 22 CURVE SMOOTH",
"178 22 OFFCURVE",
"124 106 OFFCURVE",
"124 229 CURVE SMOOTH",
"124 266 OFFCURVE",
"129 307 OFFCURVE",
"138 350 CURVE SMOOTH",
"177 537 OFFCURVE",
"285 678 OFFCURVE",
"462 678 CURVE SMOOTH",
"516 678 OFFCURVE",
"588 658 OFFCURVE",
"610 636 CURVE",
"607 613 OFFCURVE",
"604 580 OFFCURVE",
"604 554 CURVE SMOOTH",
"604 545 OFFCURVE",
"604 536 OFFCURVE",
"605 530 CURVE",
"623 530 LINE",
"654 644 LINE",
"620 684 OFFCURVE",
"533 710 OFFCURVE",
"449 710 CURVE SMOOTH",
"256 710 OFFCURVE",
"114 572 OFFCURVE",
"69 350 CURVE SMOOTH",
"60 307 OFFCURVE",
"56 268 OFFCURVE",
"56 232 CURVE SMOOTH",
"56 80 OFFCURVE",
"135 -10 OFFCURVE",
"296 -10 CURVE SMOOTH"
);
},
{
closed = 1;
nodes = (
"614 784 LINE",
"620 815 LINE",
"320 815 LINE",
"314 784 LINE"
);
}
);
width = 628;
}
);
leftKerningGroup = G;
note = Gmacron;
unicode = 1E20;
},
{
glyphname = H;
lastChange = "2015-10-26 06:20:55 +0000";
layers = (
{
layerId = "C5AF2DAB-186C-4D06-AB99-4303FDDF1A44";
name = "Light Italic";
paths = (
{
closed = 1;
nodes = (
"668 0 LINE",
"669 9 LINE",
"647 18 OFFCURVE",
"620 23 OFFCURVE",
"595 27 CURVE",
"727 672 LINE",
"761 675 OFFCURVE",
"786 682 OFFCURVE",
"808 689 CURVE",
"810 700 LINE",
"589 700 LINE",
"588 690 LINE",
"610 682 OFFCURVE",
"635 676 OFFCURVE",
"659 672 CURVE",
"527 27 LINE",
"495 24 OFFCURVE",
"480 20 OFFCURVE",
"448 9 CURVE",
"447 0 LINE"
);
},
{
closed = 1;
nodes = (
"224 0 LINE",
"225 9 LINE",
"203 17 OFFCURVE",
"178 23 OFFCURVE",
"153 27 CURVE",
"284 672 LINE",
"318 676 OFFCURVE",
"333 679 OFFCURVE",
"364 690 CURVE",
"366 700 LINE",
"145 700 LINE",
"143 690 LINE",
"165 682 OFFCURVE",
"191 676 OFFCURVE",
"216 672 CURVE",
"84 27 LINE",
"51 24 OFFCURVE",
"26 17 OFFCURVE",
"5 10 CURVE",
"3 0 LINE"
);
},
{
closed = 1;
nodes = (
"625 340 LINE",
"631 371 LINE",
"191 371 LINE",
"185 340 LINE"
);
}
);
width = 748;
}
);
note = H;
unicode = 0048;
},
{
glyphname = Hbar;
lastChange = "2015-10-26 06:20:55 +0000";
layers = (
{
layerId = "C5AF2DAB-186C-4D06-AB99-4303FDDF1A44";
name = "Light Italic";
paths = (
{
closed = 1;
nodes = (
"668 0 LINE",
"669 9 LINE",
"647 18 OFFCURVE",
"620 23 OFFCURVE",
"595 27 CURVE",
"727 672 LINE",
"761 675 OFFCURVE",
"786 682 OFFCURVE",
"808 689 CURVE",
"810 700 LINE",
"589 700 LINE",
"588 690 LINE",
"610 682 OFFCURVE",
"635 676 OFFCURVE",
"659 672 CURVE",
"527 27 LINE",
"495 24 OFFCURVE",
"480 20 OFFCURVE",
"448 9 CURVE",
"447 0 LINE"
);
},
{
closed = 1;
nodes = (
"224 0 LINE",
"225 9 LINE",
"203 17 OFFCURVE",
"178 23 OFFCURVE",
"153 27 CURVE",
"284 672 LINE",
"318 676 OFFCURVE",
"333 679 OFFCURVE",
"364 690 CURVE",
"366 700 LINE",
"145 700 LINE",
"143 690 LINE",
"165 682 OFFCURVE",
"191 676 OFFCURVE",
"216 672 CURVE",
"84 27 LINE",
"51 24 OFFCURVE",
"26 17 OFFCURVE",
"5 10 CURVE",
"3 0 LINE"
);
},
{
closed = 1;
nodes = (
"625 340 LINE",
"631 371 LINE",
"191 371 LINE",
"185 340 LINE"
);
},
{
closed = 1;
nodes = (
"752 508 LINE",
"758 539 LINE",
"132 539 LINE",
"125 508 LINE"
);
}
);
width = 748;
}
);
note = Hbar;
unicode = 0126;
},
{
glyphname = Hbrevebelow;
lastChange = "2015-10-26 06:20:55 +0000";
layers = (
{
layerId = "C5AF2DAB-186C-4D06-AB99-4303FDDF1A44";
name = "Light Italic";
paths = (
{
closed = 1;
nodes = (
"668 0 LINE",
"669 9 LINE",
"647 18 OFFCURVE",
"620 23 OFFCURVE",
"595 27 CURVE",
"727 672 LINE",
"761 675 OFFCURVE",
"786 682 OFFCURVE",
"808 689 CURVE",
"810 700 LINE",
"589 700 LINE",
"588 690 LINE",
"610 682 OFFCURVE",
"635 676 OFFCURVE",
"659 672 CURVE",
"527 27 LINE",
"495 24 OFFCURVE",
"480 20 OFFCURVE",
"448 9 CURVE",
"447 0 LINE"
);
},
{
closed = 1;
nodes = (
"376 -170 OFFCURVE",
"440 -133 OFFCURVE",
"466 -50 CURVE",
"421 -50 LINE",
"397 -127 OFFCURVE",
"346 -139 OFFCURVE",
"307 -139 CURVE SMOOTH",
"271 -139 OFFCURVE",
"227 -129 OFFCURVE",
"227 -65 CURVE SMOOTH",
"227 -60 OFFCURVE",
"228 -55 OFFCURVE",
"228 -50 CURVE",
"184 -50 LINE",
"183 -56 OFFCURVE",
"183 -62 OFFCURVE",
"183 -67 CURVE SMOOTH",
"183 -138 OFFCURVE",
"230 -170 OFFCURVE",
"300 -170 CURVE SMOOTH"
);
},
{
closed = 1;
nodes = (
"224 0 LINE",
"225 9 LINE",
"203 17 OFFCURVE",
"178 23 OFFCURVE",
"153 27 CURVE",
"284 672 LINE",
"318 676 OFFCURVE",
"333 679 OFFCURVE",
"364 690 CURVE",
"366 700 LINE",
"145 700 LINE",
"143 690 LINE",
"165 682 OFFCURVE",
"191 676 OFFCURVE",
"216 672 CURVE",
"84 27 LINE",
"51 24 OFFCURVE",
"26 17 OFFCURVE",
"5 10 CURVE",
"3 0 LINE"
);
},
{
closed = 1;
nodes = (
"625 340 LINE",
"631 371 LINE",
"191 371 LINE",
"185 340 LINE"
);
}
);
width = 748;
}
);
note = Hbrevebelow;
unicode = 1E2A;
},
{
glyphname = Hcircumflex;
lastChange = "2015-10-26 06:20:55 +0000";
layers = (
{
layerId = "C5AF2DAB-186C-4D06-AB99-4303FDDF1A44";
name = "Light Italic";
paths = (
{
closed = 1;
nodes = (
"668 0 LINE",
"669 9 LINE",
"647 18 OFFCURVE",
"620 23 OFFCURVE",
"595 27 CURVE",
"727 672 LINE",
"761 675 OFFCURVE",
"786 682 OFFCURVE",
"808 689 CURVE",
"810 700 LINE",
"589 700 LINE",
"588 690 LINE",
"610 682 OFFCURVE",
"635 676 OFFCURVE",
"659 672 CURVE",
"527 27 LINE",
"495 24 OFFCURVE",
"480 20 OFFCURVE",
"448 9 CURVE",
"447 0 LINE"
);
},
{
closed = 1;
nodes = (
"224 0 LINE",
"225 9 LINE",
"203 17 OFFCURVE",
"178 23 OFFCURVE",
"153 27 CURVE",
"284 672 LINE",
"318 676 OFFCURVE",
"333 679 OFFCURVE",
"364 690 CURVE",
"366 700 LINE",
"145 700 LINE",
"143 690 LINE",
"165 682 OFFCURVE",
"191 676 OFFCURVE",
"216 672 CURVE",
"84 27 LINE",
"51 24 OFFCURVE",
"26 17 OFFCURVE",
"5 10 CURVE",
"3 0 LINE"
);
},
{
closed = 1;
nodes = (
"625 340 LINE",
"631 371 LINE",
"191 371 LINE",
"185 340 LINE"
);
},
{
closed = 1;
nodes = (
"428 806 OFFCURVE",
"478 846 OFFCURVE",
"512 881 CURVE",
"516 881 LINE",
"535 846 OFFCURVE",
"569 806 OFFCURVE",
"599 779 CURVE",
"633 806 LINE",
"601 833 OFFCURVE",
"560 880 OFFCURVE",
"539 922 CURVE",
"507 922 LINE",
"468 880 OFFCURVE",
"408 833 OFFCURVE",
"366 806 CURVE",
"387 779 LINE"
);
}
);
width = 748;
}
);
note = Hcircumflex;
unicode = 0124;
},
{
glyphname = Hdotbelow;
lastChange = "2015-10-26 06:20:54 +0000";
layers = (
{
layerId = "C5AF2DAB-186C-4D06-AB99-4303FDDF1A44";
name = "Light Italic";
paths = (
{
closed = 1;
nodes = (
"668 0 LINE",
"669 9 LINE",
"647 18 OFFCURVE",
"620 23 OFFCURVE",
"595 27 CURVE",
"727 672 LINE",
"761 675 OFFCURVE",
"786 682 OFFCURVE",
"808 689 CURVE",
"810 700 LINE",
"589 700 LINE",
"588 690 LINE",
"610 682 OFFCURVE",
"635 676 OFFCURVE",
"659 672 CURVE",
"527 27 LINE",
"495 24 OFFCURVE",
"480 20 OFFCURVE",
"448 9 CURVE",
"447 0 LINE"
);
},
{
closed = 1;
nodes = (
"327 -142 OFFCURVE",
"349 -121 OFFCURVE",
"349 -91 CURVE SMOOTH",
"349 -72 OFFCURVE",
"338 -61 OFFCURVE",
"320 -61 CURVE SMOOTH",
"295 -61 OFFCURVE",
"273 -82 OFFCURVE",
"273 -113 CURVE SMOOTH",
"273 -131 OFFCURVE",
"284 -142 OFFCURVE",
"302 -142 CURVE SMOOTH"
);
},
{
closed = 1;
nodes = (
"224 0 LINE",
"225 9 LINE",
"203 17 OFFCURVE",
"178 23 OFFCURVE",
"153 27 CURVE",
"284 672 LINE",
"318 676 OFFCURVE",
"333 679 OFFCURVE",
"364 690 CURVE",
"366 700 LINE",
"145 700 LINE",
"143 690 LINE",
"165 682 OFFCURVE",
"191 676 OFFCURVE",
"216 672 CURVE",
"84 27 LINE",
"51 24 OFFCURVE",
"26 17 OFFCURVE",
"5 10 CURVE",
"3 0 LINE"
);
},
{
closed = 1;
nodes = (
"625 340 LINE",
"631 371 LINE",
"191 371 LINE",
"185 340 LINE"
);
}
);
width = 748;
}
);
note = Hdotbelow;
unicode = 1E24;
},
{
glyphname = I;
lastChange = "2015-10-26 06:20:54 +0000";
layers = (
{
layerId = "C5AF2DAB-186C-4D06-AB99-4303FDDF1A44";
name = "Light Italic";
paths = (
{
closed = 1;
nodes = (
"231 0 LINE",
"232 9 LINE",
"210 17 OFFCURVE",
"182 23 OFFCURVE",
"157 27 CURVE",
"289 672 LINE",
"318 676 OFFCURVE",
"347 682 OFFCURVE",
"372 690 CURVE",
"373 700 LINE",
"149 700 LINE",
"147 690 LINE",
"169 682 OFFCURVE",
"196 676 OFFCURVE",
"221 672 CURVE",
"89 27 LINE",
"61 23 OFFCURVE",
"33 17 OFFCURVE",
"9 10 CURVE",
"7 0 LINE"
);
}
);
width = 315;
}
);
note = I;
unicode = 0049;
},
{
glyphname = IJ;
lastChange = "2015-10-26 06:20:55 +0000";
layers = (
{
layerId = "C5AF2DAB-186C-4D06-AB99-4303FDDF1A44";
name = "Light Italic";
paths = (
{
closed = 1;
nodes = (
"529 -10 OFFCURVE",
"601 42 OFFCURVE",
"621 137 CURVE SMOOTH",
"730 672 LINE",
"764 675 OFFCURVE",
"789 682 OFFCURVE",
"810 689 CURVE",
"812 700 LINE",
"590 700 LINE",
"588 688 LINE",
"606 682 OFFCURVE",
"625 676 OFFCURVE",
"661 671 CURVE",
"553 139 LINE SMOOTH",
"536 56 OFFCURVE",
"483 27 OFFCURVE",
"419 27 CURVE SMOOTH",
"376 27 OFFCURVE",
"343 39 OFFCURVE",
"317 56 CURVE",
"301 36 LINE",
"330 7 OFFCURVE",
"372 -10 OFFCURVE",
"431 -10 CURVE SMOOTH"
);
},
{
closed = 1;
nodes = (
"231 0 LINE",
"232 9 LINE",
"210 17 OFFCURVE",
"182 23 OFFCURVE",
"157 27 CURVE",
"289 672 LINE",
"318 676 OFFCURVE",
"347 682 OFFCURVE",
"372 690 CURVE",
"373 700 LINE",
"149 700 LINE",
"147 690 LINE",
"169 682 OFFCURVE",
"196 676 OFFCURVE",
"221 672 CURVE",
"89 27 LINE",
"61 23 OFFCURVE",
"33 17 OFFCURVE",
"9 10 CURVE",
"7 0 LINE"
);
}
);
width = 751;
}
);
note = IJ;
rightKerningGroup = J;
unicode = 0132;
},
{
glyphname = Iacute;
lastChange = "2015-10-26 06:20:55 +0000";
layers = (
{
layerId = "C5AF2DAB-186C-4D06-AB99-4303FDDF1A44";
name = "Light Italic";
paths = (
{
closed = 1;
nodes = (
"231 0 LINE",
"232 9 LINE",
"210 17 OFFCURVE",
"182 23 OFFCURVE",
"157 27 CURVE",
"289 672 LINE",
"318 676 OFFCURVE",
"347 682 OFFCURVE",
"372 690 CURVE",
"373 700 LINE",
"149 700 LINE",
"147 690 LINE",
"169 682 OFFCURVE",
"196 676 OFFCURVE",
"221 672 CURVE",
"89 27 LINE",
"61 23 OFFCURVE",
"33 17 OFFCURVE",
"9 10 CURVE",
"7 0 LINE"
);
},
{
closed = 1;
nodes = (
"351 865 LINE SMOOTH",
"375 878 OFFCURVE",
"386 891 OFFCURVE",
"386 906 CURVE SMOOTH",
"386 916 OFFCURVE",
"379 924 OFFCURVE",
"366 924 CURVE SMOOTH",
"348 924 OFFCURVE",
"332 912 OFFCURVE",
"324 905 CURVE",
"197 805 LINE",
"205 786 LINE"
);
}
);
width = 315;
}
);
note = Iacute;
unicode = 00CD;
},
{
glyphname = Ibreve;
lastChange = "2015-10-26 06:20:55 +0000";
layers = (
{
layerId = "C5AF2DAB-186C-4D06-AB99-4303FDDF1A44";
name = "Light Italic";
paths = (
{
closed = 1;
nodes = (
"231 0 LINE",
"232 9 LINE",
"210 17 OFFCURVE",
"182 23 OFFCURVE",
"157 27 CURVE",
"289 672 LINE",
"318 676 OFFCURVE",
"347 682 OFFCURVE",
"372 690 CURVE",
"373 700 LINE",
"149 700 LINE",
"147 690 LINE",
"169 682 OFFCURVE",
"196 676 OFFCURVE",
"221 672 CURVE",
"89 27 LINE",
"61 23 OFFCURVE",
"33 17 OFFCURVE",
"9 10 CURVE",
"7 0 LINE"
);
},
{
closed = 1;
nodes = (
"353 776 OFFCURVE",
"416 813 OFFCURVE",
"442 896 CURVE",
"397 896 LINE",
"373 819 OFFCURVE",
"322 808 OFFCURVE",
"282 808 CURVE SMOOTH",
"246 808 OFFCURVE",
"203 817 OFFCURVE",
"203 880 CURVE SMOOTH",
"203 885 OFFCURVE",
"203 890 OFFCURVE",
"204 896 CURVE",
"159 896 LINE",
"159 891 OFFCURVE",
"158 885 OFFCURVE",
"158 880 CURVE SMOOTH",
"158 808 OFFCURVE",
"205 776 OFFCURVE",
"276 776 CURVE SMOOTH"
);
}
);
width = 315;
}
);
note = Ibreve;
unicode = 012C;
},
{
glyphname = Icaron;
lastChange = "2015-10-26 06:20:54 +0000";
layers = (
{
layerId = "C5AF2DAB-186C-4D06-AB99-4303FDDF1A44";
name = "Light Italic";
paths = (
{
closed = 1;
nodes = (
"231 0 LINE",
"232 9 LINE",
"210 17 OFFCURVE",
"182 23 OFFCURVE",
"157 27 CURVE",
"289 672 LINE",
"318 676 OFFCURVE",
"347 682 OFFCURVE",
"372 690 CURVE",
"373 700 LINE",
"149 700 LINE",
"147 690 LINE",
"169 682 OFFCURVE",
"196 676 OFFCURVE",
"221 672 CURVE",
"89 27 LINE",
"61 23 OFFCURVE",
"33 17 OFFCURVE",
"9 10 CURVE",
"7 0 LINE"
);
},
{
closed = 1;
nodes = (
"294 786 LINE",
"332 829 OFFCURVE",
"393 876 OFFCURVE",
"436 903 CURVE",
"413 930 LINE",
"372 903 OFFCURVE",
"322 863 OFFCURVE",
"289 828 CURVE",
"284 828 LINE",
"265 863 OFFCURVE",
"231 903 OFFCURVE",
"201 930 CURVE",
"168 903 LINE",
"200 876 OFFCURVE",
"241 829 OFFCURVE",
"262 786 CURVE"
);
}
);
width = 315;
}
);
note = Icaron;
unicode = 01CF;
},
{
glyphname = Icircumflex;
lastChange = "2015-10-26 06:20:55 +0000";
layers = (
{
layerId = "C5AF2DAB-186C-4D06-AB99-4303FDDF1A44";
name = "Light Italic";
paths = (
{
closed = 1;
nodes = (
"231 0 LINE",
"232 9 LINE",
"210 17 OFFCURVE",
"182 23 OFFCURVE",
"157 27 CURVE",
"289 672 LINE",
"318 676 OFFCURVE",
"347 682 OFFCURVE",
"372 690 CURVE",
"373 700 LINE",
"149 700 LINE",
"147 690 LINE",
"169 682 OFFCURVE",
"196 676 OFFCURVE",
"221 672 CURVE",
"89 27 LINE",
"61 23 OFFCURVE",
"33 17 OFFCURVE",
"9 10 CURVE",
"7 0 LINE"
);
},
{
closed = 1;
nodes = (
"211 806 OFFCURVE",
"261 846 OFFCURVE",
"295 881 CURVE",
"300 881 LINE",
"318 846 OFFCURVE",
"352 806 OFFCURVE",
"382 779 CURVE",
"416 806 LINE",
"384 833 OFFCURVE",
"343 880 OFFCURVE",
"322 922 CURVE",
"290 922 LINE",
"252 880 OFFCURVE",
"191 833 OFFCURVE",
"149 806 CURVE",
"170 779 LINE"
);
}
);
width = 315;
}
);
note = Icircumflex;
unicode = 00CE;
},
{
glyphname = Idieresis;
lastChange = "2015-10-26 06:20:54 +0000";
layers = (
{
layerId = "C5AF2DAB-186C-4D06-AB99-4303FDDF1A44";
name = "Light Italic";
paths = (
{
closed = 1;
nodes = (
"231 0 LINE",
"232 9 LINE",
"210 17 OFFCURVE",
"182 23 OFFCURVE",
"157 27 CURVE",
"289 672 LINE",
"318 676 OFFCURVE",
"347 682 OFFCURVE",
"372 690 CURVE",
"373 700 LINE",
"149 700 LINE",
"147 690 LINE",
"169 682 OFFCURVE",
"196 676 OFFCURVE",
"221 672 CURVE",
"89 27 LINE",
"61 23 OFFCURVE",
"33 17 OFFCURVE",
"9 10 CURVE",
"7 0 LINE"
);
},
{
closed = 1;
nodes = (
"200 785 OFFCURVE",
"222 806 OFFCURVE",
"222 836 CURVE SMOOTH",
"222 854 OFFCURVE",
"211 866 OFFCURVE",
"192 866 CURVE SMOOTH",
"167 866 OFFCURVE",
"146 845 OFFCURVE",
"146 815 CURVE SMOOTH",
"146 796 OFFCURVE",
"157 785 OFFCURVE",
"175 785 CURVE SMOOTH"
);
},
{
closed = 1;
nodes = (
"404 785 OFFCURVE",
"426 806 OFFCURVE",
"426 836 CURVE SMOOTH",
"426 855 OFFCURVE",
"415 866 OFFCURVE",
"396 866 CURVE SMOOTH",
"371 866 OFFCURVE",
"349 846 OFFCURVE",
"349 816 CURVE SMOOTH",
"349 797 OFFCURVE",
"360 785 OFFCURVE",
"379 785 CURVE SMOOTH"
);
}
);
width = 315;
}
);
note = Idieresis;
unicode = 00CF;
},
{
glyphname = Idotaccent;
lastChange = "2015-10-26 06:20:55 +0000";
layers = (
{
layerId = "C5AF2DAB-186C-4D06-AB99-4303FDDF1A44";
name = "Light Italic";
paths = (
{
closed = 1;
nodes = (
"231 0 LINE",
"232 9 LINE",
"210 17 OFFCURVE",
"182 23 OFFCURVE",
"157 27 CURVE",
"289 672 LINE",
"318 676 OFFCURVE",
"347 682 OFFCURVE",
"372 690 CURVE",
"373 700 LINE",
"149 700 LINE",
"147 690 LINE",
"169 682 OFFCURVE",
"196 676 OFFCURVE",
"221 672 CURVE",
"89 27 LINE",
"61 23 OFFCURVE",
"33 17 OFFCURVE",
"9 10 CURVE",
"7 0 LINE"
);
},
{
closed = 1;
nodes = (
"302 785 OFFCURVE",
"324 805 OFFCURVE",
"324 835 CURVE SMOOTH",
"324 854 OFFCURVE",
"313 866 OFFCURVE",
"294 866 CURVE SMOOTH",
"268 866 OFFCURVE",
"247 845 OFFCURVE",
"247 814 CURVE SMOOTH",
"247 796 OFFCURVE",
"257 785 OFFCURVE",
"276 785 CURVE SMOOTH"
);
}
);
width = 315;
}
);
note = Idotaccent;
unicode = 0130;
},
{
glyphname = Idotbelow;
lastChange = "2015-10-26 06:20:55 +0000";
layers = (
{
layerId = "C5AF2DAB-186C-4D06-AB99-4303FDDF1A44";
name = "Light Italic";
paths = (
{
closed = 1;
nodes = (
"231 0 LINE",
"232 9 LINE",
"210 17 OFFCURVE",
"182 23 OFFCURVE",
"157 27 CURVE",
"289 672 LINE",
"318 676 OFFCURVE",
"347 682 OFFCURVE",
"372 690 CURVE",
"373 700 LINE",
"149 700 LINE",
"147 690 LINE",
"169 682 OFFCURVE",
"196 676 OFFCURVE",
"221 672 CURVE",
"89 27 LINE",
"61 23 OFFCURVE",
"33 17 OFFCURVE",
"9 10 CURVE",
"7 0 LINE"
);
},
{
closed = 1;
nodes = (
"114 -142 OFFCURVE",
"136 -121 OFFCURVE",
"136 -91 CURVE SMOOTH",
"136 -72 OFFCURVE",
"125 -61 OFFCURVE",
"107 -61 CURVE SMOOTH",
"81 -61 OFFCURVE",
"59 -81 OFFCURVE",
"59 -111 CURVE SMOOTH",
"59 -130 OFFCURVE",
"70 -142 OFFCURVE",
"89 -142 CURVE SMOOTH"
);
}
);
width = 315;
}
);
note = Idotbelow;
unicode = 1ECA;
},
{
glyphname = Igrave;
lastChange = "2015-10-26 06:20:55 +0000";
layers = (
{
layerId = "C5AF2DAB-186C-4D06-AB99-4303FDDF1A44";
name = "Light Italic";
paths = (
{
closed = 1;
nodes = (
"231 0 LINE",
"232 9 LINE",
"210 17 OFFCURVE",
"182 23 OFFCURVE",
"157 27 CURVE",
"289 672 LINE",
"318 676 OFFCURVE",
"347 682 OFFCURVE",
"372 690 CURVE",
"373 700 LINE",
"149 700 LINE",
"147 690 LINE",
"169 682 OFFCURVE",
"196 676 OFFCURVE",
"221 672 CURVE",
"89 27 LINE",
"61 23 OFFCURVE",
"33 17 OFFCURVE",
"9 10 CURVE",
"7 0 LINE"
);
},
{
closed = 1;
nodes = (
"367 805 LINE",
"278 905 LINE",
"273 914 OFFCURVE",
"262 924 OFFCURVE",
"246 924 CURVE SMOOTH",
"228 924 OFFCURVE",
"215 910 OFFCURVE",
"215 896 CURVE SMOOTH",
"215 885 OFFCURVE",
"223 874 OFFCURVE",
"235 865 CURVE",
"350 786 LINE"
);
}
);
width = 315;
}
);
note = Igrave;
unicode = 00CC;
},
{
glyphname = Ihookabove;
lastChange = "2015-10-26 06:20:55 +0000";
layers = (
{
layerId = "C5AF2DAB-186C-4D06-AB99-4303FDDF1A44";
name = "Light Italic";
paths = (
{
closed = 1;
nodes = (
"231 0 LINE",
"232 9 LINE",
"210 17 OFFCURVE",
"182 23 OFFCURVE",
"157 27 CURVE",
"289 672 LINE",
"318 676 OFFCURVE",
"347 682 OFFCURVE",
"372 690 CURVE",
"373 700 LINE",
"149 700 LINE",
"147 690 LINE",
"169 682 OFFCURVE",
"196 676 OFFCURVE",
"221 672 CURVE",
"89 27 LINE",
"61 23 OFFCURVE",
"33 17 OFFCURVE",
"9 10 CURVE",
"7 0 LINE"
);
},
{
closed = 1;
nodes = (
"296 779 LINE",
"319 841 LINE",
"369 846 OFFCURVE",
"402 871 OFFCURVE",
"411 914 CURVE SMOOTH",
"412 920 OFFCURVE",
"413 925 OFFCURVE",
"413 930 CURVE SMOOTH",
"413 971 OFFCURVE",
"379 989 OFFCURVE",
"339 989 CURVE SMOOTH",
"311 989 OFFCURVE",
"283 981 OFFCURVE",
"264 972 CURVE",
"265 945 LINE",
"287 956 OFFCURVE",
"308 961 OFFCURVE",
"324 961 CURVE SMOOTH",
"357 961 OFFCURVE",
"371 945 OFFCURVE",
"371 924 CURVE SMOOTH",
"371 922 OFFCURVE",
"370 919 OFFCURVE",
"370 916 CURVE SMOOTH",
"364 887 OFFCURVE",
"340 864 OFFCURVE",
"298 864 CURVE SMOOTH",
"278 864 LINE",
"266 779 LINE"
);
}
);
width = 315;
}
);
note = Ihookabove;
unicode = 1EC8;
},
{
glyphname = Imacron;
lastChange = "2015-10-26 06:20:54 +0000";
layers = (
{
layerId = "C5AF2DAB-186C-4D06-AB99-4303FDDF1A44";
name = "Light Italic";
paths = (
{
closed = 1;
nodes = (
"231 0 LINE",
"232 9 LINE",
"210 17 OFFCURVE",
"182 23 OFFCURVE",
"157 27 CURVE",
"289 672 LINE",
"318 676 OFFCURVE",
"347 682 OFFCURVE",
"372 690 CURVE",
"373 700 LINE",
"149 700 LINE",
"147 690 LINE",
"169 682 OFFCURVE",
"196 676 OFFCURVE",
"221 672 CURVE",
"89 27 LINE",
"61 23 OFFCURVE",
"33 17 OFFCURVE",
"9 10 CURVE",
"7 0 LINE"
);
},
{
closed = 1;
nodes = (
"436 785 LINE",
"443 816 LINE",
"129 816 LINE",
"122 785 LINE"
);
}
);
width = 315;
}
);
note = Imacron;
unicode = 012A;
},
{
glyphname = Iogonek;
lastChange = "2015-10-26 06:20:54 +0000";
layers = (
{
layerId = "C5AF2DAB-186C-4D06-AB99-4303FDDF1A44";
name = "Light Italic";
paths = (
{
closed = 1;
nodes = (
"231 0 LINE",
"232 9 LINE",
"210 17 OFFCURVE",
"182 23 OFFCURVE",
"157 27 CURVE",
"289 672 LINE",
"318 676 OFFCURVE",
"347 682 OFFCURVE",
"372 690 CURVE",
"373 700 LINE",
"149 700 LINE",
"147 690 LINE",
"169 682 OFFCURVE",
"196 676 OFFCURVE",
"221 672 CURVE",
"89 27 LINE",
"61 23 OFFCURVE",
"33 17 OFFCURVE",
"9 10 CURVE",
"7 0 LINE"
);
},
{
closed = 1;
nodes = (
"169 -181 OFFCURVE",
"191 -176 OFFCURVE",
"215 -166 CURVE",
"222 -133 LINE",
"204 -141 OFFCURVE",
"187 -144 OFFCURVE",
"173 -144 CURVE SMOOTH",
"144 -144 OFFCURVE",
"123 -133 OFFCURVE",
"123 -107 CURVE SMOOTH",
"123 -64 OFFCURVE",
"163 -22 OFFCURVE",
"206 0 CURVE",
"166 0 LINE",
"115 -20 OFFCURVE",
"79 -60 OFFCURVE",
"69 -104 CURVE SMOOTH",
"68 -109 OFFCURVE",
"67 -114 OFFCURVE",
"67 -119 CURVE SMOOTH",
"67 -152 OFFCURVE",
"91 -181 OFFCURVE",
"142 -181 CURVE SMOOTH"
);
}
);
width = 315;
}
);
note = Iogonek;
unicode = 012E;
},
{
glyphname = Itilde;
lastChange = "2015-10-26 06:20:55 +0000";
layers = (
{
layerId = "C5AF2DAB-186C-4D06-AB99-4303FDDF1A44";
name = "Light Italic";
paths = (
{
closed = 1;
nodes = (
"231 0 LINE",
"232 9 LINE",
"210 17 OFFCURVE",
"182 23 OFFCURVE",
"157 27 CURVE",
"289 672 LINE",
"318 676 OFFCURVE",
"347 682 OFFCURVE",
"372 690 CURVE",
"373 700 LINE",
"149 700 LINE",
"147 690 LINE",
"169 682 OFFCURVE",
"196 676 OFFCURVE",
"221 672 CURVE",
"89 27 LINE",
"61 23 OFFCURVE",
"33 17 OFFCURVE",
"9 10 CURVE",
"7 0 LINE"
);
},
{
closed = 1;
nodes = (
"150 786 LINE",
"164 822 OFFCURVE",
"191 845 OFFCURVE",
"221 845 CURVE SMOOTH",
"260 845 OFFCURVE",
"300 787 OFFCURVE",
"345 787 CURVE SMOOTH",
"396 787 OFFCURVE",
"431 826 OFFCURVE",
"451 887 CURVE",
"428 887 LINE",
"410 845 OFFCURVE",
"384 825 OFFCURVE",
"354 825 CURVE SMOOTH",
"315 825 OFFCURVE",
"281 881 OFFCURVE",
"230 881 CURVE SMOOTH",
"185 881 OFFCURVE",
"147 852 OFFCURVE",
"125 786 CURVE"
);
}
);
width = 315;
}
);
note = Itilde;
unicode = 0128;
},
{
glyphname = J;
lastChange = "2015-10-26 06:20:54 +0000";
layers = (
{
layerId = "C5AF2DAB-186C-4D06-AB99-4303FDDF1A44";
name = "Light Italic";
paths = (
{
closed = 1;
nodes = (
"217 -10 OFFCURVE",
"289 42 OFFCURVE",
"309 137 CURVE SMOOTH",
"418 672 LINE",
"452 675 OFFCURVE",
"477 682 OFFCURVE",
"498 689 CURVE",
"500 700 LINE",
"278 700 LINE",
"276 688 LINE",
"294 682 OFFCURVE",
"313 676 OFFCURVE",
"349 671 CURVE",
"241 139 LINE SMOOTH",
"224 56 OFFCURVE",
"171 27 OFFCURVE",
"107 27 CURVE SMOOTH",
"64 27 OFFCURVE",
"31 39 OFFCURVE",
"5 56 CURVE",
"-11 36 LINE",
"18 7 OFFCURVE",
"60 -10 OFFCURVE",
"119 -10 CURVE SMOOTH"
);
}
);
width = 439;
}
);
leftKerningGroup = J;
note = J;
rightKerningGroup = J;
unicode = 004A;
},
{
glyphname = Jcircumflex;
lastChange = "2015-10-26 06:20:55 +0000";
layers = (
{
layerId = "C5AF2DAB-186C-4D06-AB99-4303FDDF1A44";
name = "Light Italic";
paths = (
{
closed = 1;
nodes = (
"217 -10 OFFCURVE",
"289 42 OFFCURVE",
"309 137 CURVE SMOOTH",
"418 672 LINE",
"452 675 OFFCURVE",
"477 682 OFFCURVE",
"498 689 CURVE",
"500 700 LINE",
"278 700 LINE",
"276 688 LINE",
"294 682 OFFCURVE",
"313 676 OFFCURVE",
"349 671 CURVE",
"241 139 LINE SMOOTH",
"224 56 OFFCURVE",
"171 27 OFFCURVE",
"107 27 CURVE SMOOTH",
"64 27 OFFCURVE",
"31 39 OFFCURVE",
"5 56 CURVE",
"-11 36 LINE",
"18 7 OFFCURVE",
"60 -10 OFFCURVE",
"119 -10 CURVE SMOOTH"
);
},
{
closed = 1;
nodes = (
"340 806 OFFCURVE",
"390 846 OFFCURVE",
"423 881 CURVE",
"428 881 LINE",
"446 846 OFFCURVE",
"481 806 OFFCURVE",
"511 779 CURVE",
"544 806 LINE",
"513 833 OFFCURVE",
"471 880 OFFCURVE",
"450 922 CURVE",
"419 922 LINE",
"380 880 OFFCURVE",
"320 833 OFFCURVE",
"277 806 CURVE",
"299 779 LINE"
);
}
);
width = 439;
}
);
leftKerningGroup = J;
note = Jcircumflex;
rightKerningGroup = J;
unicode = 0134;
},
{
glyphname = K;
lastChange = "2015-10-26 06:20:55 +0000";
layers = (
{
layerId = "C5AF2DAB-186C-4D06-AB99-4303FDDF1A44";
name = "Light Italic";
paths = (
{
closed = 1;
nodes = (
"228 0 LINE",
"228 9 LINE",
"206 17 OFFCURVE",
"180 23 OFFCURVE",
"154 27 CURVE",
"204 270 LINE",
"300 360 LINE",
"502 0 LINE",
"636 0 LINE",
"636 9 LINE",
"611 18 OFFCURVE",
"582 23 OFFCURVE",
"562 27 CURVE",
"350 405 LINE",
"631 664 LINE",
"654 682 OFFCURVE",
"680 682 OFFCURVE",
"701 687 CURVE",
"703 700 LINE",
"519 700 LINE",
"517 687 LINE",
"536 681 OFFCURVE",
"580 681 OFFCURVE",
"584 665 CURVE",
"214 322 LINE",
"285 672 LINE",
"314 676 OFFCURVE",
"342 682 OFFCURVE",
"368 690 CURVE",
"370 700 LINE",
"145 700 LINE",
"143 690 LINE",
"165 682 OFFCURVE",
"192 676 OFFCURVE",
"217 672 CURVE",
"85 27 LINE",
"65 25 OFFCURVE",
"30 18 OFFCURVE",
"5 10 CURVE",
"3 0 LINE"
);
}
);
width = 684;
}
);
note = K;
rightKerningGroup = K;
unicode = 004B;
},
{
glyphname = Kcommaaccent;
lastChange = "2015-10-26 06:20:55 +0000";
layers = (
{
layerId = "C5AF2DAB-186C-4D06-AB99-4303FDDF1A44";
name = "Light Italic";
paths = (
{
closed = 1;
nodes = (
"228 0 LINE",
"228 9 LINE",
"206 17 OFFCURVE",
"180 23 OFFCURVE",
"154 27 CURVE",
"204 270 LINE",
"300 360 LINE",
"502 0 LINE",
"636 0 LINE",
"636 9 LINE",
"611 18 OFFCURVE",
"582 23 OFFCURVE",
"562 27 CURVE",
"350 405 LINE",
"631 664 LINE",
"654 682 OFFCURVE",
"680 682 OFFCURVE",
"701 687 CURVE",
"703 700 LINE",
"519 700 LINE",
"517 687 LINE",
"536 681 OFFCURVE",
"580 681 OFFCURVE",
"584 665 CURVE",
"214 322 LINE",
"285 672 LINE",
"314 676 OFFCURVE",
"342 682 OFFCURVE",
"368 690 CURVE",
"370 700 LINE",
"145 700 LINE",
"143 690 LINE",
"165 682 OFFCURVE",
"192 676 OFFCURVE",
"217 672 CURVE",
"85 27 LINE",
"65 25 OFFCURVE",
"30 18 OFFCURVE",
"5 10 CURVE",
"3 0 LINE"
);
},
{
closed = 1;
nodes = (
"309 -239 OFFCURVE",
"353 -154 OFFCURVE",
"353 -107 CURVE SMOOTH",
"353 -82 OFFCURVE",
"341 -65 OFFCURVE",
"311 -65 CURVE SMOOTH",
"285 -65 OFFCURVE",
"257 -82 OFFCURVE",
"257 -119 CURVE SMOOTH",
"257 -138 OFFCURVE",
"270 -151 OFFCURVE",
"290 -151 CURVE SMOOTH",
"294 -151 OFFCURVE",
"299 -150 OFFCURVE",
"302 -149 CURVE",
"291 -189 OFFCURVE",
"268 -230 OFFCURVE",
"238 -259 CURVE",
"259 -280 LINE"
);
}
);
width = 684;
}
);
note = Kcommaaccent;
rightKerningGroup = K;
unicode = 0136;
},
{
glyphname = L;
lastChange = "2015-10-26 06:20:55 +0000";
layers = (
{
layerId = "C5AF2DAB-186C-4D06-AB99-4303FDDF1A44";
name = "Light Italic";
paths = (
{
closed = 1;
nodes = (
"465 0 LINE",
"504 134 LINE",
"488 134 LINE",
"473 115 OFFCURVE",
"442 58 OFFCURVE",
"434 31 CURVE",
"157 31 LINE",
"288 672 LINE",
"316 676 OFFCURVE",
"344 682 OFFCURVE",
"370 690 CURVE",
"372 700 LINE",
"147 700 LINE",
"145 690 LINE",
"168 682 OFFCURVE",
"194 676 OFFCURVE",
"220 672 CURVE",
"88 27 LINE",
"51 23 OFFCURVE",
"26 17 OFFCURVE",
"6 10 CURVE",
"4 0 LINE"
);
}
);
width = 558;
}
);
note = L;
rightKerningGroup = L;
unicode = 004C;
},
{
glyphname = Lacute;
lastChange = "2015-10-26 06:20:55 +0000";
layers = (
{
layerId = "C5AF2DAB-186C-4D06-AB99-4303FDDF1A44";
name = "Light Italic";
paths = (
{
closed = 1;
nodes = (
"465 0 LINE",
"504 134 LINE",
"488 134 LINE",
"473 115 OFFCURVE",
"442 58 OFFCURVE",
"434 31 CURVE",
"157 31 LINE",
"288 672 LINE",
"316 676 OFFCURVE",
"344 682 OFFCURVE",
"370 690 CURVE",
"372 700 LINE",
"147 700 LINE",
"145 690 LINE",
"168 682 OFFCURVE",
"194 676 OFFCURVE",
"220 672 CURVE",
"88 27 LINE",
"51 23 OFFCURVE",
"26 17 OFFCURVE",
"6 10 CURVE",
"4 0 LINE"
);
},
{
closed = 1;
nodes = (
"402 865 LINE SMOOTH",
"425 878 OFFCURVE",
"437 891 OFFCURVE",
"437 906 CURVE SMOOTH",
"437 916 OFFCURVE",
"430 924 OFFCURVE",
"417 924 CURVE SMOOTH",
"399 924 OFFCURVE",
"383 912 OFFCURVE",
"375 905 CURVE",
"248 805 LINE",
"256 786 LINE"
);
}
);
width = 558;
}
);
note = Lacute;
rightKerningGroup = L;
unicode = 0139;
},
{
glyphname = Lcaron;
lastChange = "2015-10-26 06:20:55 +0000";
layers = (
{
layerId = "C5AF2DAB-186C-4D06-AB99-4303FDDF1A44";
name = "Light Italic";
paths = (
{
closed = 1;
nodes = (
"465 0 LINE",
"504 134 LINE",
"488 134 LINE",
"473 115 OFFCURVE",
"442 58 OFFCURVE",
"434 31 CURVE",
"157 31 LINE",
"288 672 LINE",
"316 676 OFFCURVE",
"344 682 OFFCURVE",
"370 690 CURVE",
"372 700 LINE",
"147 700 LINE",
"145 690 LINE",
"168 682 OFFCURVE",
"194 676 OFFCURVE",
"220 672 CURVE",
"88 27 LINE",
"51 23 OFFCURVE",
"26 17 OFFCURVE",
"6 10 CURVE",
"4 0 LINE"
);
},
{
closed = 1;
nodes = (
"517 533 OFFCURVE",
"561 620 OFFCURVE",
"561 666 CURVE SMOOTH",
"561 692 OFFCURVE",
"550 710 OFFCURVE",
"518 710 CURVE SMOOTH",
"486 710 OFFCURVE",
"463 686 OFFCURVE",
"463 652 CURVE SMOOTH",
"463 630 OFFCURVE",
"478 620 OFFCURVE",
"496 620 CURVE SMOOTH",
"500 620 OFFCURVE",
"505 621 OFFCURVE",
"510 622 CURVE",
"498 582 OFFCURVE",
"473 541 OFFCURVE",
"444 512 CURVE",
"466 491 LINE"
);
}
);
width = 558;
}
);
note = Lcaron;
rightKerningGroup = L;
unicode = 013D;
},
{
glyphname = Lcommaaccent;
lastChange = "2015-10-26 06:20:55 +0000";
layers = (
{
layerId = "C5AF2DAB-186C-4D06-AB99-4303FDDF1A44";
name = "Light Italic";
paths = (
{
closed = 1;
nodes = (
"465 0 LINE",
"504 134 LINE",
"488 134 LINE",
"473 115 OFFCURVE",
"442 58 OFFCURVE",
"434 31 CURVE",
"157 31 LINE",
"288 672 LINE",
"316 676 OFFCURVE",
"344 682 OFFCURVE",
"370 690 CURVE",
"372 700 LINE",
"147 700 LINE",
"145 690 LINE",
"168 682 OFFCURVE",
"194 676 OFFCURVE",
"220 672 CURVE",
"88 27 LINE",
"51 23 OFFCURVE",
"26 17 OFFCURVE",
"6 10 CURVE",
"4 0 LINE"
);
},
{
closed = 1;
nodes = (
"242 -239 OFFCURVE",
"286 -154 OFFCURVE",
"286 -107 CURVE SMOOTH",
"286 -82 OFFCURVE",
"274 -65 OFFCURVE",
"244 -65 CURVE SMOOTH",
"218 -65 OFFCURVE",
"190 -82 OFFCURVE",
"190 -119 CURVE SMOOTH",
"190 -138 OFFCURVE",
"203 -151 OFFCURVE",
"223 -151 CURVE SMOOTH",
"227 -151 OFFCURVE",
"231 -150 OFFCURVE",
"235 -149 CURVE",
"224 -189 OFFCURVE",
"201 -230 OFFCURVE",
"171 -259 CURVE",
"192 -280 LINE"
);
}
);
width = 558;
}
);
note = Lcommaaccent;
rightKerningGroup = L;
unicode = 013B;
},
{
glyphname = Ldot;
lastChange = "2015-10-26 06:20:55 +0000";
layers = (
{
layerId = "C5AF2DAB-186C-4D06-AB99-4303FDDF1A44";
name = "Light Italic";
paths = (
{
closed = 1;
nodes = (
"465 0 LINE",
"504 134 LINE",
"488 134 LINE",
"473 115 OFFCURVE",
"442 58 OFFCURVE",
"434 31 CURVE",
"157 31 LINE",
"288 672 LINE",
"316 676 OFFCURVE",
"344 682 OFFCURVE",
"370 690 CURVE",
"372 700 LINE",
"147 700 LINE",
"145 690 LINE",
"168 682 OFFCURVE",
"194 676 OFFCURVE",
"220 672 CURVE",
"88 27 LINE",
"51 23 OFFCURVE",
"26 17 OFFCURVE",
"6 10 CURVE",
"4 0 LINE"
);
},
{
closed = 1;
nodes = (
"412 332 OFFCURVE",
"430 348 OFFCURVE",
"436 373 CURVE SMOOTH",
"437 376 OFFCURVE",
"437 380 OFFCURVE",
"437 383 CURVE SMOOTH",
"437 401 OFFCURVE",
"425 413 OFFCURVE",
"405 413 CURVE SMOOTH",
"380 413 OFFCURVE",
"359 392 OFFCURVE",
"359 361 CURVE SMOOTH",
"359 343 OFFCURVE",
"371 332 OFFCURVE",
"389 332 CURVE SMOOTH"
);
}
);
width = 558;
}
);
note = Ldot;
rightKerningGroup = L;
unicode = 013F;
},
{
glyphname = Ldotbelow;
lastChange = "2015-10-26 06:20:54 +0000";
layers = (
{
layerId = "C5AF2DAB-186C-4D06-AB99-4303FDDF1A44";
name = "Light Italic";
paths = (
{
closed = 1;
nodes = (
"465 0 LINE",
"504 134 LINE",
"488 134 LINE",
"473 115 OFFCURVE",
"442 58 OFFCURVE",
"434 31 CURVE",
"157 31 LINE",
"288 672 LINE",
"316 676 OFFCURVE",
"344 682 OFFCURVE",
"370 690 CURVE",
"372 700 LINE",
"147 700 LINE",
"145 690 LINE",
"168 682 OFFCURVE",
"194 676 OFFCURVE",
"220 672 CURVE",
"88 27 LINE",
"51 23 OFFCURVE",
"26 17 OFFCURVE",
"6 10 CURVE",
"4 0 LINE"
);
},
{
closed = 1;
nodes = (
"264 -134 OFFCURVE",
"282 -118 OFFCURVE",
"288 -93 CURVE SMOOTH",
"289 -90 OFFCURVE",
"289 -86 OFFCURVE",
"289 -83 CURVE SMOOTH",
"289 -65 OFFCURVE",
"277 -53 OFFCURVE",
"258 -53 CURVE SMOOTH",
"231 -53 OFFCURVE",
"211 -75 OFFCURVE",
"211 -105 CURVE SMOOTH",
"211 -123 OFFCURVE",
"223 -134 OFFCURVE",
"242 -134 CURVE SMOOTH"
);
}
);
width = 558;
}
);
note = Ldotbelow;
rightKerningGroup = L;
unicode = 1E36;
},
{
glyphname = Ldotbelowmacron;
lastChange = "2015-10-26 06:20:54 +0000";
layers = (
{
layerId = "C5AF2DAB-186C-4D06-AB99-4303FDDF1A44";
name = "Light Italic";
paths = (
{
closed = 1;
nodes = (
"465 0 LINE",
"504 134 LINE",
"488 134 LINE",
"473 115 OFFCURVE",
"442 58 OFFCURVE",
"434 31 CURVE",
"157 31 LINE",
"288 672 LINE",
"316 676 OFFCURVE",
"344 682 OFFCURVE",
"370 690 CURVE",
"372 700 LINE",
"147 700 LINE",
"145 690 LINE",
"168 682 OFFCURVE",
"194 676 OFFCURVE",
"220 672 CURVE",
"88 27 LINE",
"51 23 OFFCURVE",
"26 17 OFFCURVE",
"6 10 CURVE",
"4 0 LINE"
);
},
{
closed = 1;
nodes = (
"263 -134 OFFCURVE",
"281 -118 OFFCURVE",
"287 -93 CURVE SMOOTH",
"288 -90 OFFCURVE",
"288 -86 OFFCURVE",
"288 -83 CURVE SMOOTH",
"288 -65 OFFCURVE",
"276 -53 OFFCURVE",
"257 -53 CURVE SMOOTH",
"232 -53 OFFCURVE",
"211 -74 OFFCURVE",
"211 -105 CURVE SMOOTH",
"211 -123 OFFCURVE",
"223 -134 OFFCURVE",
"241 -134 CURVE SMOOTH"
);
},
{
closed = 1;
nodes = (
"427 785 LINE",
"434 815 LINE",
"132 815 LINE",
"126 785 LINE"
);
}
);
width = 558;
}
);
note = Ldotbelowmacron;
rightKerningGroup = L;
unicode = 1E38;
},
{
glyphname = Llinebelow;
lastChange = "2015-10-26 06:20:55 +0000";
layers = (
{
layerId = "C5AF2DAB-186C-4D06-AB99-4303FDDF1A44";
name = "Light Italic";
paths = (
{
closed = 1;
nodes = (
"465 0 LINE",
"504 134 LINE",
"488 134 LINE",
"473 115 OFFCURVE",
"442 58 OFFCURVE",
"434 31 CURVE",
"157 31 LINE",
"288 672 LINE",
"316 676 OFFCURVE",
"344 682 OFFCURVE",
"370 690 CURVE",
"372 700 LINE",
"147 700 LINE",
"145 690 LINE",
"168 682 OFFCURVE",
"194 676 OFFCURVE",
"220 672 CURVE",
"88 27 LINE",
"51 23 OFFCURVE",
"26 17 OFFCURVE",
"6 10 CURVE",
"4 0 LINE"
);
},
{
closed = 1;
nodes = (
"380 -102 LINE",
"386 -71 LINE",
"85 -71 LINE",
"80 -102 LINE"
);
}
);
width = 558;
}
);
note = Llinebelow;
rightKerningGroup = L;
unicode = 1E3A;
},
{
glyphname = Lslash;
lastChange = "2015-10-26 06:20:54 +0000";
layers = (
{
layerId = "C5AF2DAB-186C-4D06-AB99-4303FDDF1A44";
name = "Light Italic";
paths = (
{
closed = 1;
nodes = (
"465 0 LINE",
"504 134 LINE",
"488 134 LINE",
"473 115 OFFCURVE",
"442 58 OFFCURVE",
"434 31 CURVE",
"157 31 LINE",
"288 672 LINE",
"316 676 OFFCURVE",
"344 682 OFFCURVE",
"370 690 CURVE",
"372 700 LINE",
"147 700 LINE",
"145 690 LINE",
"168 682 OFFCURVE",
"194 676 OFFCURVE",
"220 672 CURVE",
"88 27 LINE",
"51 23 OFFCURVE",
"26 17 OFFCURVE",
"6 10 CURVE",
"4 0 LINE"
);
},
{
closed = 1;
nodes = (
"434 384 LINE",
"443 425 LINE",
"56 290 LINE",
"47 249 LINE"
);
}
);
width = 558;
}
);
note = Lslash;
rightKerningGroup = L;
unicode = 0141;
},
{
glyphname = M;
lastChange = "2015-10-26 06:20:55 +0000";
layers = (
{
layerId = "C5AF2DAB-186C-4D06-AB99-4303FDDF1A44";
name = "Light Italic";
paths = (
{
closed = 1;
nodes = (
"197 0 LINE",
"198 9 LINE",
"175 17 OFFCURVE",
"150 23 OFFCURVE",
"124 27 CURVE",
"252 650 LINE",
"371 78 LINE",
"410 78 LINE",
"766 646 LINE",
"639 27 LINE",
"612 23 OFFCURVE",
"584 17 OFFCURVE",
"558 9 CURVE",
"557 0 LINE",
"780 0 LINE",
"781 9 LINE",
"758 17 OFFCURVE",
"732 23 OFFCURVE",
"708 26 CURVE",
"839 671 LINE",
"867 676 OFFCURVE",
"896 682 OFFCURVE",
"921 690 CURVE",
"923 700 LINE",
"763 700 LINE",
"417 144 LINE",
"307 700 LINE",
"145 700 LINE",
"143 690 LINE",
"165 682 OFFCURVE",
"192 676 OFFCURVE",
"217 672 CURVE",
"85 26 LINE",
"59 23 OFFCURVE",
"31 17 OFFCURVE",
"4 9 CURVE",
"3 0 LINE"
);
}
);
width = 860;
}
);
note = M;
unicode = 004D;
},
{
glyphname = Mdotbelow;
lastChange = "2015-10-26 06:20:55 +0000";
layers = (
{
layerId = "C5AF2DAB-186C-4D06-AB99-4303FDDF1A44";
name = "Light Italic";
paths = (
{
closed = 1;
nodes = (
"197 0 LINE",
"198 9 LINE",
"175 17 OFFCURVE",
"150 23 OFFCURVE",
"124 27 CURVE",
"252 650 LINE",
"371 78 LINE",
"410 78 LINE",
"766 646 LINE",
"639 27 LINE",
"612 23 OFFCURVE",
"584 17 OFFCURVE",
"558 9 CURVE",
"557 0 LINE",
"780 0 LINE",
"781 9 LINE",
"758 17 OFFCURVE",
"732 23 OFFCURVE",
"708 26 CURVE",
"839 671 LINE",
"867 676 OFFCURVE",
"896 682 OFFCURVE",
"921 690 CURVE",
"923 700 LINE",
"763 700 LINE",
"417 144 LINE",
"307 700 LINE",
"145 700 LINE",
"143 690 LINE",
"165 682 OFFCURVE",
"192 676 OFFCURVE",
"217 672 CURVE",
"85 26 LINE",
"59 23 OFFCURVE",
"31 17 OFFCURVE",
"4 9 CURVE",
"3 0 LINE"
);
},
{
closed = 1;
nodes = (
"387 -142 OFFCURVE",
"409 -121 OFFCURVE",
"409 -91 CURVE SMOOTH",
"409 -73 OFFCURVE",
"398 -61 OFFCURVE",
"379 -61 CURVE SMOOTH",
"354 -61 OFFCURVE",
"332 -82 OFFCURVE",
"332 -112 CURVE SMOOTH",
"332 -130 OFFCURVE",
"343 -142 OFFCURVE",
"362 -142 CURVE SMOOTH"
);
}
);
width = 860;
}
);
note = Mdotbelow;
unicode = 1E42;
},
{
glyphname = N;
lastChange = "2015-10-26 06:20:55 +0000";
layers = (
{
layerId = "C5AF2DAB-186C-4D06-AB99-4303FDDF1A44";
name = "Light Italic";
paths = (
{
closed = 1;
nodes = (
"197 0 LINE",
"198 9 LINE",
"175 17 OFFCURVE",
"150 23 OFFCURVE",
"124 27 CURVE",
"253 659 LINE",
"544 0 LINE",
"587 0 LINE",
"723 672 LINE",
"751 677 OFFCURVE",
"779 682 OFFCURVE",
"804 690 CURVE",
"806 700 LINE",
"613 700 LINE",
"612 690 LINE",
"634 682 OFFCURVE",
"660 677 OFFCURVE",
"686 673 CURVE",
"567 93 LINE",
"302 700 LINE",
"145 700 LINE",
"143 690 LINE",
"165 682 OFFCURVE",
"192 676 OFFCURVE",
"217 672 CURVE",
"85 26 LINE",
"59 23 OFFCURVE",
"31 17 OFFCURVE",
"4 9 CURVE",
"3 0 LINE"
);
}
);
width = 745;
}
);
note = N;
unicode = 004E;
},
{
glyphname = Nacute;
lastChange = "2015-10-26 06:20:55 +0000";
layers = (
{
layerId = "C5AF2DAB-186C-4D06-AB99-4303FDDF1A44";
name = "Light Italic";
paths = (
{
closed = 1;
nodes = (
"197 0 LINE",
"198 9 LINE",
"175 17 OFFCURVE",
"150 23 OFFCURVE",
"124 27 CURVE",
"253 659 LINE",
"544 0 LINE",
"587 0 LINE",
"723 672 LINE",
"751 677 OFFCURVE",
"779 682 OFFCURVE",
"804 690 CURVE",
"806 700 LINE",
"613 700 LINE",
"612 690 LINE",
"634 682 OFFCURVE",
"660 677 OFFCURVE",
"686 673 CURVE",
"567 93 LINE",
"302 700 LINE",
"145 700 LINE",
"143 690 LINE",
"165 682 OFFCURVE",
"192 676 OFFCURVE",
"217 672 CURVE",
"85 26 LINE",
"59 23 OFFCURVE",
"31 17 OFFCURVE",
"4 9 CURVE",
"3 0 LINE"
);
},
{
closed = 1;
nodes = (
"599 865 LINE SMOOTH",
"622 878 OFFCURVE",
"634 891 OFFCURVE",
"634 906 CURVE SMOOTH",
"634 916 OFFCURVE",
"627 924 OFFCURVE",
"613 924 CURVE SMOOTH",
"596 924 OFFCURVE",
"580 912 OFFCURVE",
"572 905 CURVE",
"444 805 LINE",
"453 786 LINE"
);
}
);
width = 745;
}
);
note = Nacute;
unicode = 0143;
},
{
glyphname = Ncaron;
lastChange = "2015-10-26 06:20:54 +0000";
layers = (
{
layerId = "C5AF2DAB-186C-4D06-AB99-4303FDDF1A44";
name = "Light Italic";
paths = (
{
closed = 1;
nodes = (
"197 0 LINE",
"198 9 LINE",
"175 17 OFFCURVE",
"150 23 OFFCURVE",
"124 27 CURVE",
"253 659 LINE",
"544 0 LINE",
"587 0 LINE",
"723 672 LINE",
"751 677 OFFCURVE",
"779 682 OFFCURVE",
"804 690 CURVE",
"806 700 LINE",
"613 700 LINE",
"612 690 LINE",
"634 682 OFFCURVE",
"660 677 OFFCURVE",
"686 673 CURVE",
"567 93 LINE",
"302 700 LINE",
"145 700 LINE",
"143 690 LINE",
"165 682 OFFCURVE",
"192 676 OFFCURVE",
"217 672 CURVE",
"85 26 LINE",
"59 23 OFFCURVE",
"31 17 OFFCURVE",
"4 9 CURVE",
"3 0 LINE"
);
},
{
closed = 1;
nodes = (
"508 786 LINE",
"546 829 OFFCURVE",
"607 876 OFFCURVE",
"650 903 CURVE",
"627 930 LINE",
"587 903 OFFCURVE",
"536 863 OFFCURVE",
"503 828 CURVE",
"498 828 LINE",
"479 863 OFFCURVE",
"445 903 OFFCURVE",
"415 930 CURVE",
"382 903 LINE",
"414 876 OFFCURVE",
"455 829 OFFCURVE",
"476 786 CURVE"
);
}
);
width = 745;
}
);
note = Ncaron;
unicode = 0147;
},
{
glyphname = Ncommaaccent;
lastChange = "2015-10-26 06:20:55 +0000";
layers = (
{
layerId = "C5AF2DAB-186C-4D06-AB99-4303FDDF1A44";
name = "Light Italic";
paths = (
{
closed = 1;
nodes = (
"197 0 LINE",
"198 9 LINE",
"175 17 OFFCURVE",
"150 23 OFFCURVE",
"124 27 CURVE",
"253 659 LINE",
"544 0 LINE",
"587 0 LINE",
"723 672 LINE",
"751 677 OFFCURVE",
"779 682 OFFCURVE",
"804 690 CURVE",
"806 700 LINE",
"613 700 LINE",
"612 690 LINE",
"634 682 OFFCURVE",
"660 677 OFFCURVE",
"686 673 CURVE",
"567 93 LINE",
"302 700 LINE",
"145 700 LINE",
"143 690 LINE",
"165 682 OFFCURVE",
"192 676 OFFCURVE",
"217 672 CURVE",
"85 26 LINE",
"59 23 OFFCURVE",
"31 17 OFFCURVE",
"4 9 CURVE",
"3 0 LINE"
);
},
{
closed = 1;
nodes = (
"314 -239 OFFCURVE",
"358 -154 OFFCURVE",
"358 -107 CURVE SMOOTH",
"358 -82 OFFCURVE",
"346 -65 OFFCURVE",
"316 -65 CURVE SMOOTH",
"290 -65 OFFCURVE",
"262 -82 OFFCURVE",
"262 -119 CURVE SMOOTH",
"262 -138 OFFCURVE",
"275 -151 OFFCURVE",
"295 -151 CURVE SMOOTH",
"299 -151 OFFCURVE",
"303 -150 OFFCURVE",
"307 -149 CURVE",
"296 -189 OFFCURVE",
"273 -230 OFFCURVE",
"243 -259 CURVE",
"264 -280 LINE"
);
}
);
width = 745;
}
);
note = Ncommaaccent;
unicode = 0145;
},
{
glyphname = Ndotaccent;
lastChange = "2015-10-26 06:20:54 +0000";
layers = (
{
layerId = "C5AF2DAB-186C-4D06-AB99-4303FDDF1A44";
name = "Light Italic";
paths = (
{
closed = 1;
nodes = (
"197 0 LINE",
"198 9 LINE",
"175 17 OFFCURVE",
"150 23 OFFCURVE",
"124 27 CURVE",
"253 659 LINE",
"544 0 LINE",
"587 0 LINE",
"723 672 LINE",
"751 677 OFFCURVE",
"779 682 OFFCURVE",
"804 690 CURVE",
"806 700 LINE",
"613 700 LINE",
"612 690 LINE",
"634 682 OFFCURVE",
"660 677 OFFCURVE",
"686 673 CURVE",
"567 93 LINE",
"302 700 LINE",
"145 700 LINE",
"143 690 LINE",
"165 682 OFFCURVE",
"192 676 OFFCURVE",
"217 672 CURVE",
"85 26 LINE",
"59 23 OFFCURVE",
"31 17 OFFCURVE",
"4 9 CURVE",
"3 0 LINE"
);
},
{
closed = 1;
nodes = (
"521 785 OFFCURVE",
"543 806 OFFCURVE",
"543 836 CURVE SMOOTH",
"543 855 OFFCURVE",
"532 866 OFFCURVE",
"514 866 CURVE SMOOTH",
"488 866 OFFCURVE",
"467 845 OFFCURVE",
"467 814 CURVE SMOOTH",
"467 796 OFFCURVE",
"477 785 OFFCURVE",
"496 785 CURVE SMOOTH"
);
}
);
width = 745;
}
);
note = Ndotaccent;
unicode = 1E44;
},
{
glyphname = Ndotbelow;
lastChange = "2015-10-26 06:20:54 +0000";
layers = (
{
layerId = "C5AF2DAB-186C-4D06-AB99-4303FDDF1A44";
name = "Light Italic";
paths = (
{
closed = 1;
nodes = (
"197 0 LINE",
"198 9 LINE",
"175 17 OFFCURVE",
"150 23 OFFCURVE",
"124 27 CURVE",
"253 659 LINE",
"544 0 LINE",
"587 0 LINE",
"723 672 LINE",
"751 677 OFFCURVE",
"779 682 OFFCURVE",
"804 690 CURVE",
"806 700 LINE",
"613 700 LINE",
"612 690 LINE",
"634 682 OFFCURVE",
"660 677 OFFCURVE",
"686 673 CURVE",
"567 93 LINE",
"302 700 LINE",
"145 700 LINE",
"143 690 LINE",
"165 682 OFFCURVE",
"192 676 OFFCURVE",
"217 672 CURVE",
"85 26 LINE",
"59 23 OFFCURVE",
"31 17 OFFCURVE",
"4 9 CURVE",
"3 0 LINE"
);
},
{
closed = 1;
nodes = (
"319 -142 OFFCURVE",
"341 -121 OFFCURVE",
"341 -91 CURVE SMOOTH",
"341 -73 OFFCURVE",
"330 -61 OFFCURVE",
"311 -61 CURVE SMOOTH",
"286 -61 OFFCURVE",
"264 -82 OFFCURVE",
"264 -112 CURVE SMOOTH",
"264 -130 OFFCURVE",
"275 -142 OFFCURVE",
"294 -142 CURVE SMOOTH"
);
}
);
width = 745;
}
);
note = uni1E46;
unicode = 1E46;
},
{
glyphname = Eng;
lastChange = "2015-10-26 06:20:55 +0000";
layers = (
{
layerId = "C5AF2DAB-186C-4D06-AB99-4303FDDF1A44";
name = "Light Italic";
paths = (
{
closed = 1;
nodes = (
"486 -248 OFFCURVE",
"545 -198 OFFCURVE",
"564 -109 CURVE SMOOTH",
"723 672 LINE",
"751 677 OFFCURVE",
"779 682 OFFCURVE",
"804 690 CURVE",
"806 700 LINE",
"613 700 LINE",
"612 690 LINE",
"634 682 OFFCURVE",
"660 677 OFFCURVE",
"686 673 CURVE",
"567 93 LINE",
"302 700 LINE",
"145 700 LINE",
"143 690 LINE",
"165 682 OFFCURVE",
"192 676 OFFCURVE",
"217 672 CURVE",
"85 26 LINE",
"59 23 OFFCURVE",
"31 17 OFFCURVE",
"4 9 CURVE",
"3 0 LINE",
"197 0 LINE",
"198 9 LINE",
"175 17 OFFCURVE",
"150 23 OFFCURVE",
"124 27 CURVE",
"253 659 LINE",
"549 0 LINE",
"527 -106 LINE SMOOTH",
"511 -185 OFFCURVE",
"454 -213 OFFCURVE",
"388 -213 CURVE SMOOTH",
"348 -213 OFFCURVE",
"318 -205 OFFCURVE",
"293 -192 CURVE",
"280 -212 LINE",
"309 -234 OFFCURVE",
"344 -248 OFFCURVE",
"396 -248 CURVE SMOOTH"
);
}
);
width = 745;
}
);
note = Eng;
unicode = 014A;
},
{
glyphname = Nlinebelow;
lastChange = "2015-10-26 06:20:54 +0000";
layers = (
{
layerId = "C5AF2DAB-186C-4D06-AB99-4303FDDF1A44";
name = "Light Italic";
paths = (
{
closed = 1;
nodes = (
"197 0 LINE",
"198 9 LINE",
"175 17 OFFCURVE",
"150 23 OFFCURVE",
"124 27 CURVE",
"253 659 LINE",
"544 0 LINE",
"587 0 LINE",
"723 672 LINE",
"751 677 OFFCURVE",
"779 682 OFFCURVE",
"804 690 CURVE",
"806 700 LINE",
"613 700 LINE",
"612 690 LINE",
"634 682 OFFCURVE",
"660 677 OFFCURVE",
"686 673 CURVE",
"567 93 LINE",
"302 700 LINE",
"145 700 LINE",
"143 690 LINE",
"165 682 OFFCURVE",
"192 676 OFFCURVE",
"217 672 CURVE",
"85 26 LINE",
"59 23 OFFCURVE",
"31 17 OFFCURVE",
"4 9 CURVE",
"3 0 LINE"
);
},
{
closed = 1;
nodes = (
"466 -102 LINE",
"471 -71 LINE",
"171 -71 LINE",
"165 -102 LINE"
);
}
);
width = 745;
}
);
note = Nlinebelow;
unicode = 1E48;
},
{
glyphname = Ntilde;
lastChange = "2015-10-26 06:20:54 +0000";
layers = (
{
layerId = "C5AF2DAB-186C-4D06-AB99-4303FDDF1A44";
name = "Light Italic";
paths = (
{
closed = 1;
nodes = (
"197 0 LINE",
"198 9 LINE",
"175 17 OFFCURVE",
"150 23 OFFCURVE",
"124 27 CURVE",
"253 659 LINE",
"544 0 LINE",
"587 0 LINE",
"723 672 LINE",
"751 677 OFFCURVE",
"779 682 OFFCURVE",
"804 690 CURVE",
"806 700 LINE",
"613 700 LINE",
"612 690 LINE",
"634 682 OFFCURVE",
"660 677 OFFCURVE",
"686 673 CURVE",
"567 93 LINE",
"302 700 LINE",
"145 700 LINE",
"143 690 LINE",
"165 682 OFFCURVE",
"192 676 OFFCURVE",
"217 672 CURVE",
"85 26 LINE",
"59 23 OFFCURVE",
"31 17 OFFCURVE",
"4 9 CURVE",
"3 0 LINE"
);
},
{
closed = 1;
nodes = (
"368 786 LINE",
"382 822 OFFCURVE",
"409 845 OFFCURVE",
"439 845 CURVE SMOOTH",
"478 845 OFFCURVE",
"517 787 OFFCURVE",
"563 787 CURVE SMOOTH",
"613 787 OFFCURVE",
"649 826 OFFCURVE",
"669 887 CURVE",
"646 887 LINE",
"628 845 OFFCURVE",
"602 825 OFFCURVE",
"572 825 CURVE SMOOTH",
"533 825 OFFCURVE",
"499 881 OFFCURVE",
"448 881 CURVE SMOOTH",
"403 881 OFFCURVE",
"365 852 OFFCURVE",
"343 786 CURVE"
);
}
);
width = 745;
}
);
note = Ntilde;
unicode = 00D1;
},
{
glyphname = O;
lastChange = "2015-10-26 06:20:55 +0000";
layers = (
{
layerId = "C5AF2DAB-186C-4D06-AB99-4303FDDF1A44";
name = "Light Italic";
paths = (
{
closed = 1;
nodes = (
"488 -10 OFFCURVE",
"620 127 OFFCURVE",
"666 350 CURVE SMOOTH",
"674 391 OFFCURVE",
"679 430 OFFCURVE",
"679 465 CURVE SMOOTH",
"679 619 OFFCURVE",
"599 710 OFFCURVE",
"441 710 CURVE SMOOTH",
"246 710 OFFCURVE",
"114 572 OFFCURVE",
"69 350 CURVE SMOOTH",
"60 308 OFFCURVE",
"56 269 OFFCURVE",
"56 233 CURVE SMOOTH",
"56 80 OFFCURVE",
"136 -10 OFFCURVE",
"294 -10 CURVE SMOOTH"
);
},
{
closed = 1;
nodes = (
"178 22 OFFCURVE",
"124 105 OFFCURVE",
"124 232 CURVE SMOOTH",
"124 268 OFFCURVE",
"129 308 OFFCURVE",
"137 350 CURVE SMOOTH",
"176 539 OFFCURVE",
"277 678 OFFCURVE",
"435 678 CURVE SMOOTH",
"557 678 OFFCURVE",
"611 594 OFFCURVE",
"611 467 CURVE SMOOTH",
"611 431 OFFCURVE",
"606 392 OFFCURVE",
"598 350 CURVE SMOOTH",
"560 160 OFFCURVE",
"457 22 OFFCURVE",
"300 22 CURVE SMOOTH"
);
}
);
width = 670;
}
);
leftKerningGroup = O;
note = O;
rightKerningGroup = O;
unicode = 004F;
},
{
glyphname = Oacute;
lastChange = "2015-10-26 06:20:54 +0000";
layers = (
{
layerId = "C5AF2DAB-186C-4D06-AB99-4303FDDF1A44";
name = "Light Italic";
paths = (
{
closed = 1;
nodes = (
"488 -10 OFFCURVE",
"620 127 OFFCURVE",
"666 350 CURVE SMOOTH",
"674 391 OFFCURVE",
"679 430 OFFCURVE",
"679 465 CURVE SMOOTH",
"679 619 OFFCURVE",
"599 710 OFFCURVE",
"441 710 CURVE SMOOTH",
"246 710 OFFCURVE",
"114 572 OFFCURVE",
"69 350 CURVE SMOOTH",
"60 308 OFFCURVE",
"56 269 OFFCURVE",
"56 233 CURVE SMOOTH",
"56 80 OFFCURVE",
"136 -10 OFFCURVE",
"294 -10 CURVE SMOOTH"
);
},
{
closed = 1;
nodes = (
"178 22 OFFCURVE",
"124 105 OFFCURVE",
"124 232 CURVE SMOOTH",
"124 268 OFFCURVE",
"129 308 OFFCURVE",
"137 350 CURVE SMOOTH",
"176 539 OFFCURVE",
"277 678 OFFCURVE",
"435 678 CURVE SMOOTH",
"557 678 OFFCURVE",
"611 594 OFFCURVE",
"611 467 CURVE SMOOTH",
"611 431 OFFCURVE",
"606 392 OFFCURVE",
"598 350 CURVE SMOOTH",
"560 160 OFFCURVE",
"457 22 OFFCURVE",
"300 22 CURVE SMOOTH"
);
},
{
closed = 1;
nodes = (
"532 865 LINE SMOOTH",
"555 878 OFFCURVE",
"566 892 OFFCURVE",
"566 907 CURVE SMOOTH",
"566 916 OFFCURVE",
"559 924 OFFCURVE",
"546 924 CURVE SMOOTH",
"529 924 OFFCURVE",
"513 912 OFFCURVE",
"505 905 CURVE",
"377 805 LINE",
"386 786 LINE"
);
}
);
width = 670;
}
);
leftKerningGroup = O;
note = Oacute;
rightKerningGroup = O;
unicode = 00D3;
},
{
glyphname = Obreve;
lastChange = "2015-10-26 06:20:54 +0000";
layers = (
{
layerId = "C5AF2DAB-186C-4D06-AB99-4303FDDF1A44";
name = "Light Italic";
paths = (
{
closed = 1;
nodes = (
"488 -10 OFFCURVE",
"620 127 OFFCURVE",
"666 350 CURVE SMOOTH",
"674 391 OFFCURVE",
"679 430 OFFCURVE",
"679 465 CURVE SMOOTH",
"679 619 OFFCURVE",
"599 710 OFFCURVE",
"441 710 CURVE SMOOTH",
"246 710 OFFCURVE",
"114 572 OFFCURVE",
"69 350 CURVE SMOOTH",
"60 308 OFFCURVE",
"56 269 OFFCURVE",
"56 233 CURVE SMOOTH",
"56 80 OFFCURVE",
"136 -10 OFFCURVE",
"294 -10 CURVE SMOOTH"
);
},
{
closed = 1;
nodes = (
"178 22 OFFCURVE",
"124 105 OFFCURVE",
"124 232 CURVE SMOOTH",
"124 268 OFFCURVE",
"129 308 OFFCURVE",
"137 350 CURVE SMOOTH",
"176 539 OFFCURVE",
"277 678 OFFCURVE",
"435 678 CURVE SMOOTH",
"557 678 OFFCURVE",
"611 594 OFFCURVE",
"611 467 CURVE SMOOTH",
"611 431 OFFCURVE",
"606 392 OFFCURVE",
"598 350 CURVE SMOOTH",
"560 160 OFFCURVE",
"457 22 OFFCURVE",
"300 22 CURVE SMOOTH"
);
},
{
closed = 1;
nodes = (
"531 774 OFFCURVE",
"593 811 OFFCURVE",
"619 894 CURVE",
"575 894 LINE",
"551 817 OFFCURVE",
"499 806 OFFCURVE",
"460 806 CURVE SMOOTH",
"423 806 OFFCURVE",
"380 815 OFFCURVE",
"380 878 CURVE SMOOTH",
"380 883 OFFCURVE",
"380 888 OFFCURVE",
"381 894 CURVE",
"337 894 LINE",
"336 888 OFFCURVE",
"336 882 OFFCURVE",
"336 877 CURVE SMOOTH",
"336 806 OFFCURVE",
"383 774 OFFCURVE",
"454 774 CURVE SMOOTH"
);
}
);
width = 670;
}
);
leftKerningGroup = O;
note = Obreve;
rightKerningGroup = O;
unicode = 014E;
},
{
glyphname = Ocaron;
lastChange = "2015-10-26 06:20:54 +0000";
layers = (
{
layerId = "C5AF2DAB-186C-4D06-AB99-4303FDDF1A44";
name = "Light Italic";
paths = (
{
closed = 1;
nodes = (
"488 -10 OFFCURVE",
"620 127 OFFCURVE",
"666 350 CURVE SMOOTH",
"674 391 OFFCURVE",
"679 430 OFFCURVE",
"679 465 CURVE SMOOTH",
"679 619 OFFCURVE",
"599 710 OFFCURVE",
"441 710 CURVE SMOOTH",
"246 710 OFFCURVE",
"114 572 OFFCURVE",
"69 350 CURVE SMOOTH",
"60 308 OFFCURVE",
"56 269 OFFCURVE",
"56 233 CURVE SMOOTH",
"56 80 OFFCURVE",
"136 -10 OFFCURVE",
"294 -10 CURVE SMOOTH"
);
},
{
closed = 1;
nodes = (
"178 22 OFFCURVE",
"124 105 OFFCURVE",
"124 232 CURVE SMOOTH",
"124 268 OFFCURVE",
"129 308 OFFCURVE",
"137 350 CURVE SMOOTH",
"176 539 OFFCURVE",
"277 678 OFFCURVE",
"435 678 CURVE SMOOTH",
"557 678 OFFCURVE",
"611 594 OFFCURVE",
"611 467 CURVE SMOOTH",
"611 431 OFFCURVE",
"606 392 OFFCURVE",
"598 350 CURVE SMOOTH",
"560 160 OFFCURVE",
"457 22 OFFCURVE",
"300 22 CURVE SMOOTH"
);
},
{
closed = 1;
nodes = (
"472 786 LINE",
"511 829 OFFCURVE",
"571 876 OFFCURVE",
"614 903 CURVE",
"591 930 LINE",
"551 903 OFFCURVE",
"500 863 OFFCURVE",
"468 828 CURVE",
"463 828 LINE",
"444 863 OFFCURVE",
"410 903 OFFCURVE",
"379 930 CURVE",
"347 903 LINE",
"378 876 OFFCURVE",
"420 829 OFFCURVE",
"441 786 CURVE"
);
}
);
width = 670;
}
);
leftKerningGroup = O;
note = Ocaron;
rightKerningGroup = O;
unicode = 01D1;
},
{
glyphname = Ocircumflex;
lastChange = "2015-10-26 06:20:55 +0000";
layers = (
{
layerId = "C5AF2DAB-186C-4D06-AB99-4303FDDF1A44";
name = "Light Italic";
paths = (
{
closed = 1;
nodes = (
"488 -10 OFFCURVE",
"620 127 OFFCURVE",
"666 350 CURVE SMOOTH",
"674 391 OFFCURVE",
"679 430 OFFCURVE",
"679 465 CURVE SMOOTH",
"679 619 OFFCURVE",
"599 710 OFFCURVE",
"441 710 CURVE SMOOTH",
"246 710 OFFCURVE",
"114 572 OFFCURVE",
"69 350 CURVE SMOOTH",
"60 308 OFFCURVE",
"56 269 OFFCURVE",
"56 233 CURVE SMOOTH",
"56 80 OFFCURVE",
"136 -10 OFFCURVE",
"294 -10 CURVE SMOOTH"
);
},
{
closed = 1;
nodes = (
"178 22 OFFCURVE",
"124 105 OFFCURVE",
"124 232 CURVE SMOOTH",
"124 268 OFFCURVE",
"129 308 OFFCURVE",
"137 350 CURVE SMOOTH",
"176 539 OFFCURVE",
"277 678 OFFCURVE",
"435 678 CURVE SMOOTH",
"557 678 OFFCURVE",
"611 594 OFFCURVE",
"611 467 CURVE SMOOTH",
"611 431 OFFCURVE",
"606 392 OFFCURVE",
"598 350 CURVE SMOOTH",
"560 160 OFFCURVE",
"457 22 OFFCURVE",
"300 22 CURVE SMOOTH"
);
},
{
closed = 1;
nodes = (
"389 806 OFFCURVE",
"439 846 OFFCURVE",
"472 881 CURVE",
"477 881 LINE",
"495 846 OFFCURVE",
"530 806 OFFCURVE",
"560 779 CURVE",
"593 806 LINE",
"562 833 OFFCURVE",
"520 880 OFFCURVE",
"499 922 CURVE",
"468 922 LINE",
"429 880 OFFCURVE",
"369 833 OFFCURVE",
"326 806 CURVE",
"348 779 LINE"
);
}
);
width = 670;
}
);
leftKerningGroup = O;
note = Ocircumflex;
rightKerningGroup = O;
unicode = 00D4;
},
{
glyphname = Ocircumflexacute;
lastChange = "2015-10-26 06:20:55 +0000";
layers = (
{
layerId = "C5AF2DAB-186C-4D06-AB99-4303FDDF1A44";
name = "Light Italic";
paths = (
{
closed = 1;
nodes = (
"488 -10 OFFCURVE",
"620 127 OFFCURVE",
"666 350 CURVE SMOOTH",
"674 391 OFFCURVE",
"679 430 OFFCURVE",
"679 465 CURVE SMOOTH",
"679 619 OFFCURVE",
"599 710 OFFCURVE",
"441 710 CURVE SMOOTH",
"246 710 OFFCURVE",
"114 572 OFFCURVE",
"69 350 CURVE SMOOTH",
"60 308 OFFCURVE",
"56 269 OFFCURVE",
"56 233 CURVE SMOOTH",
"56 80 OFFCURVE",
"136 -10 OFFCURVE",
"294 -10 CURVE SMOOTH"
);
},
{
closed = 1;
nodes = (
"178 22 OFFCURVE",
"124 105 OFFCURVE",
"124 232 CURVE SMOOTH",
"124 268 OFFCURVE",
"129 308 OFFCURVE",
"137 350 CURVE SMOOTH",
"176 539 OFFCURVE",
"277 678 OFFCURVE",
"435 678 CURVE SMOOTH",
"557 678 OFFCURVE",
"611 594 OFFCURVE",
"611 467 CURVE SMOOTH",
"611 431 OFFCURVE",
"606 392 OFFCURVE",
"598 350 CURVE SMOOTH",
"560 160 OFFCURVE",
"457 22 OFFCURVE",
"300 22 CURVE SMOOTH"
);
},
{
closed = 1;
nodes = (
"389 806 OFFCURVE",
"439 846 OFFCURVE",
"472 881 CURVE",
"477 881 LINE",
"496 846 OFFCURVE",
"530 806 OFFCURVE",
"560 779 CURVE",
"592 806 LINE",
"563 833 OFFCURVE",
"520 880 OFFCURVE",
"499 922 CURVE",
"468 922 LINE",
"429 880 OFFCURVE",
"369 833 OFFCURVE",
"325 806 CURVE",
"348 779 LINE"
);
},
{
closed = 1;
nodes = (
"703 955 LINE SMOOTH",
"729 968 OFFCURVE",
"743 985 OFFCURVE",
"746 998 CURVE",
"748 1010 OFFCURVE",
"741 1018 OFFCURVE",
"729 1018 CURVE SMOOTH",
"715 1018 OFFCURVE",
"697 1010 OFFCURVE",
"677 992 CURVE",
"576 910 LINE",
"584 893 LINE"
);
}
);
width = 670;
}
);
leftKerningGroup = O;
note = Ocircumflexacute;
rightKerningGroup = O;
unicode = 1ED0;
},
{
glyphname = Ocircumflexdotbelow;
lastChange = "2015-10-26 06:20:55 +0000";
layers = (
{
layerId = "C5AF2DAB-186C-4D06-AB99-4303FDDF1A44";
name = "Light Italic";
paths = (
{
closed = 1;
nodes = (
"488 -10 OFFCURVE",
"620 127 OFFCURVE",
"666 350 CURVE SMOOTH",
"674 391 OFFCURVE",
"679 430 OFFCURVE",
"679 465 CURVE SMOOTH",
"679 619 OFFCURVE",
"599 710 OFFCURVE",
"441 710 CURVE SMOOTH",
"246 710 OFFCURVE",
"114 572 OFFCURVE",
"69 350 CURVE SMOOTH",
"60 308 OFFCURVE",
"56 269 OFFCURVE",
"56 233 CURVE SMOOTH",
"56 80 OFFCURVE",
"136 -10 OFFCURVE",
"294 -10 CURVE SMOOTH"
);
},
{
closed = 1;
nodes = (
"292 -142 OFFCURVE",
"314 -121 OFFCURVE",
"314 -91 CURVE SMOOTH",
"314 -73 OFFCURVE",
"303 -61 OFFCURVE",
"284 -61 CURVE SMOOTH",
"259 -61 OFFCURVE",
"237 -82 OFFCURVE",
"237 -112 CURVE SMOOTH",
"237 -130 OFFCURVE",
"248 -142 OFFCURVE",
"267 -142 CURVE SMOOTH"
);
},
{
closed = 1;
nodes = (
"178 22 OFFCURVE",
"124 105 OFFCURVE",
"124 232 CURVE SMOOTH",
"124 268 OFFCURVE",
"129 308 OFFCURVE",
"137 350 CURVE SMOOTH",
"176 539 OFFCURVE",
"277 678 OFFCURVE",
"435 678 CURVE SMOOTH",
"557 678 OFFCURVE",
"611 594 OFFCURVE",
"611 467 CURVE SMOOTH",
"611 431 OFFCURVE",
"606 392 OFFCURVE",
"598 350 CURVE SMOOTH",
"560 160 OFFCURVE",
"457 22 OFFCURVE",
"300 22 CURVE SMOOTH"
);
},
{
closed = 1;
nodes = (
"389 806 OFFCURVE",
"439 846 OFFCURVE",
"472 881 CURVE",
"477 881 LINE",
"495 846 OFFCURVE",
"530 806 OFFCURVE",
"560 779 CURVE",
"593 806 LINE",
"562 833 OFFCURVE",
"520 880 OFFCURVE",
"499 922 CURVE",
"468 922 LINE",
"429 880 OFFCURVE",
"369 833 OFFCURVE",
"326 806 CURVE",
"348 779 LINE"
);
}
);
width = 670;
}
);
leftKerningGroup = O;
note = Ocircumflexdotbelow;
rightKerningGroup = O;
unicode = 1ED8;
},
{
glyphname = Ocircumflexgrave;
lastChange = "2015-10-26 06:20:54 +0000";
layers = (
{
layerId = "C5AF2DAB-186C-4D06-AB99-4303FDDF1A44";
name = "Light Italic";
paths = (
{
closed = 1;
nodes = (
"488 -10 OFFCURVE",
"620 127 OFFCURVE",
"666 350 CURVE SMOOTH",
"674 391 OFFCURVE",
"679 430 OFFCURVE",
"679 465 CURVE SMOOTH",
"679 619 OFFCURVE",
"599 710 OFFCURVE",
"441 710 CURVE SMOOTH",
"246 710 OFFCURVE",
"114 572 OFFCURVE",
"69 350 CURVE SMOOTH",
"60 308 OFFCURVE",
"56 269 OFFCURVE",
"56 233 CURVE SMOOTH",
"56 80 OFFCURVE",
"136 -10 OFFCURVE",
"294 -10 CURVE SMOOTH"
);
},
{
closed = 1;
nodes = (
"178 22 OFFCURVE",
"124 105 OFFCURVE",
"124 232 CURVE SMOOTH",
"124 268 OFFCURVE",
"129 308 OFFCURVE",
"137 350 CURVE SMOOTH",
"176 539 OFFCURVE",
"277 678 OFFCURVE",
"435 678 CURVE SMOOTH",
"557 678 OFFCURVE",
"611 594 OFFCURVE",
"611 467 CURVE SMOOTH",
"611 431 OFFCURVE",
"606 392 OFFCURVE",
"598 350 CURVE SMOOTH",
"560 160 OFFCURVE",
"457 22 OFFCURVE",
"300 22 CURVE SMOOTH"
);
},
{
closed = 1;
nodes = (
"395 910 LINE",
"339 977 LINE SMOOTH",
"322 998 OFFCURVE",
"302 1018 OFFCURVE",
"284 1018 CURVE SMOOTH",
"273 1018 OFFCURVE",
"262 1010 OFFCURVE",
"260 998 CURVE",
"256 980 OFFCURVE",
"277 960 OFFCURVE",
"302 943 CURVE SMOOTH",
"378 893 LINE"
);
},
{
closed = 1;
nodes = (
"389 806 OFFCURVE",
"439 846 OFFCURVE",
"472 881 CURVE",
"477 881 LINE",
"496 846 OFFCURVE",
"530 806 OFFCURVE",
"560 779 CURVE",
"592 806 LINE",
"563 833 OFFCURVE",
"520 880 OFFCURVE",
"499 922 CURVE",
"468 922 LINE",
"429 880 OFFCURVE",
"369 833 OFFCURVE",
"325 806 CURVE",
"348 779 LINE"
);
}
);
width = 670;
}
);
leftKerningGroup = O;
note = Ocircumflexgrave;
rightKerningGroup = O;
unicode = 1ED2;
},
{
glyphname = Ocircumflexhookabove;
lastChange = "2015-10-26 06:20:54 +0000";
layers = (
{
layerId = "C5AF2DAB-186C-4D06-AB99-4303FDDF1A44";
name = "Light Italic";
paths = (
{
closed = 1;
nodes = (
"488 -10 OFFCURVE",
"620 127 OFFCURVE",
"666 350 CURVE SMOOTH",
"674 391 OFFCURVE",
"679 430 OFFCURVE",
"679 465 CURVE SMOOTH",
"679 619 OFFCURVE",
"599 710 OFFCURVE",
"441 710 CURVE SMOOTH",
"246 710 OFFCURVE",
"114 572 OFFCURVE",
"69 350 CURVE SMOOTH",
"60 308 OFFCURVE",
"56 269 OFFCURVE",
"56 233 CURVE SMOOTH",
"56 80 OFFCURVE",
"136 -10 OFFCURVE",
"294 -10 CURVE SMOOTH"
);
},
{
closed = 1;
nodes = (
"178 22 OFFCURVE",
"124 105 OFFCURVE",
"124 232 CURVE SMOOTH",
"124 268 OFFCURVE",
"129 308 OFFCURVE",
"137 350 CURVE SMOOTH",
"176 539 OFFCURVE",
"277 678 OFFCURVE",
"435 678 CURVE SMOOTH",
"557 678 OFFCURVE",
"611 594 OFFCURVE",
"611 467 CURVE SMOOTH",
"611 431 OFFCURVE",
"606 392 OFFCURVE",
"598 350 CURVE SMOOTH",
"560 160 OFFCURVE",
"457 22 OFFCURVE",
"300 22 CURVE SMOOTH"
);
},
{
closed = 1;
nodes = (
"391 812 OFFCURVE",
"441 852 OFFCURVE",
"474 887 CURVE",
"479 887 LINE",
"498 852 OFFCURVE",
"532 812 OFFCURVE",
"562 785 CURVE",
"594 812 LINE",
"564 839 OFFCURVE",
"522 886 OFFCURVE",
"501 928 CURVE",
"469 928 LINE",
"431 886 OFFCURVE",
"371 839 OFFCURVE",
"327 812 CURVE",
"350 785 LINE"
);
},
{
closed = 1;
nodes = (
"597 885 LINE",
"616 936 LINE",
"660 941 OFFCURVE",
"687 959 OFFCURVE",
"695 997 CURVE SMOOTH",
"696 1002 OFFCURVE",
"697 1007 OFFCURVE",
"697 1012 CURVE SMOOTH",
"697 1045 OFFCURVE",
"666 1059 OFFCURVE",
"633 1059 CURVE SMOOTH",
"610 1059 OFFCURVE",
"588 1052 OFFCURVE",
"571 1045 CURVE",
"572 1022 LINE",
"589 1031 OFFCURVE",
"606 1034 OFFCURVE",
"619 1034 CURVE SMOOTH",
"651 1034 OFFCURVE",
"663 1019 OFFCURVE",
"659 998 CURVE SMOOTH",
"654 974 OFFCURVE",
"634 956 OFFCURVE",
"597 956 CURVE SMOOTH",
"582 956 LINE",
"571 885 LINE"
);
}
);
width = 670;
}
);
leftKerningGroup = O;
note = Ocircumflexhookabove;
rightKerningGroup = O;
unicode = 1ED4;
},
{
glyphname = Ocircumflextilde;
lastChange = "2015-10-26 06:20:55 +0000";
layers = (
{
layerId = "C5AF2DAB-186C-4D06-AB99-4303FDDF1A44";
name = "Light Italic";
paths = (
{
closed = 1;
nodes = (
"488 -10 OFFCURVE",
"620 127 OFFCURVE",
"666 350 CURVE SMOOTH",
"674 391 OFFCURVE",
"679 430 OFFCURVE",
"679 465 CURVE SMOOTH",
"679 619 OFFCURVE",
"599 710 OFFCURVE",
"441 710 CURVE SMOOTH",
"246 710 OFFCURVE",
"114 572 OFFCURVE",
"69 350 CURVE SMOOTH",
"60 308 OFFCURVE",
"56 269 OFFCURVE",
"56 233 CURVE SMOOTH",
"56 80 OFFCURVE",
"136 -10 OFFCURVE",
"294 -10 CURVE SMOOTH"
);
},
{
closed = 1;
nodes = (
"178 22 OFFCURVE",
"124 105 OFFCURVE",
"124 232 CURVE SMOOTH",
"124 268 OFFCURVE",
"129 308 OFFCURVE",
"137 350 CURVE SMOOTH",
"176 539 OFFCURVE",
"277 678 OFFCURVE",
"435 678 CURVE SMOOTH",
"557 678 OFFCURVE",
"611 594 OFFCURVE",
"611 467 CURVE SMOOTH",
"611 431 OFFCURVE",
"606 392 OFFCURVE",
"598 350 CURVE SMOOTH",
"560 160 OFFCURVE",
"457 22 OFFCURVE",
"300 22 CURVE SMOOTH"
);
},
{
closed = 1;
nodes = (
"389 806 OFFCURVE",
"439 846 OFFCURVE",
"472 881 CURVE",
"477 881 LINE",
"496 846 OFFCURVE",
"530 806 OFFCURVE",
"560 779 CURVE",
"592 806 LINE",
"563 833 OFFCURVE",
"520 880 OFFCURVE",
"499 922 CURVE",
"468 922 LINE",
"429 880 OFFCURVE",
"369 833 OFFCURVE",
"325 806 CURVE",
"348 779 LINE"
);
},
{
closed = 1;
nodes = (
"371 954 LINE",
"386 990 OFFCURVE",
"410 1013 OFFCURVE",
"437 1013 CURVE SMOOTH",
"472 1013 OFFCURVE",
"507 955 OFFCURVE",
"547 955 CURVE SMOOTH",
"592 955 OFFCURVE",
"625 994 OFFCURVE",
"645 1055 CURVE",
"623 1055 LINE",
"606 1013 OFFCURVE",
"584 993 OFFCURVE",
"557 993 CURVE SMOOTH",
"521 993 OFFCURVE",
"492 1049 OFFCURVE",
"446 1049 CURVE SMOOTH",
"406 1049 OFFCURVE",
"370 1020 OFFCURVE",
"348 954 CURVE"
);
}
);
width = 670;
}
);
leftKerningGroup = O;
note = Ocircumflextilde;
rightKerningGroup = O;
unicode = 1ED6;
},
{
glyphname = Odieresis;
lastChange = "2015-10-26 06:20:54 +0000";
layers = (
{
layerId = "C5AF2DAB-186C-4D06-AB99-4303FDDF1A44";
name = "Light Italic";
paths = (
{
closed = 1;
nodes = (
"488 -10 OFFCURVE",
"620 127 OFFCURVE",
"666 350 CURVE SMOOTH",
"674 391 OFFCURVE",
"679 430 OFFCURVE",
"679 465 CURVE SMOOTH",
"679 619 OFFCURVE",
"599 710 OFFCURVE",
"441 710 CURVE SMOOTH",
"246 710 OFFCURVE",
"114 572 OFFCURVE",
"69 350 CURVE SMOOTH",
"60 308 OFFCURVE",
"56 269 OFFCURVE",
"56 233 CURVE SMOOTH",
"56 80 OFFCURVE",
"136 -10 OFFCURVE",
"294 -10 CURVE SMOOTH"
);
},
{
closed = 1;
nodes = (
"178 22 OFFCURVE",
"124 105 OFFCURVE",
"124 232 CURVE SMOOTH",
"124 268 OFFCURVE",
"129 308 OFFCURVE",
"137 350 CURVE SMOOTH",
"176 539 OFFCURVE",
"277 678 OFFCURVE",
"435 678 CURVE SMOOTH",
"557 678 OFFCURVE",
"611 594 OFFCURVE",
"611 467 CURVE SMOOTH",
"611 431 OFFCURVE",
"606 392 OFFCURVE",
"598 350 CURVE SMOOTH",
"560 160 OFFCURVE",
"457 22 OFFCURVE",
"300 22 CURVE SMOOTH"
);
},
{
closed = 1;
nodes = (
"377 785 OFFCURVE",
"399 806 OFFCURVE",
"399 836 CURVE SMOOTH",
"399 855 OFFCURVE",
"388 866 OFFCURVE",
"370 866 CURVE SMOOTH",
"345 866 OFFCURVE",
"323 846 OFFCURVE",
"323 816 CURVE SMOOTH",
"323 797 OFFCURVE",
"334 785 OFFCURVE",
"352 785 CURVE SMOOTH"
);
},
{
closed = 1;
nodes = (
"582 785 OFFCURVE",
"604 806 OFFCURVE",
"604 836 CURVE SMOOTH",
"604 854 OFFCURVE",
"593 866 OFFCURVE",
"574 866 CURVE SMOOTH",
"549 866 OFFCURVE",
"527 845 OFFCURVE",
"527 815 CURVE SMOOTH",
"527 797 OFFCURVE",
"538 785 OFFCURVE",
"557 785 CURVE SMOOTH"
);
}
);
width = 670;
}
);
leftKerningGroup = O;
note = Odieresis;
rightKerningGroup = O;
unicode = 00D6;
},
{
glyphname = Odotbelow;
lastChange = "2015-10-26 06:20:55 +0000";
layers = (
{
layerId = "C5AF2DAB-186C-4D06-AB99-4303FDDF1A44";
name = "Light Italic";
paths = (
{
closed = 1;
nodes = (
"488 -10 OFFCURVE",
"620 127 OFFCURVE",
"666 350 CURVE SMOOTH",
"674 391 OFFCURVE",
"679 430 OFFCURVE",
"679 465 CURVE SMOOTH",
"679 619 OFFCURVE",
"599 710 OFFCURVE",
"441 710 CURVE SMOOTH",
"246 710 OFFCURVE",
"114 572 OFFCURVE",
"69 350 CURVE SMOOTH",
"60 308 OFFCURVE",
"56 269 OFFCURVE",
"56 233 CURVE SMOOTH",
"56 80 OFFCURVE",
"136 -10 OFFCURVE",
"294 -10 CURVE SMOOTH"
);
},
{
closed = 1;
nodes = (
"292 -142 OFFCURVE",
"314 -121 OFFCURVE",
"314 -91 CURVE SMOOTH",
"314 -73 OFFCURVE",
"303 -61 OFFCURVE",
"284 -61 CURVE SMOOTH",
"259 -61 OFFCURVE",
"237 -82 OFFCURVE",
"237 -112 CURVE SMOOTH",
"237 -130 OFFCURVE",
"248 -142 OFFCURVE",
"267 -142 CURVE SMOOTH"
);
},
{
closed = 1;
nodes = (
"178 22 OFFCURVE",
"124 105 OFFCURVE",
"124 232 CURVE SMOOTH",
"124 268 OFFCURVE",
"129 308 OFFCURVE",
"137 350 CURVE SMOOTH",
"176 539 OFFCURVE",
"277 678 OFFCURVE",
"435 678 CURVE SMOOTH",
"557 678 OFFCURVE",
"611 594 OFFCURVE",
"611 467 CURVE SMOOTH",
"611 431 OFFCURVE",
"606 392 OFFCURVE",
"598 350 CURVE SMOOTH",
"560 160 OFFCURVE",
"457 22 OFFCURVE",
"300 22 CURVE SMOOTH"
);
}
);
width = 670;
}
);
leftKerningGroup = O;
note = Odotbelow;
rightKerningGroup = O;
unicode = 1ECC;
},
{
glyphname = Ograve;
lastChange = "2015-10-26 06:20:54 +0000";
layers = (
{
layerId = "C5AF2DAB-186C-4D06-AB99-4303FDDF1A44";
name = "Light Italic";
paths = (
{
closed = 1;
nodes = (
"488 -10 OFFCURVE",
"620 127 OFFCURVE",
"666 350 CURVE SMOOTH",
"674 391 OFFCURVE",
"679 430 OFFCURVE",
"679 465 CURVE SMOOTH",
"679 619 OFFCURVE",
"599 710 OFFCURVE",
"441 710 CURVE SMOOTH",
"246 710 OFFCURVE",
"114 572 OFFCURVE",
"69 350 CURVE SMOOTH",
"60 308 OFFCURVE",
"56 269 OFFCURVE",
"56 233 CURVE SMOOTH",
"56 80 OFFCURVE",
"136 -10 OFFCURVE",
"294 -10 CURVE SMOOTH"
);
},
{
closed = 1;
nodes = (
"178 22 OFFCURVE",
"124 105 OFFCURVE",
"124 232 CURVE SMOOTH",
"124 268 OFFCURVE",
"129 308 OFFCURVE",
"137 350 CURVE SMOOTH",
"176 539 OFFCURVE",
"277 678 OFFCURVE",
"435 678 CURVE SMOOTH",
"557 678 OFFCURVE",
"611 594 OFFCURVE",
"611 467 CURVE SMOOTH",
"611 431 OFFCURVE",
"606 392 OFFCURVE",
"598 350 CURVE SMOOTH",
"560 160 OFFCURVE",
"457 22 OFFCURVE",
"300 22 CURVE SMOOTH"
);
},
{
closed = 1;
nodes = (
"542 805 LINE",
"454 905 LINE",
"448 914 OFFCURVE",
"438 924 OFFCURVE",
"421 924 CURVE SMOOTH",
"404 924 OFFCURVE",
"391 909 OFFCURVE",
"391 895 CURVE SMOOTH",
"391 884 OFFCURVE",
"398 874 OFFCURVE",
"411 865 CURVE",
"526 786 LINE"
);
}
);
width = 670;
}
);
leftKerningGroup = O;
note = Ograve;
rightKerningGroup = O;
unicode = 00D2;
},
{
glyphname = Ohookabove;
lastChange = "2015-10-26 06:20:55 +0000";
layers = (
{
layerId = "C5AF2DAB-186C-4D06-AB99-4303FDDF1A44";
name = "Light Italic";
paths = (
{
closed = 1;
nodes = (
"488 -10 OFFCURVE",
"620 127 OFFCURVE",
"666 350 CURVE SMOOTH",
"674 391 OFFCURVE",
"679 430 OFFCURVE",
"679 465 CURVE SMOOTH",
"679 619 OFFCURVE",
"599 710 OFFCURVE",
"441 710 CURVE SMOOTH",
"246 710 OFFCURVE",
"114 572 OFFCURVE",
"69 350 CURVE SMOOTH",
"60 308 OFFCURVE",
"56 269 OFFCURVE",
"56 233 CURVE SMOOTH",
"56 80 OFFCURVE",
"136 -10 OFFCURVE",
"294 -10 CURVE SMOOTH"
);
},
{
closed = 1;
nodes = (
"178 22 OFFCURVE",
"124 105 OFFCURVE",
"124 232 CURVE SMOOTH",
"124 268 OFFCURVE",
"129 308 OFFCURVE",
"137 350 CURVE SMOOTH",
"176 539 OFFCURVE",
"277 678 OFFCURVE",
"435 678 CURVE SMOOTH",
"557 678 OFFCURVE",
"611 594 OFFCURVE",
"611 467 CURVE SMOOTH",
"611 431 OFFCURVE",
"606 392 OFFCURVE",
"598 350 CURVE SMOOTH",
"560 160 OFFCURVE",
"457 22 OFFCURVE",
"300 22 CURVE SMOOTH"
);
},
{
closed = 1;
nodes = (
"467 779 LINE",
"490 841 LINE",
"540 846 OFFCURVE",
"573 871 OFFCURVE",
"582 914 CURVE SMOOTH",
"583 920 OFFCURVE",
"584 925 OFFCURVE",
"584 930 CURVE SMOOTH",
"584 971 OFFCURVE",
"550 989 OFFCURVE",
"510 989 CURVE SMOOTH",
"482 989 OFFCURVE",
"454 981 OFFCURVE",
"435 972 CURVE",
"436 945 LINE",
"458 956 OFFCURVE",
"479 961 OFFCURVE",
"494 961 CURVE SMOOTH",
"527 961 OFFCURVE",
"541 946 OFFCURVE",
"541 926 CURVE SMOOTH",
"541 892 OFFCURVE",
"516 864 OFFCURVE",
"468 864 CURVE SMOOTH",
"449 864 LINE",
"437 779 LINE"
);
}
);
width = 670;
}
);
leftKerningGroup = O;
note = Ohookabove;
rightKerningGroup = O;
unicode = 1ECE;
},
{
glyphname = Ohorn;
lastChange = "2015-10-26 06:20:55 +0000";
layers = (
{
layerId = "C5AF2DAB-186C-4D06-AB99-4303FDDF1A44";
name = "Light Italic";
paths = (
{
closed = 1;
nodes = (
"488 -10 OFFCURVE",
"620 127 OFFCURVE",
"666 350 CURVE SMOOTH",
"674 391 OFFCURVE",
"679 430 OFFCURVE",
"679 465 CURVE SMOOTH",
"679 619 OFFCURVE",
"599 710 OFFCURVE",
"441 710 CURVE SMOOTH",
"246 710 OFFCURVE",
"114 572 OFFCURVE",
"69 350 CURVE SMOOTH",
"60 308 OFFCURVE",
"56 269 OFFCURVE",
"56 233 CURVE SMOOTH",
"56 80 OFFCURVE",
"136 -10 OFFCURVE",
"294 -10 CURVE SMOOTH"
);
},
{
closed = 1;
nodes = (
"178 22 OFFCURVE",
"124 105 OFFCURVE",
"124 232 CURVE SMOOTH",
"124 268 OFFCURVE",
"129 308 OFFCURVE",
"137 350 CURVE SMOOTH",
"176 539 OFFCURVE",
"277 678 OFFCURVE",
"435 678 CURVE SMOOTH",
"557 678 OFFCURVE",
"611 594 OFFCURVE",
"611 467 CURVE SMOOTH",
"611 431 OFFCURVE",
"606 392 OFFCURVE",
"598 350 CURVE SMOOTH",
"560 160 OFFCURVE",
"457 22 OFFCURVE",
"300 22 CURVE SMOOTH"
);
},
{
closed = 1;
nodes = (
"736 567 OFFCURVE",
"774 626 OFFCURVE",
"782 669 CURVE SMOOTH",
"784 677 OFFCURVE",
"785 685 OFFCURVE",
"785 693 CURVE SMOOTH",
"785 716 OFFCURVE",
"775 734 OFFCURVE",
"743 734 CURVE SMOOTH",
"706 734 OFFCURVE",
"688 705 OFFCURVE",
"688 678 CURVE SMOOTH",
"688 658 OFFCURVE",
"700 647 OFFCURVE",
"720 647 CURVE SMOOTH",
"726 647 OFFCURVE",
"733 648 OFFCURVE",
"740 652 CURVE",
"727 606 OFFCURVE",
"684 566 OFFCURVE",
"651 545 CURVE",
"662 522 LINE"
);
}
);
width = 684;
}
);
leftKerningGroup = O;
note = Ohorn;
rightKerningGroup = O;
unicode = 01A0;
},
{
glyphname = Ohornacute;
lastChange = "2015-10-26 06:20:55 +0000";
layers = (
{
layerId = "C5AF2DAB-186C-4D06-AB99-4303FDDF1A44";
name = "Light Italic";
paths = (
{
closed = 1;
nodes = (
"488 -10 OFFCURVE",
"620 127 OFFCURVE",
"666 350 CURVE SMOOTH",
"674 391 OFFCURVE",
"679 430 OFFCURVE",
"679 465 CURVE SMOOTH",
"679 619 OFFCURVE",
"599 710 OFFCURVE",
"441 710 CURVE SMOOTH",
"246 710 OFFCURVE",
"114 572 OFFCURVE",
"69 350 CURVE SMOOTH",
"60 308 OFFCURVE",
"56 269 OFFCURVE",
"56 233 CURVE SMOOTH",
"56 80 OFFCURVE",
"136 -10 OFFCURVE",
"294 -10 CURVE SMOOTH"
);
},
{
closed = 1;
nodes = (
"178 22 OFFCURVE",
"124 105 OFFCURVE",
"124 232 CURVE SMOOTH",
"124 268 OFFCURVE",
"129 308 OFFCURVE",
"137 350 CURVE SMOOTH",
"176 539 OFFCURVE",
"277 678 OFFCURVE",
"435 678 CURVE SMOOTH",
"557 678 OFFCURVE",
"611 594 OFFCURVE",
"611 467 CURVE SMOOTH",
"611 431 OFFCURVE",
"606 392 OFFCURVE",
"598 350 CURVE SMOOTH",
"560 160 OFFCURVE",
"457 22 OFFCURVE",
"300 22 CURVE SMOOTH"
);
},
{
closed = 1;
nodes = (
"533 864 LINE SMOOTH",
"556 877 OFFCURVE",
"567 891 OFFCURVE",
"567 906 CURVE SMOOTH",
"567 915 OFFCURVE",
"560 923 OFFCURVE",
"547 923 CURVE SMOOTH",
"530 923 OFFCURVE",
"514 911 OFFCURVE",
"506 904 CURVE",
"378 804 LINE",
"387 785 LINE"
);
},
{
closed = 1;
nodes = (
"736 567 OFFCURVE",
"774 626 OFFCURVE",
"782 669 CURVE SMOOTH",
"784 677 OFFCURVE",
"785 685 OFFCURVE",
"785 693 CURVE SMOOTH",
"785 716 OFFCURVE",
"775 734 OFFCURVE",
"743 734 CURVE SMOOTH",
"706 734 OFFCURVE",
"688 705 OFFCURVE",
"688 678 CURVE SMOOTH",
"688 658 OFFCURVE",
"700 647 OFFCURVE",
"720 647 CURVE SMOOTH",
"726 647 OFFCURVE",
"733 648 OFFCURVE",
"740 652 CURVE",
"727 606 OFFCURVE",
"684 566 OFFCURVE",
"651 545 CURVE",
"662 522 LINE"
);
}
);
width = 684;
}
);
leftKerningGroup = O;
note = Ohornacute;
rightKerningGroup = O;
unicode = 1EDA;
},
{
glyphname = Ohorndotbelow;
lastChange = "2015-10-26 06:20:55 +0000";
layers = (
{
layerId = "C5AF2DAB-186C-4D06-AB99-4303FDDF1A44";
name = "Light Italic";
paths = (
{
closed = 1;
nodes = (
"488 -10 OFFCURVE",
"620 127 OFFCURVE",
"666 350 CURVE SMOOTH",
"674 391 OFFCURVE",
"679 430 OFFCURVE",
"679 465 CURVE SMOOTH",
"679 619 OFFCURVE",
"599 710 OFFCURVE",
"441 710 CURVE SMOOTH",
"246 710 OFFCURVE",
"114 572 OFFCURVE",
"69 350 CURVE SMOOTH",
"60 308 OFFCURVE",
"56 269 OFFCURVE",
"56 233 CURVE SMOOTH",
"56 80 OFFCURVE",
"136 -10 OFFCURVE",
"294 -10 CURVE SMOOTH"
);
},
{
closed = 1;
nodes = (
"292 -142 OFFCURVE",
"314 -121 OFFCURVE",
"314 -91 CURVE SMOOTH",
"314 -73 OFFCURVE",
"303 -61 OFFCURVE",
"284 -61 CURVE SMOOTH",
"259 -61 OFFCURVE",
"237 -82 OFFCURVE",
"237 -112 CURVE SMOOTH",
"237 -130 OFFCURVE",
"248 -142 OFFCURVE",
"267 -142 CURVE SMOOTH"
);
},
{
closed = 1;
nodes = (
"178 22 OFFCURVE",
"124 105 OFFCURVE",
"124 232 CURVE SMOOTH",
"124 268 OFFCURVE",
"129 308 OFFCURVE",
"137 350 CURVE SMOOTH",
"176 539 OFFCURVE",
"277 678 OFFCURVE",
"435 678 CURVE SMOOTH",
"557 678 OFFCURVE",
"611 594 OFFCURVE",
"611 467 CURVE SMOOTH",
"611 431 OFFCURVE",
"606 392 OFFCURVE",
"598 350 CURVE SMOOTH",
"560 160 OFFCURVE",
"457 22 OFFCURVE",
"300 22 CURVE SMOOTH"
);
},
{
closed = 1;
nodes = (
"736 567 OFFCURVE",
"774 626 OFFCURVE",
"782 669 CURVE SMOOTH",
"784 677 OFFCURVE",
"785 685 OFFCURVE",
"785 693 CURVE SMOOTH",
"785 716 OFFCURVE",
"775 734 OFFCURVE",
"743 734 CURVE SMOOTH",
"706 734 OFFCURVE",
"688 705 OFFCURVE",
"688 678 CURVE SMOOTH",
"688 658 OFFCURVE",
"700 647 OFFCURVE",
"720 647 CURVE SMOOTH",
"726 647 OFFCURVE",
"733 648 OFFCURVE",
"740 652 CURVE",
"727 606 OFFCURVE",
"684 566 OFFCURVE",
"651 545 CURVE",
"662 522 LINE"
);
}
);
width = 684;
}
);
leftKerningGroup = O;
note = Ohorndotbelow;
rightKerningGroup = O;
unicode = 1EE2;
},
{
glyphname = Ohorngrave;
lastChange = "2015-10-26 06:20:55 +0000";
layers = (
{
layerId = "C5AF2DAB-186C-4D06-AB99-4303FDDF1A44";
name = "Light Italic";
paths = (
{
closed = 1;
nodes = (
"488 -10 OFFCURVE",
"620 127 OFFCURVE",
"666 350 CURVE SMOOTH",
"674 391 OFFCURVE",
"679 430 OFFCURVE",
"679 465 CURVE SMOOTH",
"679 619 OFFCURVE",
"599 710 OFFCURVE",
"441 710 CURVE SMOOTH",
"246 710 OFFCURVE",
"114 572 OFFCURVE",
"69 350 CURVE SMOOTH",
"60 308 OFFCURVE",
"56 269 OFFCURVE",
"56 233 CURVE SMOOTH",
"56 80 OFFCURVE",
"136 -10 OFFCURVE",
"294 -10 CURVE SMOOTH"
);
},
{
closed = 1;
nodes = (
"178 22 OFFCURVE",
"124 105 OFFCURVE",
"124 232 CURVE SMOOTH",
"124 268 OFFCURVE",
"129 308 OFFCURVE",
"137 350 CURVE SMOOTH",
"176 539 OFFCURVE",
"277 678 OFFCURVE",
"435 678 CURVE SMOOTH",
"557 678 OFFCURVE",
"611 594 OFFCURVE",
"611 467 CURVE SMOOTH",
"611 431 OFFCURVE",
"606 392 OFFCURVE",
"598 350 CURVE SMOOTH",
"560 160 OFFCURVE",
"457 22 OFFCURVE",
"300 22 CURVE SMOOTH"
);
},
{
closed = 1;
nodes = (
"543 804 LINE",
"455 904 LINE",
"449 913 OFFCURVE",
"439 923 OFFCURVE",
"422 923 CURVE SMOOTH",
"405 923 OFFCURVE",
"392 908 OFFCURVE",
"392 894 CURVE SMOOTH",
"392 883 OFFCURVE",
"399 873 OFFCURVE",
"412 864 CURVE",
"527 785 LINE"
);
},
{
closed = 1;
nodes = (
"736 567 OFFCURVE",
"774 626 OFFCURVE",
"782 669 CURVE SMOOTH",
"784 677 OFFCURVE",
"785 685 OFFCURVE",
"785 693 CURVE SMOOTH",
"785 716 OFFCURVE",
"775 734 OFFCURVE",
"743 734 CURVE SMOOTH",
"706 734 OFFCURVE",
"688 705 OFFCURVE",
"688 678 CURVE SMOOTH",
"688 658 OFFCURVE",
"700 647 OFFCURVE",
"720 647 CURVE SMOOTH",
"726 647 OFFCURVE",
"733 648 OFFCURVE",
"740 652 CURVE",
"727 606 OFFCURVE",
"684 566 OFFCURVE",
"651 545 CURVE",
"662 522 LINE"
);
}
);
width = 684;
}
);
leftKerningGroup = O;
note = Ohorngrave;
rightKerningGroup = O;
unicode = 1EDC;
},
{
glyphname = Ohornhookabove;
lastChange = "2015-10-26 06:20:55 +0000";
layers = (
{
layerId = "C5AF2DAB-186C-4D06-AB99-4303FDDF1A44";
name = "Light Italic";
paths = (
{
closed = 1;
nodes = (
"488 -10 OFFCURVE",
"620 127 OFFCURVE",
"666 350 CURVE SMOOTH",
"674 391 OFFCURVE",
"679 430 OFFCURVE",
"679 465 CURVE SMOOTH",
"679 619 OFFCURVE",
"599 710 OFFCURVE",
"441 710 CURVE SMOOTH",
"246 710 OFFCURVE",
"114 572 OFFCURVE",
"69 350 CURVE SMOOTH",
"60 308 OFFCURVE",
"56 269 OFFCURVE",
"56 233 CURVE SMOOTH",
"56 80 OFFCURVE",
"136 -10 OFFCURVE",
"294 -10 CURVE SMOOTH"
);
},
{
closed = 1;
nodes = (
"178 22 OFFCURVE",
"124 105 OFFCURVE",
"124 232 CURVE SMOOTH",
"124 268 OFFCURVE",
"129 308 OFFCURVE",
"137 350 CURVE SMOOTH",
"176 539 OFFCURVE",
"277 678 OFFCURVE",
"435 678 CURVE SMOOTH",
"557 678 OFFCURVE",
"611 594 OFFCURVE",
"611 467 CURVE SMOOTH",
"611 431 OFFCURVE",
"606 392 OFFCURVE",
"598 350 CURVE SMOOTH",
"560 160 OFFCURVE",
"457 22 OFFCURVE",
"300 22 CURVE SMOOTH"
);
},
{
closed = 1;
nodes = (
"736 567 OFFCURVE",
"774 626 OFFCURVE",
"782 669 CURVE SMOOTH",
"784 677 OFFCURVE",
"785 685 OFFCURVE",
"785 693 CURVE SMOOTH",
"785 716 OFFCURVE",
"775 734 OFFCURVE",
"743 734 CURVE SMOOTH",
"706 734 OFFCURVE",
"688 705 OFFCURVE",
"688 678 CURVE SMOOTH",
"688 658 OFFCURVE",
"700 647 OFFCURVE",
"720 647 CURVE SMOOTH",
"726 647 OFFCURVE",
"733 648 OFFCURVE",
"740 652 CURVE",
"727 606 OFFCURVE",
"684 566 OFFCURVE",
"651 545 CURVE",
"662 522 LINE"
);
},
{
closed = 1;
nodes = (
"466 778 LINE",
"489 840 LINE",
"539 845 OFFCURVE",
"572 870 OFFCURVE",
"581 913 CURVE SMOOTH",
"582 919 OFFCURVE",
"583 924 OFFCURVE",
"583 929 CURVE SMOOTH",
"583 970 OFFCURVE",
"549 988 OFFCURVE",
"509 988 CURVE SMOOTH",
"481 988 OFFCURVE",
"453 980 OFFCURVE",
"434 971 CURVE",
"435 944 LINE",
"457 955 OFFCURVE",
"478 960 OFFCURVE",
"493 960 CURVE SMOOTH",
"527 960 OFFCURVE",
"541 944 OFFCURVE",
"541 923 CURVE SMOOTH",
"541 921 OFFCURVE",
"540 918 OFFCURVE",
"540 915 CURVE SMOOTH",
"534 886 OFFCURVE",
"510 863 OFFCURVE",
"468 863 CURVE SMOOTH",
"448 863 LINE",
"436 778 LINE"
);
}
);
width = 684;
}
);
leftKerningGroup = O;
note = Ohornhookabove;
rightKerningGroup = O;
unicode = 1EDE;
},
{
glyphname = Ohorntilde;
lastChange = "2015-10-26 06:20:54 +0000";
layers = (
{
layerId = "C5AF2DAB-186C-4D06-AB99-4303FDDF1A44";
name = "Light Italic";
paths = (
{
closed = 1;
nodes = (
"488 -10 OFFCURVE",
"620 127 OFFCURVE",
"666 350 CURVE SMOOTH",
"674 391 OFFCURVE",
"679 430 OFFCURVE",
"679 465 CURVE SMOOTH",
"679 619 OFFCURVE",
"599 710 OFFCURVE",
"441 710 CURVE SMOOTH",
"246 710 OFFCURVE",
"114 572 OFFCURVE",
"69 350 CURVE SMOOTH",
"60 308 OFFCURVE",
"56 269 OFFCURVE",
"56 233 CURVE SMOOTH",
"56 80 OFFCURVE",
"136 -10 OFFCURVE",
"294 -10 CURVE SMOOTH"
);
},
{
closed = 1;
nodes = (
"178 22 OFFCURVE",
"124 105 OFFCURVE",
"124 232 CURVE SMOOTH",
"124 268 OFFCURVE",
"129 308 OFFCURVE",
"137 350 CURVE SMOOTH",
"176 539 OFFCURVE",
"277 678 OFFCURVE",
"435 678 CURVE SMOOTH",
"557 678 OFFCURVE",
"611 594 OFFCURVE",
"611 467 CURVE SMOOTH",
"611 431 OFFCURVE",
"606 392 OFFCURVE",
"598 350 CURVE SMOOTH",
"560 160 OFFCURVE",
"457 22 OFFCURVE",
"300 22 CURVE SMOOTH"
);
},
{
closed = 1;
nodes = (
"328 786 LINE",
"343 822 OFFCURVE",
"370 845 OFFCURVE",
"399 845 CURVE SMOOTH",
"439 845 OFFCURVE",
"478 787 OFFCURVE",
"523 787 CURVE SMOOTH",
"574 787 OFFCURVE",
"610 826 OFFCURVE",
"630 887 CURVE",
"607 887 LINE",
"588 845 OFFCURVE",
"563 825 OFFCURVE",
"533 825 CURVE SMOOTH",
"493 825 OFFCURVE",
"460 881 OFFCURVE",
"409 881 CURVE SMOOTH",
"364 881 OFFCURVE",
"325 852 OFFCURVE",
"303 786 CURVE"
);
},
{
closed = 1;
nodes = (
"736 567 OFFCURVE",
"774 626 OFFCURVE",
"782 669 CURVE SMOOTH",
"784 677 OFFCURVE",
"785 685 OFFCURVE",
"785 693 CURVE SMOOTH",
"785 716 OFFCURVE",
"775 734 OFFCURVE",
"743 734 CURVE SMOOTH",
"706 734 OFFCURVE",
"688 705 OFFCURVE",
"688 678 CURVE SMOOTH",
"688 658 OFFCURVE",
"700 647 OFFCURVE",
"720 647 CURVE SMOOTH",
"726 647 OFFCURVE",
"733 648 OFFCURVE",
"740 652 CURVE",
"727 606 OFFCURVE",
"684 566 OFFCURVE",
"651 545 CURVE",
"662 522 LINE"
);
}
);
width = 684;
}
);
leftKerningGroup = O;
note = Ohorntilde;
rightKerningGroup = O;
unicode = 1EE0;
},
{
glyphname = Ohungarumlaut;
lastChange = "2015-10-26 06:20:55 +0000";
layers = (
{
layerId = "C5AF2DAB-186C-4D06-AB99-4303FDDF1A44";
name = "Light Italic";
paths = (
{
closed = 1;
nodes = (
"488 -10 OFFCURVE",
"620 127 OFFCURVE",
"666 350 CURVE SMOOTH",
"674 391 OFFCURVE",
"679 430 OFFCURVE",
"679 465 CURVE SMOOTH",
"679 619 OFFCURVE",
"599 710 OFFCURVE",
"441 710 CURVE SMOOTH",
"246 710 OFFCURVE",
"114 572 OFFCURVE",
"69 350 CURVE SMOOTH",
"60 308 OFFCURVE",
"56 269 OFFCURVE",
"56 233 CURVE SMOOTH",
"56 80 OFFCURVE",
"136 -10 OFFCURVE",
"294 -10 CURVE SMOOTH"
);
},
{
closed = 1;
nodes = (
"178 22 OFFCURVE",
"124 105 OFFCURVE",
"124 232 CURVE SMOOTH",
"124 268 OFFCURVE",
"129 308 OFFCURVE",
"137 350 CURVE SMOOTH",
"176 539 OFFCURVE",
"277 678 OFFCURVE",
"435 678 CURVE SMOOTH",
"557 678 OFFCURVE",
"611 594 OFFCURVE",
"611 467 CURVE SMOOTH",
"611 431 OFFCURVE",
"606 392 OFFCURVE",
"598 350 CURVE SMOOTH",
"560 160 OFFCURVE",
"457 22 OFFCURVE",
"300 22 CURVE SMOOTH"
);
},
{
closed = 1;
nodes = (
"484 865 LINE",
"507 876 OFFCURVE",
"519 890 OFFCURVE",
"519 906 CURVE SMOOTH",
"519 916 OFFCURVE",
"512 924 OFFCURVE",
"498 924 CURVE SMOOTH",
"481 924 OFFCURVE",
"465 911 OFFCURVE",
"457 904 CURVE",
"329 804 LINE",
"339 786 LINE"
);
},
{
closed = 1;
nodes = (
"667 865 LINE SMOOTH",
"689 876 OFFCURVE",
"702 890 OFFCURVE",
"702 906 CURVE SMOOTH",
"702 916 OFFCURVE",
"695 924 OFFCURVE",
"681 924 CURVE SMOOTH",
"664 924 OFFCURVE",
"647 911 OFFCURVE",
"640 904 CURVE",
"512 804 LINE",
"521 786 LINE"
);
}
);
width = 670;
}
);
leftKerningGroup = O;
note = Ohungarumlaut;
rightKerningGroup = O;
unicode = 0150;
},
{
glyphname = Omacron;
lastChange = "2015-10-26 06:20:55 +0000";
layers = (
{
layerId = "C5AF2DAB-186C-4D06-AB99-4303FDDF1A44";
name = "Light Italic";
paths = (
{
closed = 1;
nodes = (
"488 -10 OFFCURVE",
"620 127 OFFCURVE",
"666 350 CURVE SMOOTH",
"674 391 OFFCURVE",
"679 430 OFFCURVE",
"679 465 CURVE SMOOTH",
"679 619 OFFCURVE",
"599 710 OFFCURVE",
"441 710 CURVE SMOOTH",
"246 710 OFFCURVE",
"114 572 OFFCURVE",
"69 350 CURVE SMOOTH",
"60 308 OFFCURVE",
"56 269 OFFCURVE",
"56 233 CURVE SMOOTH",
"56 80 OFFCURVE",
"136 -10 OFFCURVE",
"294 -10 CURVE SMOOTH"
);
},
{
closed = 1;
nodes = (
"178 22 OFFCURVE",
"124 105 OFFCURVE",
"124 232 CURVE SMOOTH",
"124 268 OFFCURVE",
"129 308 OFFCURVE",
"137 350 CURVE SMOOTH",
"176 539 OFFCURVE",
"277 678 OFFCURVE",
"435 678 CURVE SMOOTH",
"557 678 OFFCURVE",
"611 594 OFFCURVE",
"611 467 CURVE SMOOTH",
"611 431 OFFCURVE",
"606 392 OFFCURVE",
"598 350 CURVE SMOOTH",
"560 160 OFFCURVE",
"457 22 OFFCURVE",
"300 22 CURVE SMOOTH"
);
},
{
closed = 1;
nodes = (
"609 800 LINE",
"614 831 LINE",
"314 831 LINE",
"308 800 LINE"
);
}
);
width = 670;
}
);
leftKerningGroup = O;
note = Omacron;
rightKerningGroup = O;
unicode = 014C;
},
{
glyphname = Oslash;
lastChange = "2015-10-26 06:20:54 +0000";
layers = (
{
layerId = "C5AF2DAB-186C-4D06-AB99-4303FDDF1A44";
name = "Light Italic";
paths = (
{
closed = 1;
nodes = (
"675 700 LINE",
"652 719 LINE",
"42 -9 LINE",
"64 -28 LINE"
);
},
{
closed = 1;
nodes = (
"488 -10 OFFCURVE",
"620 127 OFFCURVE",
"666 350 CURVE SMOOTH",
"674 391 OFFCURVE",
"679 430 OFFCURVE",
"679 465 CURVE SMOOTH",
"679 619 OFFCURVE",
"599 710 OFFCURVE",
"441 710 CURVE SMOOTH",
"246 710 OFFCURVE",
"114 572 OFFCURVE",
"69 350 CURVE SMOOTH",
"60 308 OFFCURVE",
"56 269 OFFCURVE",
"56 233 CURVE SMOOTH",
"56 80 OFFCURVE",
"136 -10 OFFCURVE",
"294 -10 CURVE SMOOTH"
);
},
{
closed = 1;
nodes = (
"178 22 OFFCURVE",
"124 105 OFFCURVE",
"124 232 CURVE SMOOTH",
"124 268 OFFCURVE",
"129 308 OFFCURVE",
"137 350 CURVE SMOOTH",
"176 539 OFFCURVE",
"277 678 OFFCURVE",
"435 678 CURVE SMOOTH",
"557 678 OFFCURVE",
"611 594 OFFCURVE",
"611 467 CURVE SMOOTH",
"611 431 OFFCURVE",
"606 392 OFFCURVE",
"598 350 CURVE SMOOTH",
"560 160 OFFCURVE",
"457 22 OFFCURVE",
"300 22 CURVE SMOOTH"
);
}
);
width = 670;
}
);
leftKerningGroup = O;
note = Oslash;
rightKerningGroup = O;
unicode = 00D8;
},
{
glyphname = Oslashacute;
lastChange = "2015-10-26 06:20:55 +0000";
layers = (
{
layerId = "C5AF2DAB-186C-4D06-AB99-4303FDDF1A44";
name = "Light Italic";
paths = (
{
closed = 1;
nodes = (
"675 700 LINE",
"652 719 LINE",
"42 -9 LINE",
"64 -28 LINE"
);
},
{
closed = 1;
nodes = (
"488 -10 OFFCURVE",
"620 127 OFFCURVE",
"666 350 CURVE SMOOTH",
"674 391 OFFCURVE",
"679 430 OFFCURVE",
"679 465 CURVE SMOOTH",
"679 619 OFFCURVE",
"599 710 OFFCURVE",
"441 710 CURVE SMOOTH",
"246 710 OFFCURVE",
"114 572 OFFCURVE",
"69 350 CURVE SMOOTH",
"60 308 OFFCURVE",
"56 269 OFFCURVE",
"56 233 CURVE SMOOTH",
"56 80 OFFCURVE",
"136 -10 OFFCURVE",
"294 -10 CURVE SMOOTH"
);
},
{
closed = 1;
nodes = (
"178 22 OFFCURVE",
"124 105 OFFCURVE",
"124 232 CURVE SMOOTH",
"124 268 OFFCURVE",
"129 308 OFFCURVE",
"137 350 CURVE SMOOTH",
"176 539 OFFCURVE",
"277 678 OFFCURVE",
"435 678 CURVE SMOOTH",
"557 678 OFFCURVE",
"611 594 OFFCURVE",
"611 467 CURVE SMOOTH",
"611 431 OFFCURVE",
"606 392 OFFCURVE",
"598 350 CURVE SMOOTH",
"560 160 OFFCURVE",
"457 22 OFFCURVE",
"300 22 CURVE SMOOTH"
);
},
{
closed = 1;
nodes = (
"545 865 LINE SMOOTH",
"568 878 OFFCURVE",
"580 891 OFFCURVE",
"580 906 CURVE SMOOTH",
"580 916 OFFCURVE",
"573 924 OFFCURVE",
"560 924 CURVE SMOOTH",
"542 924 OFFCURVE",
"526 912 OFFCURVE",
"518 905 CURVE",
"391 805 LINE",
"399 786 LINE"
);
}
);
width = 670;
}
);
leftKerningGroup = O;
note = Oslashacute;
rightKerningGroup = O;
unicode = 01FE;
},
{
glyphname = Otilde;
lastChange = "2015-10-26 06:20:55 +0000";
layers = (
{
layerId = "C5AF2DAB-186C-4D06-AB99-4303FDDF1A44";
name = "Light Italic";
paths = (
{
closed = 1;
nodes = (
"488 -10 OFFCURVE",
"620 127 OFFCURVE",
"666 350 CURVE SMOOTH",
"674 391 OFFCURVE",
"679 430 OFFCURVE",
"679 465 CURVE SMOOTH",
"679 619 OFFCURVE",
"599 710 OFFCURVE",
"441 710 CURVE SMOOTH",
"246 710 OFFCURVE",
"114 572 OFFCURVE",
"69 350 CURVE SMOOTH",
"60 308 OFFCURVE",
"56 269 OFFCURVE",
"56 233 CURVE SMOOTH",
"56 80 OFFCURVE",
"136 -10 OFFCURVE",
"294 -10 CURVE SMOOTH"
);
},
{
closed = 1;
nodes = (
"178 22 OFFCURVE",
"124 105 OFFCURVE",
"124 232 CURVE SMOOTH",
"124 268 OFFCURVE",
"129 308 OFFCURVE",
"137 350 CURVE SMOOTH",
"176 539 OFFCURVE",
"277 678 OFFCURVE",
"435 678 CURVE SMOOTH",
"557 678 OFFCURVE",
"611 594 OFFCURVE",
"611 467 CURVE SMOOTH",
"611 431 OFFCURVE",
"606 392 OFFCURVE",
"598 350 CURVE SMOOTH",
"560 160 OFFCURVE",
"457 22 OFFCURVE",
"300 22 CURVE SMOOTH"
);
},
{
closed = 1;
nodes = (
"327 786 LINE",
"342 822 OFFCURVE",
"369 845 OFFCURVE",
"398 845 CURVE SMOOTH",
"438 845 OFFCURVE",
"477 787 OFFCURVE",
"522 787 CURVE SMOOTH",
"573 787 OFFCURVE",
"609 826 OFFCURVE",
"629 887 CURVE",
"606 887 LINE",
"588 845 OFFCURVE",
"562 825 OFFCURVE",
"532 825 CURVE SMOOTH",
"492 825 OFFCURVE",
"459 881 OFFCURVE",
"408 881 CURVE SMOOTH",
"363 881 OFFCURVE",
"324 852 OFFCURVE",
"302 786 CURVE"
);
}
);
width = 670;
}
);
leftKerningGroup = O;
note = Otilde;
rightKerningGroup = O;
unicode = 00D5;
},
{
glyphname = OE;
lastChange = "2015-10-27 06:12:21 +0000";
layers = (
{
layerId = "C5AF2DAB-186C-4D06-AB99-4303FDDF1A44";
name = "Light Italic";
paths = (
{
closed = 1;
nodes = (
"351 -10 OFFCURVE",
"407 6 OFFCURVE",
"456 41 CURVE",
"448 0 LINE",
"840 0 LINE",
"879 134 LINE",
"863 134 LINE",
"849 115 OFFCURVE",
"818 58 OFFCURVE",
"809 31 CURVE",
"522 31 LINE",
"587 344 LINE",
"799 344 LINE",
"798 332 OFFCURVE",
"796 312 OFFCURVE",
"796 292 CURVE SMOOTH",
"796 281 OFFCURVE",
"797 271 OFFCURVE",
"798 262 CURVE",
"811 262 LINE",
"852 457 LINE",
"838 457 LINE",
"825 434 OFFCURVE",
"810 393 OFFCURVE",
"804 375 CURVE",
"592 375 LINE",
"652 668 LINE",
"937 668 LINE",
"936 656 OFFCURVE",
"935 637 OFFCURVE",
"935 618 CURVE SMOOTH",
"935 596 OFFCURVE",
"936 575 OFFCURVE",
"939 565 CURVE",
"956 565 LINE",
"983 700 LINE",
"590 700 LINE",
"582 656 LINE",
"548 691 OFFCURVE",
"498 710 OFFCURVE",
"432 710 CURVE SMOOTH",
"237 710 OFFCURVE",
"111 559 OFFCURVE",
"69 350 CURVE SMOOTH",
"61 309 OFFCURVE",
"56 270 OFFCURVE",
"56 234 CURVE SMOOTH",
"56 87 OFFCURVE",
"128 -10 OFFCURVE",
"285 -10 CURVE SMOOTH"
);
},
{
closed = 1;
nodes = (
"179 22 OFFCURVE",
"125 106 OFFCURVE",
"125 233 CURVE SMOOTH",
"125 269 OFFCURVE",
"130 308 OFFCURVE",
"138 350 CURVE SMOOTH",
"177 539 OFFCURVE",
"279 678 OFFCURVE",
"435 678 CURVE SMOOTH",
"499 678 OFFCURVE",
"545 649 OFFCURVE",
"572 608 CURVE",
"467 90 LINE",
"421 48 OFFCURVE",
"365 22 OFFCURVE",
"300 22 CURVE SMOOTH"
);
}
);
width = 940;
}
);
leftKerningGroup = O;
note = OE;
rightKerningGroup = E;
unicode = 0152;
},
{
glyphname = P;
lastChange = "2015-10-26 06:20:54 +0000";
layers = (
{
layerId = "C5AF2DAB-186C-4D06-AB99-4303FDDF1A44";
name = "Light Italic";
paths = (
{
closed = 1;
nodes = (
"226 0 LINE",
"227 9 LINE",
"204 17 OFFCURVE",
"177 23 OFFCURVE",
"152 27 CURVE",
"204 279 LINE",
"355 279 LINE SMOOTH",
"497 279 OFFCURVE",
"577 370 OFFCURVE",
"602 492 CURVE SMOOTH",
"607 515 OFFCURVE",
"609 536 OFFCURVE",
"609 555 CURVE SMOOTH",
"609 645 OFFCURVE",
"557 700 OFFCURVE",
"424 700 CURVE SMOOTH",
"145 700 LINE",
"143 690 LINE",
"165 682 OFFCURVE",
"190 676 OFFCURVE",
"215 672 CURVE",
"84 27 LINE",
"62 25 OFFCURVE",
"28 18 OFFCURVE",
"3 10 CURVE",
"1 0 LINE"
);
},
{
closed = 1;
nodes = (
"282 668 LINE",
"421 668 LINE SMOOTH",
"505 668 OFFCURVE",
"541 622 OFFCURVE",
"541 549 CURVE SMOOTH",
"541 532 OFFCURVE",
"539 512 OFFCURVE",
"535 492 CURVE SMOOTH",
"514 390 OFFCURVE",
"454 310 OFFCURVE",
"348 310 CURVE SMOOTH",
"209 310 LINE"
);
}
);
width = 573;
}
);
note = P;
unicode = 0050;
},
{
glyphname = Thorn;
lastChange = "2015-10-26 06:20:54 +0000";
layers = (
{
layerId = "C5AF2DAB-186C-4D06-AB99-4303FDDF1A44";
name = "Light Italic";
paths = (
{
closed = 1;
nodes = (
"226 0 LINE",
"227 9 LINE",
"204 17 OFFCURVE",
"178 23 OFFCURVE",
"153 27 CURVE",
"176 137 LINE",
"327 137 LINE SMOOTH",
"469 137 OFFCURVE",
"549 229 OFFCURVE",
"574 350 CURVE SMOOTH",
"578 372 OFFCURVE",
"581 393 OFFCURVE",
"581 412 CURVE SMOOTH",
"581 499 OFFCURVE",
"534 558 OFFCURVE",
"412 558 CURVE SMOOTH",
"261 558 LINE",
"290 700 LINE",
"145 700 LINE",
"143 690 LINE",
"166 682 OFFCURVE",
"190 676 OFFCURVE",
"216 672 CURVE",
"84 27 LINE",
"63 25 OFFCURVE",
"29 18 OFFCURVE",
"3 10 CURVE",
"1 0 LINE"
);
},
{
closed = 1;
nodes = (
"255 527 LINE",
"387 527 LINE SMOOTH",
"475 527 OFFCURVE",
"513 483 OFFCURVE",
"513 410 CURVE SMOOTH",
"513 392 OFFCURVE",
"510 372 OFFCURVE",
"506 351 CURVE SMOOTH",
"485 248 OFFCURVE",
"426 168 OFFCURVE",
"320 168 CURVE SMOOTH",
"181 168 LINE"
);
}
);
width = 571;
}
);
note = Thorn;
unicode = 00DE;
},
{
glyphname = Q;
lastChange = "2015-10-26 06:20:55 +0000";
layers = (
{
layerId = "C5AF2DAB-186C-4D06-AB99-4303FDDF1A44";
name = "Light Italic";
paths = (
{
closed = 1;
nodes = (
"488 -10 OFFCURVE",
"620 127 OFFCURVE",
"666 350 CURVE SMOOTH",
"674 391 OFFCURVE",
"679 430 OFFCURVE",
"679 465 CURVE SMOOTH",
"679 619 OFFCURVE",
"599 710 OFFCURVE",
"441 710 CURVE SMOOTH",
"246 710 OFFCURVE",
"114 572 OFFCURVE",
"69 350 CURVE SMOOTH",
"60 308 OFFCURVE",
"56 269 OFFCURVE",
"56 233 CURVE SMOOTH",
"56 80 OFFCURVE",
"136 -10 OFFCURVE",
"294 -10 CURVE SMOOTH"
);
},
{
closed = 1;
nodes = (
"486 -132 LINE",
"396 -124 OFFCURVE",
"347 -79 OFFCURVE",
"347 -12 CURVE SMOOTH",
"347 -7 OFFCURVE",
"347 -1 OFFCURVE",
"348 5 CURVE",
"281 5 LINE",
"274 -86 OFFCURVE",
"338 -147 OFFCURVE",
"481 -159 CURVE"
);
},
{
closed = 1;
nodes = (
"179 22 OFFCURVE",
"124 106 OFFCURVE",
"124 234 CURVE SMOOTH",
"124 269 OFFCURVE",
"129 308 OFFCURVE",
"137 350 CURVE SMOOTH",
"176 539 OFFCURVE",
"279 678 OFFCURVE",
"435 678 CURVE SMOOTH",
"556 678 OFFCURVE",
"611 593 OFFCURVE",
"611 466 CURVE SMOOTH",
"611 430 OFFCURVE",
"606 391 OFFCURVE",
"598 350 CURVE SMOOTH",
"560 160 OFFCURVE",
"456 22 OFFCURVE",
"300 22 CURVE SMOOTH"
);
}
);
width = 670;
}
);
leftKerningGroup = O;
note = Q;
rightKerningGroup = O;
unicode = 0051;
},
{
glyphname = R;
lastChange = "2015-10-26 06:20:55 +0000";
layers = (
{
layerId = "C5AF2DAB-186C-4D06-AB99-4303FDDF1A44";
name = "Light Italic";
paths = (
{
closed = 1;
nodes = (
"228 0 LINE",
"228 9 LINE",
"206 17 OFFCURVE",
"180 23 OFFCURVE",
"155 27 CURVE",
"210 301 LINE",
"365 301 LINE SMOOTH",
"502 301 OFFCURVE",
"584 378 OFFCURVE",
"609 502 CURVE SMOOTH",
"613 523 OFFCURVE",
"616 544 OFFCURVE",
"616 562 CURVE SMOOTH",
"616 647 OFFCURVE",
"568 700 OFFCURVE",
"446 700 CURVE SMOOTH",
"147 700 LINE",
"145 690 LINE",
"168 682 OFFCURVE",
"192 676 OFFCURVE",
"218 672 CURVE",
"86 27 LINE",
"65 25 OFFCURVE",
"30 18 OFFCURVE",
"5 10 CURVE",
"3 0 LINE"
);
},
{
closed = 1;
nodes = (
"560 0 LINE",
"562 10 LINE",
"545 18 OFFCURVE",
"516 23 OFFCURVE",
"495 27 CURVE",
"398 309 LINE",
"335 309 LINE",
"438 0 LINE"
);
},
{
closed = 1;
nodes = (
"285 668 LINE",
"423 668 LINE SMOOTH",
"509 668 OFFCURVE",
"547 628 OFFCURVE",
"547 558 CURVE SMOOTH",
"547 541 OFFCURVE",
"545 522 OFFCURVE",
"541 502 CURVE SMOOTH",
"521 400 OFFCURVE",
"463 332 OFFCURVE",
"355 332 CURVE SMOOTH",
"217 332 LINE"
);
}
);
width = 625;
}
);
note = R;
rightKerningGroup = R;
unicode = 0052;
},
{
glyphname = Racute;
lastChange = "2015-10-26 06:20:55 +0000";
layers = (
{
layerId = "C5AF2DAB-186C-4D06-AB99-4303FDDF1A44";
name = "Light Italic";
paths = (
{
closed = 1;
nodes = (
"228 0 LINE",
"228 9 LINE",
"206 17 OFFCURVE",
"180 23 OFFCURVE",
"155 27 CURVE",
"210 301 LINE",
"365 301 LINE SMOOTH",
"502 301 OFFCURVE",
"584 378 OFFCURVE",
"609 502 CURVE SMOOTH",
"613 523 OFFCURVE",
"616 544 OFFCURVE",
"616 562 CURVE SMOOTH",
"616 647 OFFCURVE",
"568 700 OFFCURVE",
"446 700 CURVE SMOOTH",
"147 700 LINE",
"145 690 LINE",
"168 682 OFFCURVE",
"192 676 OFFCURVE",
"218 672 CURVE",
"86 27 LINE",
"65 25 OFFCURVE",
"30 18 OFFCURVE",
"5 10 CURVE",
"3 0 LINE"
);
},
{
closed = 1;
nodes = (
"560 0 LINE",
"562 10 LINE",
"545 18 OFFCURVE",
"516 23 OFFCURVE",
"495 27 CURVE",
"398 309 LINE",
"335 309 LINE",
"438 0 LINE"
);
},
{
closed = 1;
nodes = (
"285 668 LINE",
"423 668 LINE SMOOTH",
"509 668 OFFCURVE",
"547 628 OFFCURVE",
"547 558 CURVE SMOOTH",
"547 541 OFFCURVE",
"545 522 OFFCURVE",
"541 502 CURVE SMOOTH",
"521 400 OFFCURVE",
"463 332 OFFCURVE",
"355 332 CURVE SMOOTH",
"217 332 LINE"
);
},
{
closed = 1;
nodes = (
"508 865 LINE SMOOTH",
"531 878 OFFCURVE",
"542 892 OFFCURVE",
"542 907 CURVE SMOOTH",
"542 916 OFFCURVE",
"535 924 OFFCURVE",
"522 924 CURVE SMOOTH",
"505 924 OFFCURVE",
"489 912 OFFCURVE",
"481 905 CURVE",
"353 805 LINE",
"362 786 LINE"
);
}
);
width = 625;
}
);
note = Racute;
rightKerningGroup = R;
unicode = 0154;
},
{
glyphname = Rcaron;
lastChange = "2015-10-26 06:20:55 +0000";
layers = (
{
layerId = "C5AF2DAB-186C-4D06-AB99-4303FDDF1A44";
name = "Light Italic";
paths = (
{
closed = 1;
nodes = (
"228 0 LINE",
"228 9 LINE",
"206 17 OFFCURVE",
"180 23 OFFCURVE",
"155 27 CURVE",
"210 301 LINE",
"365 301 LINE SMOOTH",
"502 301 OFFCURVE",
"584 378 OFFCURVE",
"609 502 CURVE SMOOTH",
"613 523 OFFCURVE",
"616 544 OFFCURVE",
"616 562 CURVE SMOOTH",
"616 647 OFFCURVE",
"568 700 OFFCURVE",
"446 700 CURVE SMOOTH",
"147 700 LINE",
"145 690 LINE",
"168 682 OFFCURVE",
"192 676 OFFCURVE",
"218 672 CURVE",
"86 27 LINE",
"65 25 OFFCURVE",
"30 18 OFFCURVE",
"5 10 CURVE",
"3 0 LINE"
);
},
{
closed = 1;
nodes = (
"560 0 LINE",
"562 10 LINE",
"545 18 OFFCURVE",
"516 23 OFFCURVE",
"495 27 CURVE",
"398 309 LINE",
"335 309 LINE",
"438 0 LINE"
);
},
{
closed = 1;
nodes = (
"285 668 LINE",
"423 668 LINE SMOOTH",
"509 668 OFFCURVE",
"547 628 OFFCURVE",
"547 558 CURVE SMOOTH",
"547 541 OFFCURVE",
"545 522 OFFCURVE",
"541 502 CURVE SMOOTH",
"521 400 OFFCURVE",
"463 332 OFFCURVE",
"355 332 CURVE SMOOTH",
"217 332 LINE"
);
},
{
closed = 1;
nodes = (
"445 786 LINE",
"484 829 OFFCURVE",
"544 876 OFFCURVE",
"588 903 CURVE",
"564 930 LINE",
"524 903 OFFCURVE",
"473 863 OFFCURVE",
"441 828 CURVE",
"436 828 LINE",
"417 863 OFFCURVE",
"383 903 OFFCURVE",
"352 930 CURVE",
"320 903 LINE",
"351 876 OFFCURVE",
"393 829 OFFCURVE",
"414 786 CURVE"
);
}
);
width = 625;
}
);
note = Rcaron;
rightKerningGroup = R;
unicode = 0158;
},
{
glyphname = Rcommaaccent;
lastChange = "2015-10-26 06:20:54 +0000";
layers = (
{
layerId = "C5AF2DAB-186C-4D06-AB99-4303FDDF1A44";
name = "Light Italic";
paths = (
{
closed = 1;
nodes = (
"228 0 LINE",
"228 9 LINE",
"206 17 OFFCURVE",
"180 23 OFFCURVE",
"155 27 CURVE",
"210 301 LINE",
"365 301 LINE SMOOTH",
"502 301 OFFCURVE",
"584 378 OFFCURVE",
"609 502 CURVE SMOOTH",
"613 523 OFFCURVE",
"616 544 OFFCURVE",
"616 562 CURVE SMOOTH",
"616 647 OFFCURVE",
"568 700 OFFCURVE",
"446 700 CURVE SMOOTH",
"147 700 LINE",
"145 690 LINE",
"168 682 OFFCURVE",
"192 676 OFFCURVE",
"218 672 CURVE",
"86 27 LINE",
"65 25 OFFCURVE",
"30 18 OFFCURVE",
"5 10 CURVE",
"3 0 LINE"
);
},
{
closed = 1;
nodes = (
"267 -244 OFFCURVE",
"304 -175 OFFCURVE",
"315 -127 CURVE SMOOTH",
"316 -120 OFFCURVE",
"317 -113 OFFCURVE",
"317 -107 CURVE SMOOTH",
"317 -82 OFFCURVE",
"305 -65 OFFCURVE",
"275 -65 CURVE SMOOTH",
"249 -65 OFFCURVE",
"221 -83 OFFCURVE",
"221 -119 CURVE SMOOTH",
"221 -138 OFFCURVE",
"234 -151 OFFCURVE",
"253 -151 CURVE SMOOTH",
"257 -151 OFFCURVE",
"262 -150 OFFCURVE",
"266 -149 CURVE",
"254 -189 OFFCURVE",
"231 -230 OFFCURVE",
"202 -259 CURVE",
"223 -280 LINE"
);
},
{
closed = 1;
nodes = (
"560 0 LINE",
"562 10 LINE",
"545 18 OFFCURVE",
"516 23 OFFCURVE",
"495 27 CURVE",
"398 309 LINE",
"335 309 LINE",
"438 0 LINE"
);
},
{
closed = 1;
nodes = (
"285 668 LINE",
"423 668 LINE SMOOTH",
"509 668 OFFCURVE",
"547 628 OFFCURVE",
"547 558 CURVE SMOOTH",
"547 541 OFFCURVE",
"545 522 OFFCURVE",
"541 502 CURVE SMOOTH",
"521 400 OFFCURVE",
"463 332 OFFCURVE",
"355 332 CURVE SMOOTH",
"217 332 LINE"
);
}
);
width = 625;
}
);
note = Rcommaaccent;
rightKerningGroup = R;
unicode = 0156;
},
{
glyphname = Rdotbelow;
lastChange = "2015-10-26 06:20:55 +0000";
layers = (
{
layerId = "C5AF2DAB-186C-4D06-AB99-4303FDDF1A44";
name = "Light Italic";
paths = (
{
closed = 1;
nodes = (
"228 0 LINE",
"228 9 LINE",
"206 17 OFFCURVE",
"180 23 OFFCURVE",
"155 27 CURVE",
"210 301 LINE",
"365 301 LINE SMOOTH",
"502 301 OFFCURVE",
"584 378 OFFCURVE",
"609 502 CURVE SMOOTH",
"613 523 OFFCURVE",
"616 544 OFFCURVE",
"616 562 CURVE SMOOTH",
"616 647 OFFCURVE",
"568 700 OFFCURVE",
"446 700 CURVE SMOOTH",
"147 700 LINE",
"145 690 LINE",
"168 682 OFFCURVE",
"192 676 OFFCURVE",
"218 672 CURVE",
"86 27 LINE",
"65 25 OFFCURVE",
"30 18 OFFCURVE",
"5 10 CURVE",
"3 0 LINE"
);
},
{
closed = 1;
nodes = (
"283 -142 OFFCURVE",
"305 -121 OFFCURVE",
"305 -91 CURVE SMOOTH",
"305 -72 OFFCURVE",
"294 -61 OFFCURVE",
"276 -61 CURVE SMOOTH",
"250 -61 OFFCURVE",
"228 -81 OFFCURVE",
"228 -111 CURVE SMOOTH",
"228 -130 OFFCURVE",
"239 -142 OFFCURVE",
"258 -142 CURVE SMOOTH"
);
},
{
closed = 1;
nodes = (
"560 0 LINE",
"562 10 LINE",
"545 18 OFFCURVE",
"516 23 OFFCURVE",
"495 27 CURVE",
"398 309 LINE",
"335 309 LINE",
"438 0 LINE"
);
},
{
closed = 1;
nodes = (
"285 668 LINE",
"423 668 LINE SMOOTH",
"509 668 OFFCURVE",
"547 628 OFFCURVE",
"547 558 CURVE SMOOTH",
"547 541 OFFCURVE",
"545 522 OFFCURVE",
"541 502 CURVE SMOOTH",
"521 400 OFFCURVE",
"463 332 OFFCURVE",
"355 332 CURVE SMOOTH",
"217 332 LINE"
);
}
);
width = 625;
}
);
note = Rdotbelow;
rightKerningGroup = R;
unicode = 1E5A;
},
{
glyphname = Rdotbelowmacron;
lastChange = "2015-10-26 06:20:55 +0000";
layers = (
{
layerId = "C5AF2DAB-186C-4D06-AB99-4303FDDF1A44";
name = "Light Italic";
paths = (
{
closed = 1;
nodes = (
"228 0 LINE",
"228 9 LINE",
"206 17 OFFCURVE",
"180 23 OFFCURVE",
"155 27 CURVE",
"210 301 LINE",
"365 301 LINE SMOOTH",
"502 301 OFFCURVE",
"584 378 OFFCURVE",
"609 502 CURVE SMOOTH",
"613 523 OFFCURVE",
"616 544 OFFCURVE",
"616 562 CURVE SMOOTH",
"616 647 OFFCURVE",
"568 700 OFFCURVE",
"446 700 CURVE SMOOTH",
"147 700 LINE",
"145 690 LINE",
"168 682 OFFCURVE",
"192 676 OFFCURVE",
"218 672 CURVE",
"86 27 LINE",
"65 25 OFFCURVE",
"30 18 OFFCURVE",
"5 10 CURVE",
"3 0 LINE"
);
},
{
closed = 1;
nodes = (
"283 -142 OFFCURVE",
"305 -121 OFFCURVE",
"305 -91 CURVE SMOOTH",
"305 -72 OFFCURVE",
"294 -61 OFFCURVE",
"275 -61 CURVE SMOOTH",
"249 -61 OFFCURVE",
"227 -81 OFFCURVE",
"227 -111 CURVE SMOOTH",
"227 -130 OFFCURVE",
"238 -142 OFFCURVE",
"257 -142 CURVE SMOOTH"
);
},
{
closed = 1;
nodes = (
"560 0 LINE",
"562 10 LINE",
"545 18 OFFCURVE",
"516 23 OFFCURVE",
"495 27 CURVE",
"398 309 LINE",
"335 309 LINE",
"438 0 LINE"
);
},
{
closed = 1;
nodes = (
"285 668 LINE",
"423 668 LINE SMOOTH",
"509 668 OFFCURVE",
"547 628 OFFCURVE",
"547 558 CURVE SMOOTH",
"547 541 OFFCURVE",
"545 522 OFFCURVE",
"541 502 CURVE SMOOTH",
"521 400 OFFCURVE",
"463 332 OFFCURVE",
"355 332 CURVE SMOOTH",
"217 332 LINE"
);
},
{
closed = 1;
nodes = (
"558 785 LINE",
"564 816 LINE",
"250 816 LINE",
"243 785 LINE"
);
}
);
width = 625;
}
);
note = Rdotbelowmacron;
rightKerningGroup = R;
unicode = 1E5C;
},
{
glyphname = Rlinebelow;
lastChange = "2015-10-26 06:20:55 +0000";
layers = (
{
layerId = "C5AF2DAB-186C-4D06-AB99-4303FDDF1A44";
name = "Light Italic";
paths = (
{
closed = 1;
nodes = (
"228 0 LINE",
"228 9 LINE",
"206 17 OFFCURVE",
"180 23 OFFCURVE",
"155 27 CURVE",
"210 301 LINE",
"365 301 LINE SMOOTH",
"502 301 OFFCURVE",
"584 378 OFFCURVE",
"609 502 CURVE SMOOTH",
"613 523 OFFCURVE",
"616 544 OFFCURVE",
"616 562 CURVE SMOOTH",
"616 647 OFFCURVE",
"568 700 OFFCURVE",
"446 700 CURVE SMOOTH",
"147 700 LINE",
"145 690 LINE",
"168 682 OFFCURVE",
"192 676 OFFCURVE",
"218 672 CURVE",
"86 27 LINE",
"65 25 OFFCURVE",
"30 18 OFFCURVE",
"5 10 CURVE",
"3 0 LINE"
);
},
{
closed = 1;
nodes = (
"406 -102 LINE",
"412 -71 LINE",
"111 -71 LINE",
"106 -102 LINE"
);
},
{
closed = 1;
nodes = (
"560 0 LINE",
"562 10 LINE",
"545 18 OFFCURVE",
"516 23 OFFCURVE",
"495 27 CURVE",
"398 309 LINE",
"335 309 LINE",
"438 0 LINE"
);
},
{
closed = 1;
nodes = (
"285 668 LINE",
"423 668 LINE SMOOTH",
"509 668 OFFCURVE",
"547 628 OFFCURVE",
"547 558 CURVE SMOOTH",
"547 541 OFFCURVE",
"545 522 OFFCURVE",
"541 502 CURVE SMOOTH",
"521 400 OFFCURVE",
"463 332 OFFCURVE",
"355 332 CURVE SMOOTH",
"217 332 LINE"
);
}
);
width = 625;
}
);
note = Rlinebelow;
rightKerningGroup = R;
unicode = 1E5E;
},
{
glyphname = S;
lastChange = "2015-10-26 06:20:54 +0000";
layers = (
{
layerId = "C5AF2DAB-186C-4D06-AB99-4303FDDF1A44";
name = "Light Italic";
paths = (
{
closed = 1;
nodes = (
"336 -10 OFFCURVE",
"446 63 OFFCURVE",
"470 180 CURVE SMOOTH",
"473 195 OFFCURVE",
"474 209 OFFCURVE",
"474 222 CURVE SMOOTH",
"474 409 OFFCURVE",
"187 402 OFFCURVE",
"187 536 CURVE SMOOTH",
"187 543 OFFCURVE",
"188 550 OFFCURVE",
"189 557 CURVE SMOOTH",
"204 632 OFFCURVE",
"266 678 OFFCURVE",
"377 678 CURVE SMOOTH",
"432 678 OFFCURVE",
"472 661 OFFCURVE",
"495 632 CURVE",
"493 610 OFFCURVE",
"490 579 OFFCURVE",
"490 555 CURVE SMOOTH",
"490 544 OFFCURVE",
"491 535 OFFCURVE",
"492 528 CURVE",
"509 528 LINE",
"540 639 LINE",
"507 686 OFFCURVE",
"450 710 OFFCURVE",
"365 710 CURVE SMOOTH",
"237 710 OFFCURVE",
"140 657 OFFCURVE",
"118 548 CURVE SMOOTH",
"115 536 OFFCURVE",
"114 524 OFFCURVE",
"114 513 CURVE SMOOTH",
"114 346 OFFCURVE",
"402 361 OFFCURVE",
"402 201 CURVE SMOOTH",
"402 191 OFFCURVE",
"400 180 OFFCURVE",
"398 169 CURVE SMOOTH",
"379 73 OFFCURVE",
"286 22 OFFCURVE",
"200 22 CURVE SMOOTH",
"126 22 OFFCURVE",
"79 53 OFFCURVE",
"55 94 CURVE",
"59 118 OFFCURVE",
"64 164 OFFCURVE",
"64 194 CURVE SMOOTH",
"64 202 OFFCURVE",
"64 209 OFFCURVE",
"63 214 CURVE",
"46 214 LINE",
"11 81 LINE",
"39 31 OFFCURVE",
"108 -10 OFFCURVE",
"209 -10 CURVE SMOOTH"
);
}
);
width = 506;
}
);
leftKerningGroup = S;
note = S;
rightKerningGroup = S;
unicode = 0053;
},
{
glyphname = Sacute;
lastChange = "2015-10-26 06:20:55 +0000";
layers = (
{
layerId = "C5AF2DAB-186C-4D06-AB99-4303FDDF1A44";
name = "Light Italic";
paths = (
{
closed = 1;
nodes = (
"336 -10 OFFCURVE",
"446 63 OFFCURVE",
"470 180 CURVE SMOOTH",
"473 195 OFFCURVE",
"474 209 OFFCURVE",
"474 222 CURVE SMOOTH",
"474 409 OFFCURVE",
"187 402 OFFCURVE",
"187 536 CURVE SMOOTH",
"187 543 OFFCURVE",
"188 550 OFFCURVE",
"189 557 CURVE SMOOTH",
"204 632 OFFCURVE",
"266 678 OFFCURVE",
"377 678 CURVE SMOOTH",
"432 678 OFFCURVE",
"472 661 OFFCURVE",
"495 632 CURVE",
"493 610 OFFCURVE",
"490 579 OFFCURVE",
"490 555 CURVE SMOOTH",
"490 544 OFFCURVE",
"491 535 OFFCURVE",
"492 528 CURVE",
"509 528 LINE",
"540 639 LINE",
"507 686 OFFCURVE",
"450 710 OFFCURVE",
"365 710 CURVE SMOOTH",
"237 710 OFFCURVE",
"140 657 OFFCURVE",
"118 548 CURVE SMOOTH",
"115 536 OFFCURVE",
"114 524 OFFCURVE",
"114 513 CURVE SMOOTH",
"114 346 OFFCURVE",
"402 361 OFFCURVE",
"402 201 CURVE SMOOTH",
"402 191 OFFCURVE",
"400 180 OFFCURVE",
"398 169 CURVE SMOOTH",
"379 73 OFFCURVE",
"286 22 OFFCURVE",
"200 22 CURVE SMOOTH",
"126 22 OFFCURVE",
"79 53 OFFCURVE",
"55 94 CURVE",
"59 118 OFFCURVE",
"64 164 OFFCURVE",
"64 194 CURVE SMOOTH",
"64 202 OFFCURVE",
"64 209 OFFCURVE",
"63 214 CURVE",
"46 214 LINE",
"11 81 LINE",
"39 31 OFFCURVE",
"108 -10 OFFCURVE",
"209 -10 CURVE SMOOTH"
);
},
{
closed = 1;
nodes = (
"472 865 LINE SMOOTH",
"495 878 OFFCURVE",
"507 891 OFFCURVE",
"507 906 CURVE SMOOTH",
"507 916 OFFCURVE",
"500 924 OFFCURVE",
"487 924 CURVE SMOOTH",
"469 924 OFFCURVE",
"453 912 OFFCURVE",
"445 905 CURVE",
"318 805 LINE",
"326 786 LINE"
);
}
);
width = 506;
}
);
leftKerningGroup = S;
note = Sacute;
rightKerningGroup = S;
unicode = 015A;
},
{
glyphname = Scaron;
lastChange = "2015-10-26 06:20:55 +0000";
layers = (
{
layerId = "C5AF2DAB-186C-4D06-AB99-4303FDDF1A44";
name = "Light Italic";
paths = (
{
closed = 1;
nodes = (
"336 -10 OFFCURVE",
"446 63 OFFCURVE",
"470 180 CURVE SMOOTH",
"473 195 OFFCURVE",
"474 209 OFFCURVE",
"474 222 CURVE SMOOTH",
"474 409 OFFCURVE",
"187 402 OFFCURVE",
"187 536 CURVE SMOOTH",
"187 543 OFFCURVE",
"188 550 OFFCURVE",
"189 557 CURVE SMOOTH",
"204 632 OFFCURVE",
"266 678 OFFCURVE",
"377 678 CURVE SMOOTH",
"432 678 OFFCURVE",
"472 661 OFFCURVE",
"495 632 CURVE",
"493 610 OFFCURVE",
"490 579 OFFCURVE",
"490 555 CURVE SMOOTH",
"490 544 OFFCURVE",
"491 535 OFFCURVE",
"492 528 CURVE",
"509 528 LINE",
"540 639 LINE",
"507 686 OFFCURVE",
"450 710 OFFCURVE",
"365 710 CURVE SMOOTH",
"237 710 OFFCURVE",
"140 657 OFFCURVE",
"118 548 CURVE SMOOTH",
"115 536 OFFCURVE",
"114 524 OFFCURVE",
"114 513 CURVE SMOOTH",
"114 346 OFFCURVE",
"402 361 OFFCURVE",
"402 201 CURVE SMOOTH",
"402 191 OFFCURVE",
"400 180 OFFCURVE",
"398 169 CURVE SMOOTH",
"379 73 OFFCURVE",
"286 22 OFFCURVE",
"200 22 CURVE SMOOTH",
"126 22 OFFCURVE",
"79 53 OFFCURVE",
"55 94 CURVE",
"59 118 OFFCURVE",
"64 164 OFFCURVE",
"64 194 CURVE SMOOTH",
"64 202 OFFCURVE",
"64 209 OFFCURVE",
"63 214 CURVE",
"46 214 LINE",
"11 81 LINE",
"39 31 OFFCURVE",
"108 -10 OFFCURVE",
"209 -10 CURVE SMOOTH"
);
},
{
closed = 1;
nodes = (
"389 786 LINE",
"427 829 OFFCURVE",
"488 876 OFFCURVE",
"531 903 CURVE",
"508 930 LINE",
"468 903 OFFCURVE",
"417 863 OFFCURVE",
"384 828 CURVE",
"379 828 LINE",
"360 863 OFFCURVE",
"326 903 OFFCURVE",
"296 930 CURVE",
"263 903 LINE",
"295 876 OFFCURVE",
"336 829 OFFCURVE",
"357 786 CURVE"
);
}
);
width = 506;
}
);
leftKerningGroup = S;
note = Scaron;
rightKerningGroup = S;
unicode = 0160;
},
{
glyphname = Scedilla;
lastChange = "2015-10-26 06:20:54 +0000";
layers = (
{
layerId = "C5AF2DAB-186C-4D06-AB99-4303FDDF1A44";
name = "Light Italic";
paths = (
{
closed = 1;
nodes = (
"336 -10 OFFCURVE",
"446 63 OFFCURVE",
"470 180 CURVE SMOOTH",
"473 195 OFFCURVE",
"474 209 OFFCURVE",
"474 222 CURVE SMOOTH",
"474 409 OFFCURVE",
"187 402 OFFCURVE",
"187 536 CURVE SMOOTH",
"187 543 OFFCURVE",
"188 550 OFFCURVE",
"189 557 CURVE SMOOTH",
"204 632 OFFCURVE",
"266 678 OFFCURVE",
"377 678 CURVE SMOOTH",
"432 678 OFFCURVE",
"472 661 OFFCURVE",
"495 632 CURVE",
"493 610 OFFCURVE",
"490 579 OFFCURVE",
"490 555 CURVE SMOOTH",
"490 544 OFFCURVE",
"491 535 OFFCURVE",
"492 528 CURVE",
"509 528 LINE",
"540 639 LINE",
"507 686 OFFCURVE",
"450 710 OFFCURVE",
"365 710 CURVE SMOOTH",
"237 710 OFFCURVE",
"140 657 OFFCURVE",
"118 548 CURVE SMOOTH",
"115 536 OFFCURVE",
"114 524 OFFCURVE",
"114 513 CURVE SMOOTH",
"114 346 OFFCURVE",
"402 361 OFFCURVE",
"402 201 CURVE SMOOTH",
"402 191 OFFCURVE",
"400 180 OFFCURVE",
"398 169 CURVE SMOOTH",
"379 73 OFFCURVE",
"286 22 OFFCURVE",
"200 22 CURVE SMOOTH",
"126 22 OFFCURVE",
"79 53 OFFCURVE",
"55 94 CURVE",
"59 118 OFFCURVE",
"64 164 OFFCURVE",
"64 194 CURVE SMOOTH",
"64 202 OFFCURVE",
"64 209 OFFCURVE",
"63 214 CURVE",
"46 214 LINE",
"11 81 LINE",
"39 31 OFFCURVE",
"108 -10 OFFCURVE",
"209 -10 CURVE SMOOTH"
);
},
{
closed = 1;
nodes = (
"213 -208 OFFCURVE",
"266 -182 OFFCURVE",
"277 -127 CURVE SMOOTH",
"278 -123 OFFCURVE",
"278 -119 OFFCURVE",
"278 -115 CURVE SMOOTH",
"278 -81 OFFCURVE",
"247 -66 OFFCURVE",
"201 -66 CURVE SMOOTH",
"192 -66 LINE",
"239 8 LINE",
"204 8 LINE",
"152 -68 LINE",
"167 -94 LINE",
"174 -93 OFFCURVE",
"182 -92 OFFCURVE",
"191 -92 CURVE SMOOTH",
"215 -92 OFFCURVE",
"242 -101 OFFCURVE",
"237 -127 CURVE SMOOTH",
"229 -163 OFFCURVE",
"199 -178 OFFCURVE",
"158 -178 CURVE SMOOTH",
"140 -178 OFFCURVE",
"120 -175 OFFCURVE",
"105 -169 CURVE",
"85 -194 LINE",
"105 -203 OFFCURVE",
"131 -208 OFFCURVE",
"154 -208 CURVE SMOOTH"
);
}
);
width = 506;
}
);
leftKerningGroup = S;
note = Scedilla;
rightKerningGroup = S;
unicode = 015E;
},
{
glyphname = Scircumflex;
lastChange = "2015-10-26 06:20:54 +0000";
layers = (
{
layerId = "C5AF2DAB-186C-4D06-AB99-4303FDDF1A44";
name = "Light Italic";
paths = (
{
closed = 1;
nodes = (
"336 -10 OFFCURVE",
"446 63 OFFCURVE",
"470 180 CURVE SMOOTH",
"473 195 OFFCURVE",
"474 209 OFFCURVE",
"474 222 CURVE SMOOTH",
"474 409 OFFCURVE",
"187 402 OFFCURVE",
"187 536 CURVE SMOOTH",
"187 543 OFFCURVE",
"188 550 OFFCURVE",
"189 557 CURVE SMOOTH",
"204 632 OFFCURVE",
"266 678 OFFCURVE",
"377 678 CURVE SMOOTH",
"432 678 OFFCURVE",
"472 661 OFFCURVE",
"495 632 CURVE",
"493 610 OFFCURVE",
"490 579 OFFCURVE",
"490 555 CURVE SMOOTH",
"490 544 OFFCURVE",
"491 535 OFFCURVE",
"492 528 CURVE",
"509 528 LINE",
"540 639 LINE",
"507 686 OFFCURVE",
"450 710 OFFCURVE",
"365 710 CURVE SMOOTH",
"237 710 OFFCURVE",
"140 657 OFFCURVE",
"118 548 CURVE SMOOTH",
"115 536 OFFCURVE",
"114 524 OFFCURVE",
"114 513 CURVE SMOOTH",
"114 346 OFFCURVE",
"402 361 OFFCURVE",
"402 201 CURVE SMOOTH",
"402 191 OFFCURVE",
"400 180 OFFCURVE",
"398 169 CURVE SMOOTH",
"379 73 OFFCURVE",
"286 22 OFFCURVE",
"200 22 CURVE SMOOTH",
"126 22 OFFCURVE",
"79 53 OFFCURVE",
"55 94 CURVE",
"59 118 OFFCURVE",
"64 164 OFFCURVE",
"64 194 CURVE SMOOTH",
"64 202 OFFCURVE",
"64 209 OFFCURVE",
"63 214 CURVE",
"46 214 LINE",
"11 81 LINE",
"39 31 OFFCURVE",
"108 -10 OFFCURVE",
"209 -10 CURVE SMOOTH"
);
},
{
closed = 1;
nodes = (
"306 806 OFFCURVE",
"356 846 OFFCURVE",
"390 881 CURVE",
"395 881 LINE",
"413 846 OFFCURVE",
"447 806 OFFCURVE",
"477 779 CURVE",
"511 806 LINE",
"479 833 OFFCURVE",
"438 880 OFFCURVE",
"417 922 CURVE",
"385 922 LINE",
"347 880 OFFCURVE",
"286 833 OFFCURVE",
"244 806 CURVE",
"265 779 LINE"
);
}
);
width = 506;
}
);
leftKerningGroup = S;
note = Scircumflex;
rightKerningGroup = S;
unicode = 015C;
},
{
glyphname = Scommaaccent;
lastChange = "2015-10-26 06:20:54 +0000";
layers = (
{
layerId = "C5AF2DAB-186C-4D06-AB99-4303FDDF1A44";
name = "Light Italic";
paths = (
{
closed = 1;
nodes = (
"336 -10 OFFCURVE",
"446 63 OFFCURVE",
"470 180 CURVE SMOOTH",
"473 195 OFFCURVE",
"474 209 OFFCURVE",
"474 222 CURVE SMOOTH",
"474 409 OFFCURVE",
"187 402 OFFCURVE",
"187 536 CURVE SMOOTH",
"187 543 OFFCURVE",
"188 550 OFFCURVE",
"189 557 CURVE SMOOTH",
"204 632 OFFCURVE",
"266 678 OFFCURVE",
"377 678 CURVE SMOOTH",
"432 678 OFFCURVE",
"472 661 OFFCURVE",
"495 632 CURVE",
"493 610 OFFCURVE",
"490 579 OFFCURVE",
"490 555 CURVE SMOOTH",
"490 544 OFFCURVE",
"491 535 OFFCURVE",
"492 528 CURVE",
"509 528 LINE",
"540 639 LINE",
"507 686 OFFCURVE",
"450 710 OFFCURVE",
"365 710 CURVE SMOOTH",
"237 710 OFFCURVE",
"140 657 OFFCURVE",
"118 548 CURVE SMOOTH",
"115 536 OFFCURVE",
"114 524 OFFCURVE",
"114 513 CURVE SMOOTH",
"114 346 OFFCURVE",
"402 361 OFFCURVE",
"402 201 CURVE SMOOTH",
"402 191 OFFCURVE",
"400 180 OFFCURVE",
"398 169 CURVE SMOOTH",
"379 73 OFFCURVE",
"286 22 OFFCURVE",
"200 22 CURVE SMOOTH",
"126 22 OFFCURVE",
"79 53 OFFCURVE",
"55 94 CURVE",
"59 118 OFFCURVE",
"64 164 OFFCURVE",
"64 194 CURVE SMOOTH",
"64 202 OFFCURVE",
"64 209 OFFCURVE",
"63 214 CURVE",
"46 214 LINE",
"11 81 LINE",
"39 31 OFFCURVE",
"108 -10 OFFCURVE",
"209 -10 CURVE SMOOTH"
);
},
{
closed = 1;
nodes = (
"196 -233 OFFCURVE",
"243 -147 OFFCURVE",
"243 -101 CURVE SMOOTH",
"243 -74 OFFCURVE",
"229 -55 OFFCURVE",
"199 -55 CURVE SMOOTH",
"171 -55 OFFCURVE",
"142 -79 OFFCURVE",
"142 -113 CURVE SMOOTH",
"142 -133 OFFCURVE",
"156 -146 OFFCURVE",
"175 -146 CURVE SMOOTH",
"179 -146 OFFCURVE",
"183 -146 OFFCURVE",
"189 -143 CURVE",
"178 -185 OFFCURVE",
"153 -224 OFFCURVE",
"124 -253 CURVE",
"146 -274 LINE"
);
}
);
width = 506;
}
);
leftKerningGroup = S;
note = Scommaaccent;
rightKerningGroup = S;
unicode = 0218;
},
{
glyphname = Sdotaccent;
lastChange = "2015-10-26 06:20:54 +0000";
layers = (
{
layerId = "C5AF2DAB-186C-4D06-AB99-4303FDDF1A44";
name = "Light Italic";
paths = (
{
closed = 1;
nodes = (
"336 -10 OFFCURVE",
"446 63 OFFCURVE",
"470 180 CURVE SMOOTH",
"473 195 OFFCURVE",
"474 209 OFFCURVE",
"474 222 CURVE SMOOTH",
"474 409 OFFCURVE",
"187 402 OFFCURVE",
"187 536 CURVE SMOOTH",
"187 543 OFFCURVE",
"188 550 OFFCURVE",
"189 557 CURVE SMOOTH",
"204 632 OFFCURVE",
"266 678 OFFCURVE",
"377 678 CURVE SMOOTH",
"432 678 OFFCURVE",
"472 661 OFFCURVE",
"495 632 CURVE",
"493 610 OFFCURVE",
"490 579 OFFCURVE",
"490 555 CURVE SMOOTH",
"490 544 OFFCURVE",
"491 535 OFFCURVE",
"492 528 CURVE",
"509 528 LINE",
"540 639 LINE",
"507 686 OFFCURVE",
"450 710 OFFCURVE",
"365 710 CURVE SMOOTH",
"237 710 OFFCURVE",
"140 657 OFFCURVE",
"118 548 CURVE SMOOTH",
"115 536 OFFCURVE",
"114 524 OFFCURVE",
"114 513 CURVE SMOOTH",
"114 346 OFFCURVE",
"402 361 OFFCURVE",
"402 201 CURVE SMOOTH",
"402 191 OFFCURVE",
"400 180 OFFCURVE",
"398 169 CURVE SMOOTH",
"379 73 OFFCURVE",
"286 22 OFFCURVE",
"200 22 CURVE SMOOTH",
"126 22 OFFCURVE",
"79 53 OFFCURVE",
"55 94 CURVE",
"59 118 OFFCURVE",
"64 164 OFFCURVE",
"64 194 CURVE SMOOTH",
"64 202 OFFCURVE",
"64 209 OFFCURVE",
"63 214 CURVE",
"46 214 LINE",
"11 81 LINE",
"39 31 OFFCURVE",
"108 -10 OFFCURVE",
"209 -10 CURVE SMOOTH"
);
},
{
closed = 1;
nodes = (
"405 785 OFFCURVE",
"427 806 OFFCURVE",
"427 836 CURVE SMOOTH",
"427 855 OFFCURVE",
"416 866 OFFCURVE",
"397 866 CURVE SMOOTH",
"371 866 OFFCURVE",
"350 846 OFFCURVE",
"350 815 CURVE SMOOTH",
"350 797 OFFCURVE",
"360 785 OFFCURVE",
"380 785 CURVE SMOOTH"
);
}
);
width = 506;
}
);
leftKerningGroup = S;
note = Sdotaccent;
rightKerningGroup = S;
unicode = 1E60;
},
{
glyphname = Sdotbelow;
lastChange = "2015-10-26 06:20:54 +0000";
layers = (
{
layerId = "C5AF2DAB-186C-4D06-AB99-4303FDDF1A44";
name = "Light Italic";
paths = (
{
closed = 1;
nodes = (
"336 -10 OFFCURVE",
"446 63 OFFCURVE",
"470 180 CURVE SMOOTH",
"473 195 OFFCURVE",
"474 209 OFFCURVE",
"474 222 CURVE SMOOTH",
"474 409 OFFCURVE",
"187 402 OFFCURVE",
"187 536 CURVE SMOOTH",
"187 543 OFFCURVE",
"188 550 OFFCURVE",
"189 557 CURVE SMOOTH",
"204 632 OFFCURVE",
"266 678 OFFCURVE",
"377 678 CURVE SMOOTH",
"432 678 OFFCURVE",
"472 661 OFFCURVE",
"495 632 CURVE",
"493 610 OFFCURVE",
"490 579 OFFCURVE",
"490 555 CURVE SMOOTH",
"490 544 OFFCURVE",
"491 535 OFFCURVE",
"492 528 CURVE",
"509 528 LINE",
"540 639 LINE",
"507 686 OFFCURVE",
"450 710 OFFCURVE",
"365 710 CURVE SMOOTH",
"237 710 OFFCURVE",
"140 657 OFFCURVE",
"118 548 CURVE SMOOTH",
"115 536 OFFCURVE",
"114 524 OFFCURVE",
"114 513 CURVE SMOOTH",
"114 346 OFFCURVE",
"402 361 OFFCURVE",
"402 201 CURVE SMOOTH",
"402 191 OFFCURVE",
"400 180 OFFCURVE",
"398 169 CURVE SMOOTH",
"379 73 OFFCURVE",
"286 22 OFFCURVE",
"200 22 CURVE SMOOTH",
"126 22 OFFCURVE",
"79 53 OFFCURVE",
"55 94 CURVE",
"59 118 OFFCURVE",
"64 164 OFFCURVE",
"64 194 CURVE SMOOTH",
"64 202 OFFCURVE",
"64 209 OFFCURVE",
"63 214 CURVE",
"46 214 LINE",
"11 81 LINE",
"39 31 OFFCURVE",
"108 -10 OFFCURVE",
"209 -10 CURVE SMOOTH"
);
},
{
closed = 1;
nodes = (
"205 -142 OFFCURVE",
"227 -122 OFFCURVE",
"227 -92 CURVE SMOOTH",
"227 -73 OFFCURVE",
"216 -61 OFFCURVE",
"197 -61 CURVE SMOOTH",
"172 -61 OFFCURVE",
"150 -82 OFFCURVE",
"150 -113 CURVE SMOOTH",
"150 -131 OFFCURVE",
"161 -142 OFFCURVE",
"180 -142 CURVE SMOOTH"
);
}
);
width = 506;
}
);
leftKerningGroup = S;
note = Sdotbelow;
rightKerningGroup = S;
unicode = 1E62;
},
